STARTFONT 2.1
COMMENT
COMMENT Converted from OpenType font "SpaceMonoNerdFontMono-Regular.ttf" by "otf2bdf 3.0".
COMMENT
FONT -FreeType-SpaceMono Nerd Font Mono-Medium-R-Normal--22-160-100-100-P-123-ISO10646-1
SIZE 16 100 100
FONTBOUNDINGBOX 15 33 -1 -8
STARTPROPERTIES 19
FOUNDRY "FreeType"
FAMILY_NAME "SpaceMono Nerd Font Mono"
WEIGHT_NAME "Medium"
SLANT "R"
SETWIDTH_NAME "Normal"
ADD_STYLE_NAME ""
PIXEL_SIZE 22
POINT_SIZE 160
RESOLUTION_X 100
RESOLUTION_Y 100
SPACING "P"
AVERAGE_WIDTH 123
CHARSET_REGISTRY "ISO10646"
CHARSET_ENCODING "1"
FONT_ASCENT 24
FONT_DESCENT 7
COPYRIGHT "Copyright 2016 Google Inc. All Rights Reserved."
_OTF_FONTFILE "SpaceMonoNerdFontMono-Regular.ttf"
_OTF_PSNAME "SpaceMonoNFM"
ENDPROPERTIES
CHARS 3107
STARTCHAR 0000
ENCODING 0
SWIDTH 585 0
DWIDTH 13 0
BBX 0 0 0 0
BITMAP
ENDCHAR
STARTCHAR 0020
ENCODING 32
SWIDTH 585 0
DWIDTH 13 0
BBX 0 0 0 0
BITMAP
ENDCHAR
STARTCHAR 0021
ENCODING 33
SWIDTH 585 0
DWIDTH 13 0
BBX 3 15 5 0
BITMAP
60
60
60
60
60
60
60
60
60
60
60
00
60
E0
60
ENDCHAR
STARTCHAR 0022
ENCODING 34
SWIDTH 585 0
DWIDTH 13 0
BBX 7 5 3 10
BITMAP
66
EE
66
44
44
ENDCHAR
STARTCHAR 0023
ENCODING 35
SWIDTH 585 0
DWIDTH 13 0
BBX 10 11 2 3
BITMAP
3300
3300
3300
FFC0
FFC0
3300
3300
FFC0
FFC0
3300
3300
ENDCHAR
STARTCHAR 0024
ENCODING 36
SWIDTH 585 0
DWIDTH 13 0
BBX 9 14 2 1
BITMAP
0800
1C00
7F00
4B00
C980
6800
7E00
0F80
C980
C980
E980
7F00
1E00
0800
ENDCHAR
STARTCHAR 0025
ENCODING 37
SWIDTH 585 0
DWIDTH 13 0
BBX 11 15 1 0
BITMAP
3800
7C00
C600
8600
C420
7CE0
1380
0E00
3980
E3E0
8620
0420
0420
07E0
03C0
ENDCHAR
STARTCHAR 0026
ENCODING 38
SWIDTH 585 0
DWIDTH 13 0
BBX 12 15 1 0
BITMAP
3F00
7F00
C000
C000
C0C0
40C0
7FF0
3FF0
60C0
C0C0
C0C0
C0C0
E0C0
7FC0
3FC0
ENDCHAR
STARTCHAR 0027
ENCODING 39
SWIDTH 585 0
DWIDTH 13 0
BBX 3 5 5 10
BITMAP
60
E0
60
40
40
ENDCHAR
STARTCHAR 0028
ENCODING 40
SWIDTH 585 0
DWIDTH 13 0
BBX 9 22 3 -3
BITMAP
0780
0F80
1800
3000
6000
6000
4000
C000
C000
C000
C000
C000
C000
C000
C000
4000
6000
6000
3000
3800
0F80
0780
ENDCHAR
STARTCHAR 0029
ENCODING 41
SWIDTH 585 0
DWIDTH 13 0
BBX 9 22 1 -3
BITMAP
F000
FC00
0E00
0300
0300
0180
0180
0180
0180
0180
0180
0180
0180
0180
0180
0180
0180
0300
0300
0E00
FC00
F000
ENDCHAR
STARTCHAR 002A
ENCODING 42
SWIDTH 585 0
DWIDTH 13 0
BBX 11 11 1 2
BITMAP
0600
2640
76C0
3D80
1F00
FFE0
FEE0
1D80
77C0
26C0
0600
ENDCHAR
STARTCHAR 002B
ENCODING 43
SWIDTH 585 0
DWIDTH 13 0
BBX 9 9 2 3
BITMAP
0C00
0C00
0C00
0C00
FF80
FF80
0C00
0C00
0C00
ENDCHAR
STARTCHAR 002C
ENCODING 44
SWIDTH 585 0
DWIDTH 13 0
BBX 3 6 5 -3
BITMAP
60
E0
60
20
E0
C0
ENDCHAR
STARTCHAR 002D
ENCODING 45
SWIDTH 585 0
DWIDTH 13 0
BBX 7 2 3 5
BITMAP
FE
FE
ENDCHAR
STARTCHAR 002E
ENCODING 46
SWIDTH 585 0
DWIDTH 13 0
BBX 3 3 5 0
BITMAP
60
E0
60
ENDCHAR
STARTCHAR 002F
ENCODING 47
SWIDTH 585 0
DWIDTH 13 0
BBX 8 20 3 -2
BITMAP
02
03
06
06
04
0C
0C
0C
18
18
18
30
30
30
20
60
60
40
C0
C0
ENDCHAR
STARTCHAR 0030
ENCODING 48
SWIDTH 585 0
DWIDTH 13 0
BBX 11 15 1 0
BITMAP
1F00
3FC0
60C0
6060
C060
C060
C660
CE60
C660
C060
C060
6060
60C0
3FC0
1F00
ENDCHAR
STARTCHAR 0031
ENCODING 49
SWIDTH 585 0
DWIDTH 13 0
BBX 11 15 1 0
BITMAP
1E00
1600
3600
2600
6600
6600
C600
0600
0600
0600
0600
0600
0600
7FE0
7FE0
ENDCHAR
STARTCHAR 0032
ENCODING 50
SWIDTH 585 0
DWIDTH 13 0
BBX 11 15 1 0
BITMAP
1F00
3FC0
60E0
6060
C060
C060
0060
01C0
0F80
3C00
7000
6000
4000
7FE0
7FE0
ENDCHAR
STARTCHAR 0033
ENCODING 51
SWIDTH 585 0
DWIDTH 13 0
BBX 11 15 1 0
BITMAP
7FE0
7FE0
00E0
0380
0E00
0F00
0FC0
00E0
0060
C060
C060
6060
60E0
3FC0
1F00
ENDCHAR
STARTCHAR 0034
ENCODING 52
SWIDTH 585 0
DWIDTH 13 0
BBX 11 15 1 0
BITMAP
0780
0780
0D80
0980
1980
3180
3180
6180
6180
C180
FFE0
FFE0
0180
0180
0180
ENDCHAR
STARTCHAR 0035
ENCODING 53
SWIDTH 585 0
DWIDTH 13 0
BBX 11 15 1 0
BITMAP
7FC0
7FC0
6000
6000
6780
6FC0
7860
7060
0020
0020
C060
6060
60E0
3FC0
1F00
ENDCHAR
STARTCHAR 0036
ENCODING 54
SWIDTH 585 0
DWIDTH 13 0
BBX 11 15 1 0
BITMAP
1F00
3FC0
60C0
6060
C000
CF80
DFC0
E0E0
E060
C060
C060
4060
60C0
3FC0
1F00
ENDCHAR
STARTCHAR 0037
ENCODING 55
SWIDTH 585 0
DWIDTH 13 0
BBX 10 15 2 0
BITMAP
FFC0
FFC0
00C0
0180
0180
0300
0600
0600
0C00
1800
3800
3000
6000
6000
4000
ENDCHAR
STARTCHAR 0038
ENCODING 56
SWIDTH 585 0
DWIDTH 13 0
BBX 11 15 1 0
BITMAP
1F00
3FC0
60E0
6060
6060
70C0
1F80
3F80
60C0
4060
C060
C060
60E0
7FC0
1F80
ENDCHAR
STARTCHAR 0039
ENCODING 57
SWIDTH 585 0
DWIDTH 13 0
BBX 11 15 1 0
BITMAP
1F00
3FC0
60C0
4060
C060
C060
6060
70E0
3F60
0C60
6060
6060
60C0
3FC0
1F00
ENDCHAR
STARTCHAR 003A
ENCODING 58
SWIDTH 585 0
DWIDTH 13 0
BBX 3 11 5 0
BITMAP
60
E0
60
00
00
00
00
00
60
E0
60
ENDCHAR
STARTCHAR 003B
ENCODING 59
SWIDTH 585 0
DWIDTH 13 0
BBX 3 14 5 -3
BITMAP
60
E0
60
00
00
00
00
00
60
E0
60
20
E0
C0
ENDCHAR
STARTCHAR 003C
ENCODING 60
SWIDTH 585 0
DWIDTH 13 0
BBX 9 10 2 3
BITMAP
0080
0380
1F80
7C00
E000
8000
F000
3E00
0780
0180
ENDCHAR
STARTCHAR 003D
ENCODING 61
SWIDTH 585 0
DWIDTH 13 0
BBX 9 5 2 5
BITMAP
FF80
FF80
0000
FF80
FF80
ENDCHAR
STARTCHAR 003E
ENCODING 62
SWIDTH 585 0
DWIDTH 13 0
BBX 9 10 2 3
BITMAP
8000
E000
7C00
0F80
0180
0080
0380
1F00
F800
C000
ENDCHAR
STARTCHAR 003F
ENCODING 63
SWIDTH 585 0
DWIDTH 13 0
BBX 10 15 2 0
BITMAP
3E00
7F80
C180
C0C0
80C0
80C0
0180
0F80
1E00
1800
1800
0000
1800
1C00
1800
ENDCHAR
STARTCHAR 0040
ENCODING 64
SWIDTH 585 0
DWIDTH 13 0
BBX 11 13 1 0
BITMAP
7F80
7FE0
0060
1020
7F20
E720
C320
C320
C320
C320
C320
7FE0
39E0
ENDCHAR
STARTCHAR 0041
ENCODING 65
SWIDTH 585 0
DWIDTH 13 0
BBX 13 15 0 0
BITMAP
0780
0580
0D80
0CC0
08C0
18C0
1840
1860
3060
3FE0
3FF0
6030
6030
6018
C018
ENDCHAR
STARTCHAR 0042
ENCODING 66
SWIDTH 585 0
DWIDTH 13 0
BBX 11 15 1 0
BITMAP
FF80
FFC0
2060
2060
2060
2060
3FC0
3F80
20C0
2060
2060
2060
2060
FFC0
FF80
ENDCHAR
STARTCHAR 0043
ENCODING 67
SWIDTH 585 0
DWIDTH 13 0
BBX 11 15 1 0
BITMAP
1F00
3FC0
60E0
6060
4060
C000
C000
C000
C000
C060
4060
6060
60E0
3FC0
1F00
ENDCHAR
STARTCHAR 0044
ENCODING 68
SWIDTH 585 0
DWIDTH 13 0
BBX 10 15 2 0
BITMAP
FF00
FF80
61C0
60C0
60C0
60C0
60C0
60C0
60C0
60C0
60C0
60C0
61C0
FF80
FF00
ENDCHAR
STARTCHAR 0045
ENCODING 69
SWIDTH 585 0
DWIDTH 13 0
BBX 10 15 2 0
BITMAP
FF80
FF80
C000
C000
C000
C000
FF80
FF80
C000
C000
C000
C000
C000
FFC0
FFC0
ENDCHAR
STARTCHAR 0046
ENCODING 70
SWIDTH 585 0
DWIDTH 13 0
BBX 10 15 2 0
BITMAP
FFC0
FFC0
C000
C000
C000
C000
FF80
FF80
C000
C000
C000
C000
C000
C000
C000
ENDCHAR
STARTCHAR 0047
ENCODING 71
SWIDTH 585 0
DWIDTH 13 0
BBX 11 15 1 0
BITMAP
1F00
3FC0
60E0
6060
C060
C000
C000
CFE0
CFE0
C060
C060
6060
60E0
3FE0
1F60
ENDCHAR
STARTCHAR 0048
ENCODING 72
SWIDTH 585 0
DWIDTH 13 0
BBX 10 15 2 0
BITMAP
80C0
80C0
80C0
80C0
80C0
80C0
FFC0
FFC0
80C0
80C0
80C0
80C0
80C0
80C0
80C0
ENDCHAR
STARTCHAR 0049
ENCODING 73
SWIDTH 585 0
DWIDTH 13 0
BBX 10 15 2 0
BITMAP
FFC0
FFC0
0C00
0C00
0C00
0C00
0C00
0C00
0C00
0C00
0C00
0C00
0C00
FFC0
FFC0
ENDCHAR
STARTCHAR 004A
ENCODING 74
SWIDTH 585 0
DWIDTH 13 0
BBX 10 15 2 0
BITMAP
03C0
03C0
0180
0180
0180
0180
0180
0180
0180
8180
8180
C180
C180
7F00
3E00
ENDCHAR
STARTCHAR 004B
ENCODING 75
SWIDTH 585 0
DWIDTH 13 0
BBX 11 15 2 0
BITMAP
C0E0
C180
C300
C600
CE00
DC00
F800
F000
D800
CC00
C600
C700
C380
C180
C0E0
ENDCHAR
STARTCHAR 004C
ENCODING 76
SWIDTH 585 0
DWIDTH 13 0
BBX 10 15 2 0
BITMAP
C000
C000
C000
C000
C000
C000
C000
C000
C000
C000
C000
C000
C000
FFC0
FFC0
ENDCHAR
STARTCHAR 004D
ENCODING 77
SWIDTH 585 0
DWIDTH 13 0
BBX 11 15 1 0
BITMAP
F0E0
F0A0
F0A0
F1A0
D1A0
D1A0
D1A0
D9A0
D920
D920
DB20
CB20
CB20
CF20
CE20
ENDCHAR
STARTCHAR 004E
ENCODING 78
SWIDTH 585 0
DWIDTH 13 0
BBX 10 15 2 0
BITMAP
E0C0
B0C0
B0C0
90C0
98C0
98C0
98C0
8CC0
8CC0
8CC0
86C0
86C0
86C0
83C0
83C0
ENDCHAR
STARTCHAR 004F
ENCODING 79
SWIDTH 585 0
DWIDTH 13 0
BBX 11 15 1 0
BITMAP
1F00
3FC0
60C0
6060
C060
C060
C060
C060
C060
C060
C060
6060
60C0
3FC0
1F00
ENDCHAR
STARTCHAR 0050
ENCODING 80
SWIDTH 585 0
DWIDTH 13 0
BBX 10 15 2 0
BITMAP
FF00
FF80
C0C0
C0C0
C0C0
C0C0
C1C0
FF80
FE00
C000
C000
C000
C000
C000
C000
ENDCHAR
STARTCHAR 0051
ENCODING 81
SWIDTH 585 0
DWIDTH 13 0
BBX 11 19 1 -4
BITMAP
1F00
3FC0
60C0
6060
C060
C060
C060
C060
C060
C060
C060
4060
6060
71C0
3F80
0600
0600
0780
0380
ENDCHAR
STARTCHAR 0052
ENCODING 82
SWIDTH 585 0
DWIDTH 13 0
BBX 10 15 2 0
BITMAP
FF00
FF80
C0C0
C0C0
C0C0
C0C0
C180
FF00
FF80
C0C0
C0C0
C0C0
C0C0
C0C0
C0C0
ENDCHAR
STARTCHAR 0053
ENCODING 83
SWIDTH 585 0
DWIDTH 13 0
BBX 11 15 1 0
BITMAP
1F00
3FC0
6060
6060
6060
6000
3C00
1FC0
00E0
C060
C060
C060
6060
3FC0
1F80
ENDCHAR
STARTCHAR 0054
ENCODING 84
SWIDTH 585 0
DWIDTH 13 0
BBX 11 15 1 0
BITMAP
FFE0
FFE0
0600
0600
0600
0600
0600
0600
0600
0600
0600
0600
0600
0600
0600
ENDCHAR
STARTCHAR 0055
ENCODING 85
SWIDTH 585 0
DWIDTH 13 0
BBX 11 15 1 0
BITMAP
C060
C060
C060
C060
C060
C060
C060
C060
C060
C060
C060
6060
60C0
3FC0
1F00
ENDCHAR
STARTCHAR 0056
ENCODING 86
SWIDTH 585 0
DWIDTH 13 0
BBX 12 15 1 0
BITMAP
C030
C060
C060
6060
6060
60C0
60C0
30C0
3180
3180
1980
1980
1B00
0B00
0F00
ENDCHAR
STARTCHAR 0057
ENCODING 87
SWIDTH 585 0
DWIDTH 13 0
BBX 13 15 0 0
BITMAP
C718
C798
C598
4598
4598
4D98
6D98
6C90
6C90
6C90
6CB0
6CF0
28F0
28F0
38F0
ENDCHAR
STARTCHAR 0058
ENCODING 88
SWIDTH 585 0
DWIDTH 13 0
BBX 11 15 1 0
BITMAP
C060
6060
60C0
30C0
1980
1B00
0F00
0F00
1B00
1980
3180
30C0
60C0
6060
C060
ENDCHAR
STARTCHAR 0059
ENCODING 89
SWIDTH 585 0
DWIDTH 13 0
BBX 12 15 1 0
BITMAP
C030
C060
6060
60C0
30C0
3180
1980
1B00
0F00
0E00
0600
0600
0600
0600
0600
ENDCHAR
STARTCHAR 005A
ENCODING 90
SWIDTH 585 0
DWIDTH 13 0
BBX 11 15 1 0
BITMAP
7FE0
7FE0
0060
00C0
0180
0380
0700
0E00
0C00
1800
3000
6000
C000
FFE0
FFE0
ENDCHAR
STARTCHAR 005B
ENCODING 91
SWIDTH 585 0
DWIDTH 13 0
BBX 4 22 6 -3
BITMAP
F0
F0
C0
C0
C0
C0
C0
C0
C0
C0
C0
C0
C0
C0
C0
C0
C0
C0
C0
C0
F0
F0
ENDCHAR
STARTCHAR 005C
ENCODING 92
SWIDTH 585 0
DWIDTH 13 0
BBX 8 20 3 -2
BITMAP
80
C0
C0
40
60
60
20
30
30
10
18
18
08
0C
0C
04
06
06
02
03
ENDCHAR
STARTCHAR 005D
ENCODING 93
SWIDTH 585 0
DWIDTH 13 0
BBX 4 22 4 -3
BITMAP
E0
F0
30
30
30
30
30
30
30
30
30
30
30
30
30
30
30
30
30
30
F0
E0
ENDCHAR
STARTCHAR 005E
ENCODING 94
SWIDTH 585 0
DWIDTH 13 0
BBX 10 6 2 9
BITMAP
1E00
3600
3300
6300
6180
C1C0
ENDCHAR
STARTCHAR 005F
ENCODING 95
SWIDTH 585 0
DWIDTH 13 0
BBX 10 2 2 -3
BITMAP
FFC0
FFC0
ENDCHAR
STARTCHAR 0060
ENCODING 96
SWIDTH 585 0
DWIDTH 13 0
BBX 3 3 5 12
BITMAP
C0
60
60
ENDCHAR
STARTCHAR 0061
ENCODING 97
SWIDTH 585 0
DWIDTH 13 0
BBX 12 11 1 0
BITMAP
1E60
7F60
60E0
C0E0
C060
C060
C060
C0E0
60E0
7F70
1E70
ENDCHAR
STARTCHAR 0062
ENCODING 98
SWIDTH 585 0
DWIDTH 13 0
BBX 10 15 2 0
BITMAP
8000
8000
8000
8000
9F00
BF80
C1C0
C0C0
80C0
8040
80C0
C0C0
C1C0
BF80
9F00
ENDCHAR
STARTCHAR 0063
ENCODING 99
SWIDTH 585 0
DWIDTH 13 0
BBX 11 11 1 0
BITMAP
1F00
3FC0
60E0
6060
C000
C000
C000
4060
60E0
3FC0
1F00
ENDCHAR
STARTCHAR 0064
ENCODING 100
SWIDTH 585 0
DWIDTH 13 0
BBX 11 15 1 0
BITMAP
0060
0060
0060
0060
1F60
3FE0
60E0
4060
C060
C060
C060
4060
60E0
3FE0
1F60
ENDCHAR
STARTCHAR 0065
ENCODING 101
SWIDTH 585 0
DWIDTH 13 0
BBX 11 11 1 0
BITMAP
1F00
3FC0
60C0
4060
FFE0
FFE0
4000
6040
60E0
3FC0
1F00
ENDCHAR
STARTCHAR 0066
ENCODING 102
SWIDTH 585 0
DWIDTH 13 0
BBX 9 15 2 0
BITMAP
0F80
1F80
1800
1800
FF80
FF80
1800
1800
1800
1800
1800
1800
1800
1800
1800
ENDCHAR
STARTCHAR 0067
ENCODING 103
SWIDTH 585 0
DWIDTH 13 0
BBX 11 15 1 -4
BITMAP
1F60
3FE0
60E0
C060
C060
C060
C060
C060
60E0
3FE0
1F60
0060
0060
3FE0
3FC0
ENDCHAR
STARTCHAR 0068
ENCODING 104
SWIDTH 585 0
DWIDTH 13 0
BBX 10 15 2 0
BITMAP
C000
C000
C000
C000
DF00
FF80
E180
C080
C0C0
C0C0
C0C0
C0C0
C0C0
C0C0
C0C0
ENDCHAR
STARTCHAR 0069
ENCODING 105
SWIDTH 585 0
DWIDTH 13 0
BBX 9 15 2 0
BITMAP
0C00
1C00
0C00
0000
7C00
7C00
0C00
0C00
0C00
0C00
0C00
0C00
0C00
FF80
FF80
ENDCHAR
STARTCHAR 006A
ENCODING 106
SWIDTH 585 0
DWIDTH 13 0
BBX 7 19 3 -4
BITMAP
0C
0E
0C
00
FC
FC
0C
0C
0C
0C
0C
0C
0C
0C
0C
0C
0C
FC
FC
ENDCHAR
STARTCHAR 006B
ENCODING 107
SWIDTH 585 0
DWIDTH 13 0
BBX 9 15 3 0
BITMAP
C000
C000
C000
C000
C300
C600
CC00
DC00
D800
F000
F000
D800
CC00
C600
C380
ENDCHAR
STARTCHAR 006C
ENCODING 108
SWIDTH 585 0
DWIDTH 13 0
BBX 10 15 2 0
BITMAP
FC00
FC00
0C00
0C00
0C00
0C00
0C00
0C00
0C00
0C00
0C00
0C00
0C00
FFC0
FFC0
ENDCHAR
STARTCHAR 006D
ENCODING 109
SWIDTH 585 0
DWIDTH 13 0
BBX 11 11 1 0
BITMAP
FDC0
FFE0
C620
C620
C620
C620
C620
C620
C620
C620
C620
ENDCHAR
STARTCHAR 006E
ENCODING 110
SWIDTH 585 0
DWIDTH 13 0
BBX 10 11 2 0
BITMAP
DF00
FF80
E180
C080
C0C0
C0C0
C0C0
C0C0
C0C0
C0C0
C0C0
ENDCHAR
STARTCHAR 006F
ENCODING 111
SWIDTH 585 0
DWIDTH 13 0
BBX 11 11 1 0
BITMAP
1F00
3FC0
60C0
4060
C060
C060
C060
4060
60C0
3FC0
1F00
ENDCHAR
STARTCHAR 0070
ENCODING 112
SWIDTH 585 0
DWIDTH 13 0
BBX 10 15 2 -4
BITMAP
9F00
BF80
C1C0
C0C0
80C0
8040
80C0
C0C0
C1C0
BF80
9F00
8000
8000
8000
8000
ENDCHAR
STARTCHAR 0071
ENCODING 113
SWIDTH 585 0
DWIDTH 13 0
BBX 11 15 1 -4
BITMAP
1E60
3FE0
60E0
C060
C060
C060
C060
C060
60E0
3FE0
1E60
0060
0060
0060
0060
ENDCHAR
STARTCHAR 0072
ENCODING 114
SWIDTH 585 0
DWIDTH 13 0
BBX 11 11 1 0
BITMAP
F380
F7E0
1860
1060
1000
1000
1000
1000
1000
FE00
FE00
ENDCHAR
STARTCHAR 0073
ENCODING 115
SWIDTH 585 0
DWIDTH 13 0
BBX 9 11 2 0
BITMAP
3E00
7F00
4180
4100
7000
3F00
0180
C180
C180
7F80
3E00
ENDCHAR
STARTCHAR 0074
ENCODING 116
SWIDTH 585 0
DWIDTH 13 0
BBX 9 15 2 0
BITMAP
1800
1800
1800
1800
FF80
FF80
1800
1800
1800
1800
1800
1800
1800
1F00
1F00
ENDCHAR
STARTCHAR 0075
ENCODING 117
SWIDTH 585 0
DWIDTH 13 0
BBX 9 11 2 0
BITMAP
C080
C080
C080
C080
C080
C080
C080
C180
C180
7E80
3C80
ENDCHAR
STARTCHAR 0076
ENCODING 118
SWIDTH 585 0
DWIDTH 13 0
BBX 11 11 1 0
BITMAP
C060
6060
60C0
60C0
30C0
3180
3180
1980
1B00
1B00
0F00
ENDCHAR
STARTCHAR 0077
ENCODING 119
SWIDTH 585 0
DWIDTH 13 0
BBX 13 11 0 0
BITMAP
C718
4798
6598
6598
6590
6D90
6CB0
2CB0
2CB0
38F0
38E0
ENDCHAR
STARTCHAR 0078
ENCODING 120
SWIDTH 585 0
DWIDTH 13 0
BBX 10 11 2 0
BITMAP
C1C0
6180
6300
3300
3600
1E00
1E00
3200
6300
6180
C0C0
ENDCHAR
STARTCHAR 0079
ENCODING 121
SWIDTH 585 0
DWIDTH 13 0
BBX 10 15 2 -4
BITMAP
C0C0
C0C0
C0C0
C0C0
C0C0
C0C0
C0C0
C1C0
C1C0
7EC0
3CC0
00C0
00C0
3FC0
3F80
ENDCHAR
STARTCHAR 007A
ENCODING 122
SWIDTH 585 0
DWIDTH 13 0
BBX 10 11 2 0
BITMAP
FF80
FF80
0180
0300
0600
1C00
3800
6000
C000
FFC0
FFC0
ENDCHAR
STARTCHAR 007B
ENCODING 123
SWIDTH 585 0
DWIDTH 13 0
BBX 6 22 4 -3
BITMAP
1C
3C
30
30
30
30
30
30
30
30
E0
E0
30
30
30
30
30
30
30
30
3C
1C
ENDCHAR
STARTCHAR 007C
ENCODING 124
SWIDTH 585 0
DWIDTH 13 0
BBX 2 22 6 -3
BITMAP
C0
C0
C0
C0
C0
C0
C0
C0
C0
C0
C0
C0
C0
C0
C0
C0
C0
C0
C0
C0
C0
C0
ENDCHAR
STARTCHAR 007D
ENCODING 125
SWIDTH 585 0
DWIDTH 13 0
BBX 5 22 4 -3
BITMAP
E0
E0
20
20
20
20
20
20
20
20
38
38
20
20
20
20
20
20
20
20
E0
E0
ENDCHAR
STARTCHAR 007E
ENCODING 126
SWIDTH 585 0
DWIDTH 13 0
BBX 11 4 1 5
BITMAP
0820
3C60
F7C0
4300
ENDCHAR
STARTCHAR 00A0
ENCODING 160
SWIDTH 585 0
DWIDTH 13 0
BBX 0 0 0 0
BITMAP
ENDCHAR
STARTCHAR 00A1
ENCODING 161
SWIDTH 585 0
DWIDTH 13 0
BBX 3 15 5 -4
BITMAP
60
E0
60
00
60
60
60
60
60
60
60
60
60
60
60
ENDCHAR
STARTCHAR 00A2
ENCODING 162
SWIDTH 585 0
DWIDTH 13 0
BBX 11 14 1 1
BITMAP
0600
0600
3F80
76C0
6660
C660
C600
C600
C660
6660
76C0
3FC0
0F00
0600
ENDCHAR
STARTCHAR 00A3
ENCODING 163
SWIDTH 585 0
DWIDTH 13 0
BBX 9 11 2 2
BITMAP
1E00
3F00
3180
2180
2000
F800
F800
2000
2000
FF80
FF80
ENDCHAR
STARTCHAR 00A4
ENCODING 164
SWIDTH 585 0
DWIDTH 13 0
BBX 12 11 1 2
BITMAP
4620
FFF0
70C0
6060
C060
C020
C060
4060
60C0
7FE0
DF70
ENDCHAR
STARTCHAR 00A5
ENCODING 165
SWIDTH 585 0
DWIDTH 13 0
BBX 9 11 2 2
BITMAP
C180
6180
6300
3300
3600
7F80
7F80
7F80
7F80
0C00
0C00
ENDCHAR
STARTCHAR 00A6
ENCODING 166
SWIDTH 585 0
DWIDTH 13 0
BBX 2 22 6 -3
BITMAP
C0
C0
C0
C0
C0
C0
C0
C0
C0
C0
00
00
C0
C0
C0
C0
C0
C0
C0
C0
C0
C0
ENDCHAR
STARTCHAR 00A7
ENCODING 167
SWIDTH 585 0
DWIDTH 13 0
BBX 6 11 4 4
BITMAP
78
F8
CC
E0
F8
CC
7C
0C
8C
FC
78
ENDCHAR
STARTCHAR 00A8
ENCODING 168
SWIDTH 585 0
DWIDTH 13 0
BBX 7 3 3 12
BITMAP
E6
EE
E6
ENDCHAR
STARTCHAR 00A9
ENCODING 169
SWIDTH 585 0
DWIDTH 13 0
BBX 11 11 1 7
BITMAP
1F00
3F80
6E40
4F20
9920
9820
9920
4F20
6E40
3F80
1F00
ENDCHAR
STARTCHAR 00AA
ENCODING 170
SWIDTH 585 0
DWIDTH 13 0
BBX 7 6 3 9
BITMAP
3E
46
C6
C6
6E
3E
ENDCHAR
STARTCHAR 00AB
ENCODING 171
SWIDTH 585 0
DWIDTH 13 0
BBX 10 11 2 0
BITMAP
0840
18C0
3B80
E700
CC00
8800
CC00
E700
3B80
18C0
0840
ENDCHAR
STARTCHAR 00AC
ENCODING 172
SWIDTH 585 0
DWIDTH 13 0
BBX 9 4 2 5
BITMAP
FF80
FF80
0080
0080
ENDCHAR
STARTCHAR 00AE
ENCODING 174
SWIDTH 585 0
DWIDTH 13 0
BBX 11 11 1 7
BITMAP
1F00
3F80
6E40
4F20
8920
8E20
8F20
4920
6040
3F80
1F00
ENDCHAR
STARTCHAR 00AF
ENCODING 175
SWIDTH 585 0
DWIDTH 13 0
BBX 6 2 4 12
BITMAP
FC
FC
ENDCHAR
STARTCHAR 00B0
ENCODING 176
SWIDTH 585 0
DWIDTH 13 0
BBX 6 6 4 9
BITMAP
78
F8
8C
8C
F8
78
ENDCHAR
STARTCHAR 00B1
ENCODING 177
SWIDTH 585 0
DWIDTH 13 0
BBX 9 12 2 0
BITMAP
0C00
0C00
0C00
FF80
FF80
0C00
0C00
0C00
0C00
0000
FF80
FF80
ENDCHAR
STARTCHAR 00B2
ENCODING 178
SWIDTH 585 0
DWIDTH 13 0
BBX 5 6 4 9
BITMAP
70
48
88
70
40
78
ENDCHAR
STARTCHAR 00B3
ENCODING 179
SWIDTH 585 0
DWIDTH 13 0
BBX 5 6 4 9
BITMAP
78
18
30
88
48
70
ENDCHAR
STARTCHAR 00B4
ENCODING 180
SWIDTH 585 0
DWIDTH 13 0
BBX 3 3 5 12
BITMAP
60
60
C0
ENDCHAR
STARTCHAR 00B5
ENCODING 181
SWIDTH 585 0
DWIDTH 13 0
BBX 10 15 2 -4
BITMAP
C0C0
C0C0
C0C0
C0C0
C0C0
C0C0
C0C0
C0C0
C1C0
FFC0
DEC0
C000
C000
C000
C000
ENDCHAR
STARTCHAR 00B6
ENCODING 182
SWIDTH 585 0
DWIDTH 13 0
BBX 7 10 3 5
BITMAP
7E
FE
9E
DE
FE
3E
1E
1E
1E
1E
ENDCHAR
STARTCHAR 00B7
ENCODING 183
SWIDTH 585 0
DWIDTH 13 0
BBX 3 3 5 6
BITMAP
60
E0
60
ENDCHAR
STARTCHAR 00B8
ENCODING 184
SWIDTH 585 0
DWIDTH 13 0
BBX 4 5 5 -5
BITMAP
80
E0
90
F0
E0
ENDCHAR
STARTCHAR 00B9
ENCODING 185
SWIDTH 585 0
DWIDTH 13 0
BBX 4 6 5 9
BITMAP
E0
E0
E0
60
60
F0
ENDCHAR
STARTCHAR 00BA
ENCODING 186
SWIDTH 585 0
DWIDTH 13 0
BBX 7 6 3 9
BITMAP
3C
66
C2
C2
66
3C
ENDCHAR
STARTCHAR 00BB
ENCODING 187
SWIDTH 585 0
DWIDTH 13 0
BBX 10 11 2 0
BITMAP
8800
CC00
E700
3B80
18C0
0840
18C0
3B80
E700
CC00
8800
ENDCHAR
STARTCHAR 00BC
ENCODING 188
SWIDTH 585 0
DWIDTH 13 0
BBX 11 15 1 0
BITMAP
6000
E000
A000
2000
2020
F8C0
0380
0E00
3800
E0C0
0140
0140
0240
03E0
0040
ENDCHAR
STARTCHAR 00BD
ENCODING 189
SWIDTH 585 0
DWIDTH 13 0
BBX 11 15 1 0
BITMAP
6000
E000
A000
2000
2020
F8C0
0380
0E00
3800
E1E0
0120
0020
00C0
0100
01E0
ENDCHAR
STARTCHAR 00BE
ENCODING 190
SWIDTH 585 0
DWIDTH 13 0
BBX 11 15 1 0
BITMAP
F000
3000
2000
1000
9820
70C0
0380
0E00
3800
E0C0
0140
0140
0240
03E0
0040
ENDCHAR
STARTCHAR 00BF
ENCODING 191
SWIDTH 585 0
DWIDTH 13 0
BBX 10 15 2 -4
BITMAP
0C00
0E00
0C00
0000
0C00
0C00
1C00
7C00
C000
C0C0
80C0
C0C0
C180
7F80
3E00
ENDCHAR
STARTCHAR 00C0
ENCODING 192
SWIDTH 585 0
DWIDTH 13 0
BBX 13 19 0 0
BITMAP
0C00
0600
0200
0000
0780
0580
0D80
0CC0
08C0
18C0
1840
1860
3060
3FE0
3FF0
6030
6030
6018
C018
ENDCHAR
STARTCHAR 00C1
ENCODING 193
SWIDTH 585 0
DWIDTH 13 0
BBX 13 19 0 0
BITMAP
0180
0180
0300
0000
0780
0580
0D80
0CC0
08C0
18C0
1840
1860
3060
3FE0
3FF0
6030
6030
6018
C018
ENDCHAR
STARTCHAR 00C2
ENCODING 194
SWIDTH 585 0
DWIDTH 13 0
BBX 13 19 0 0
BITMAP
0700
0D80
0CC0
0000
0780
0580
0D80
0CC0
08C0
18C0
1840
1860
3060
3FE0
3FF0
6030
6030
6018
C018
ENDCHAR
STARTCHAR 00C3
ENCODING 195
SWIDTH 585 0
DWIDTH 13 0
BBX 13 20 0 0
BITMAP
0E40
1BE0
0980
0000
0000
0780
0580
0D80
0CC0
08C0
18C0
1840
1860
3060
3FE0
3FF0
6030
6030
6018
C018
ENDCHAR
STARTCHAR 00C4
ENCODING 196
SWIDTH 585 0
DWIDTH 13 0
BBX 13 19 0 0
BITMAP
1CC0
1DC0
1CC0
0000
0780
0580
0D80
0CC0
08C0
18C0
1840
1860
3060
3FE0
3FF0
6030
6030
6018
C018
ENDCHAR
STARTCHAR 00C5
ENCODING 197
SWIDTH 585 0
DWIDTH 13 0
BBX 13 21 0 0
BITMAP
0200
0780
0C80
0780
0700
0000
0780
0580
0D80
0CC0
08C0
18C0
1840
1860
3060
3FE0
3FF0
6030
6030
6018
C018
ENDCHAR
STARTCHAR 00C6
ENCODING 198
SWIDTH 585 0
DWIDTH 13 0
BBX 12 15 0 0
BITMAP
07F0
07F0
0D00
0D00
0900
1900
19F0
19F0
3100
3F00
3F00
6100
6100
61F0
C1F0
ENDCHAR
STARTCHAR 00C7
ENCODING 199
SWIDTH 585 0
DWIDTH 13 0
BBX 11 19 1 -4
BITMAP
1F00
3FC0
60E0
6060
4060
C000
C000
C000
C000
C060
C060
6060
60E0
3FC0
1F00
0F00
0F00
0F00
0700
ENDCHAR
STARTCHAR 00C8
ENCODING 200
SWIDTH 585 0
DWIDTH 13 0
BBX 10 19 2 0
BITMAP
3800
1800
0C00
0000
FF80
FF80
C000
C000
C000
C000
FF80
FF80
C000
C000
C000
C000
C000
FFC0
FFC0
ENDCHAR
STARTCHAR 00C9
ENCODING 201
SWIDTH 585 0
DWIDTH 13 0
BBX 10 19 2 0
BITMAP
0700
0600
0C00
0000
FF80
FF80
C000
C000
C000
C000
FF80
FF80
C000
C000
C000
C000
C000
FFC0
FFC0
ENDCHAR
STARTCHAR 00CA
ENCODING 202
SWIDTH 585 0
DWIDTH 13 0
BBX 10 19 2 0
BITMAP
1C00
1600
3300
0000
FF80
FF80
C000
C000
C000
C000
FF80
FF80
C000
C000
C000
C000
C000
FFC0
FFC0
ENDCHAR
STARTCHAR 00CB
ENCODING 203
SWIDTH 585 0
DWIDTH 13 0
BBX 10 19 2 0
BITMAP
7300
7780
7300
0000
FF80
FF80
C000
C000
C000
C000
FF80
FF80
C000
C000
C000
C000
C000
FFC0
FFC0
ENDCHAR
STARTCHAR 00CC
ENCODING 204
SWIDTH 585 0
DWIDTH 13 0
BBX 10 19 2 0
BITMAP
3000
1800
0800
0400
FFC0
FFC0
0C00
0C00
0C00
0C00
0C00
0C00
0C00
0C00
0C00
0C00
0C00
FFC0
FFC0
ENDCHAR
STARTCHAR 00CD
ENCODING 205
SWIDTH 585 0
DWIDTH 13 0
BBX 10 19 2 0
BITMAP
0600
0400
0C00
0000
FFC0
FFC0
0C00
0C00
0C00
0C00
0C00
0C00
0C00
0C00
0C00
0C00
0C00
FFC0
FFC0
ENDCHAR
STARTCHAR 00CE
ENCODING 206
SWIDTH 585 0
DWIDTH 13 0
BBX 10 19 2 0
BITMAP
1C00
3600
3300
0000
FFC0
FFC0
0C00
0C00
0C00
0C00
0C00
0C00
0C00
0C00
0C00
0C00
0C00
FFC0
FFC0
ENDCHAR
STARTCHAR 00CF
ENCODING 207
SWIDTH 585 0
DWIDTH 13 0
BBX 10 19 2 0
BITMAP
7300
7700
7300
0000
FFC0
FFC0
0C00
0C00
0C00
0C00
0C00
0C00
0C00
0C00
0C00
0C00
0C00
FFC0
FFC0
ENDCHAR
STARTCHAR 00D0
ENCODING 208
SWIDTH 585 0
DWIDTH 13 0
BBX 10 15 2 0
BITMAP
FF00
FF80
61C0
60C0
60C0
60C0
F8C0
F8C0
60C0
60C0
60C0
60C0
61C0
FF80
FF00
ENDCHAR
STARTCHAR 00D1
ENCODING 209
SWIDTH 585 0
DWIDTH 13 0
BBX 10 20 2 0
BITMAP
3900
6F80
2600
0000
0000
E0C0
B0C0
B0C0
90C0
98C0
98C0
98C0
8CC0
8CC0
8CC0
86C0
86C0
86C0
83C0
83C0
ENDCHAR
STARTCHAR 00D2
ENCODING 210
SWIDTH 585 0
DWIDTH 13 0
BBX 11 19 1 0
BITMAP
1800
0C00
0600
0000
1F00
3FC0
60C0
6060
C060
C060
C060
C060
C060
C060
C060
6060
60C0
3FC0
1F00
ENDCHAR
STARTCHAR 00D3
ENCODING 211
SWIDTH 585 0
DWIDTH 13 0
BBX 11 19 1 0
BITMAP
0300
0300
0600
0000
1F00
3FC0
60C0
6060
C060
C060
C060
C060
C060
C060
C060
6060
60C0
3FC0
1F00
ENDCHAR
STARTCHAR 00D4
ENCODING 212
SWIDTH 585 0
DWIDTH 13 0
BBX 11 19 1 0
BITMAP
0E00
1B00
1980
0000
1F00
3FC0
60C0
6060
C060
C060
C060
C060
C060
C060
C060
6060
60C0
3FC0
1F00
ENDCHAR
STARTCHAR 00D5
ENCODING 213
SWIDTH 585 0
DWIDTH 13 0
BBX 11 20 1 0
BITMAP
1C80
37C0
1300
0000
0000
1F00
3FC0
60C0
6060
C060
C060
C060
C060
C060
C060
C060
6060
60C0
3FC0
1F00
ENDCHAR
STARTCHAR 00D6
ENCODING 214
SWIDTH 585 0
DWIDTH 13 0
BBX 11 19 1 0
BITMAP
3980
3B80
3980
0000
1F00
3FC0
60C0
6060
C060
C060
C060
C060
C060
C060
C060
6060
60C0
3FC0
1F00
ENDCHAR
STARTCHAR 00D7
ENCODING 215
SWIDTH 585 0
DWIDTH 13 0
BBX 9 9 2 3
BITMAP
4180
E380
3700
1E00
1C00
3E00
7300
E180
4100
ENDCHAR
STARTCHAR 00D8
ENCODING 216
SWIDTH 585 0
DWIDTH 13 0
BBX 11 18 1 -2
BITMAP
00C0
1F80
3FC0
61C0
6360
C360
C260
C660
C660
C460
CC60
CC60
7860
78C0
3FC0
3F00
3000
1000
ENDCHAR
STARTCHAR 00D9
ENCODING 217
SWIDTH 585 0
DWIDTH 13 0
BBX 11 19 1 0
BITMAP
1800
0C00
0600
0000
C060
C060
C060
C060
C060
C060
C060
C060
C060
C060
C060
6060
60C0
3FC0
1F00
ENDCHAR
STARTCHAR 00DA
ENCODING 218
SWIDTH 585 0
DWIDTH 13 0
BBX 11 19 1 0
BITMAP
0300
0300
0600
0000
C060
C060
C060
C060
C060
C060
C060
C060
C060
C060
C060
6060
60C0
3FC0
1F00
ENDCHAR
STARTCHAR 00DB
ENCODING 219
SWIDTH 585 0
DWIDTH 13 0
BBX 11 19 1 0
BITMAP
0E00
1B00
1980
0000
C060
C060
C060
C060
C060
C060
C060
C060
C060
C060
C060
6060
60C0
3FC0
1F00
ENDCHAR
STARTCHAR 00DC
ENCODING 220
SWIDTH 585 0
DWIDTH 13 0
BBX 11 19 1 0
BITMAP
3980
3B80
3980
0000
C060
C060
C060
C060
C060
C060
C060
C060
C060
C060
C060
6060
60C0
3FC0
1F00
ENDCHAR
STARTCHAR 00DD
ENCODING 221
SWIDTH 585 0
DWIDTH 13 0
BBX 12 19 1 0
BITMAP
0300
0200
0600
0000
C030
C060
6060
60C0
30C0
3180
1980
1B00
0F00
0E00
0600
0600
0600
0600
0600
ENDCHAR
STARTCHAR 00DE
ENCODING 222
SWIDTH 585 0
DWIDTH 13 0
BBX 10 15 2 0
BITMAP
C000
C000
C000
FF00
FF80
C0C0
C0C0
C0C0
C0C0
C1C0
FF80
FE00
C000
C000
C000
ENDCHAR
STARTCHAR 00DF
ENCODING 223
SWIDTH 585 0
DWIDTH 13 0
BBX 11 15 1 0
BITMAP
1F00
3F80
60C0
60C0
E0C0
E780
6700
6780
67E0
6060
6020
6820
6C60
6FE0
67C0
ENDCHAR
STARTCHAR 00E0
ENCODING 224
SWIDTH 585 0
DWIDTH 13 0
BBX 12 15 1 0
BITMAP
3800
1800
0C00
0000
1E60
7F60
60E0
C0E0
C060
C060
C060
C0E0
60E0
7F70
1E70
ENDCHAR
STARTCHAR 00E1
ENCODING 225
SWIDTH 585 0
DWIDTH 13 0
BBX 12 15 1 0
BITMAP
0300
0600
0C00
0000
1E60
7F60
60E0
C0E0
C060
C060
C060
C0E0
60E0
7F70
1E70
ENDCHAR
STARTCHAR 00E2
ENCODING 226
SWIDTH 585 0
DWIDTH 13 0
BBX 12 15 1 0
BITMAP
1E00
1A00
3300
0000
1E60
7F60
60E0
C0E0
C060
C060
C060
C0E0
60E0
7F70
1E70
ENDCHAR
STARTCHAR 00E3
ENCODING 227
SWIDTH 585 0
DWIDTH 13 0
BBX 12 15 1 0
BITMAP
1C80
3780
2700
0000
1E60
7F60
60E0
C0E0
C060
C060
C060
C0E0
60E0
7F70
1E70
ENDCHAR
STARTCHAR 00E4
ENCODING 228
SWIDTH 585 0
DWIDTH 13 0
BBX 12 15 1 0
BITMAP
3380
7B80
3380
0000
1E60
7F60
60E0
C0E0
C060
C060
C060
C0E0
60E0
7F70
1E70
ENDCHAR
STARTCHAR 00E5
ENCODING 229
SWIDTH 585 0
DWIDTH 13 0
BBX 12 17 1 0
BITMAP
0C00
1E00
1200
1E00
0E00
0000
1E60
7F60
60E0
C0E0
C060
C060
C060
C0E0
60E0
7F70
1E70
ENDCHAR
STARTCHAR 00E6
ENCODING 230
SWIDTH 585 0
DWIDTH 13 0
BBX 10 11 2 0
BITMAP
3E00
7F80
CD80
CCC0
1FC0
FFC0
CC00
8CC0
8D80
FF80
7E00
ENDCHAR
STARTCHAR 00E7
ENCODING 231
SWIDTH 585 0
DWIDTH 13 0
BBX 11 15 1 -4
BITMAP
1F00
3FC0
60E0
6060
C000
C000
C000
4060
60E0
3FC0
1F00
0700
0F00
0F00
0700
ENDCHAR
STARTCHAR 00E8
ENCODING 232
SWIDTH 585 0
DWIDTH 13 0
BBX 11 15 1 0
BITMAP
1800
0C00
0600
0000
1F00
3FC0
60C0
4060
FFE0
FFE0
4000
6040
60E0
3FC0
1F00
ENDCHAR
STARTCHAR 00E9
ENCODING 233
SWIDTH 585 0
DWIDTH 13 0
BBX 11 15 1 0
BITMAP
0300
0300
0600
0000
1F00
3FC0
60C0
4060
FFE0
FFE0
4000
6040
60E0
3FC0
1F00
ENDCHAR
STARTCHAR 00EA
ENCODING 234
SWIDTH 585 0
DWIDTH 13 0
BBX 11 15 1 0
BITMAP
0E00
0B00
1980
0000
1F00
3FC0
60C0
4060
FFE0
FFE0
4000
6040
60E0
3FC0
1F00
ENDCHAR
STARTCHAR 00EB
ENCODING 235
SWIDTH 585 0
DWIDTH 13 0
BBX 11 15 1 0
BITMAP
3980
3B80
3980
0000
1F00
3FC0
60C0
4060
FFE0
FFE0
4000
6040
60E0
3FC0
1F00
ENDCHAR
STARTCHAR 00EC
ENCODING 236
SWIDTH 585 0
DWIDTH 13 0
BBX 9 15 2 0
BITMAP
3000
1800
0C00
0000
7C00
7C00
0C00
0C00
0C00
0C00
0C00
0C00
0C00
FF80
FF80
ENDCHAR
STARTCHAR 00ED
ENCODING 237
SWIDTH 585 0
DWIDTH 13 0
BBX 9 15 2 0
BITMAP
0700
0600
0C00
0000
7C00
7C00
0C00
0C00
0C00
0C00
0C00
0C00
0C00
FF80
FF80
ENDCHAR
STARTCHAR 00EE
ENCODING 238
SWIDTH 585 0
DWIDTH 13 0
BBX 9 15 2 0
BITMAP
1C00
1600
3300
0000
7C00
7C00
0C00
0C00
0C00
0C00
0C00
0C00
0C00
FF80
FF80
ENDCHAR
STARTCHAR 00EF
ENCODING 239
SWIDTH 585 0
DWIDTH 13 0
BBX 9 15 2 0
BITMAP
3300
7380
3300
0000
7C00
7C00
0C00
0C00
0C00
0C00
0C00
0C00
0C00
FF80
FF80
ENDCHAR
STARTCHAR 00F0
ENCODING 240
SWIDTH 585 0
DWIDTH 13 0
BBX 11 16 1 0
BITMAP
0200
1E00
0F00
0F80
00C0
1FC0
3FE0
60E0
4060
C060
C060
C060
4060
60C0
3FC0
1F00
ENDCHAR
STARTCHAR 00F1
ENCODING 241
SWIDTH 585 0
DWIDTH 13 0
BBX 10 15 2 0
BITMAP
1C80
3780
2300
0000
DF00
FF80
E180
C080
C0C0
C0C0
C0C0
C0C0
C0C0
C0C0
C0C0
ENDCHAR
STARTCHAR 00F2
ENCODING 242
SWIDTH 585 0
DWIDTH 13 0
BBX 11 15 1 0
BITMAP
1800
0C00
0600
0000
1F00
3FC0
60C0
4060
C060
C060
C060
4060
60C0
3FC0
1F00
ENDCHAR
STARTCHAR 00F3
ENCODING 243
SWIDTH 585 0
DWIDTH 13 0
BBX 11 15 1 0
BITMAP
0300
0300
0600
0000
1F00
3FC0
60C0
4060
C060
C060
C060
4060
60C0
3FC0
1F00
ENDCHAR
STARTCHAR 00F4
ENCODING 244
SWIDTH 585 0
DWIDTH 13 0
BBX 11 15 1 0
BITMAP
0E00
1B00
1980
0000
1F00
3FC0
60C0
4060
C060
C060
C060
4060
60C0
3FC0
1F00
ENDCHAR
STARTCHAR 00F5
ENCODING 245
SWIDTH 585 0
DWIDTH 13 0
BBX 11 15 1 0
BITMAP
1C80
37C0
1300
0000
1F00
3FC0
60C0
4060
C060
C060
C060
4060
60C0
3FC0
1F00
ENDCHAR
STARTCHAR 00F6
ENCODING 246
SWIDTH 585 0
DWIDTH 13 0
BBX 11 15 1 0
BITMAP
3980
3B80
3980
0000
1F00
3FC0
60C0
4060
C060
C060
C060
4060
60C0
3FC0
1F00
ENDCHAR
STARTCHAR 00F7
ENCODING 247
SWIDTH 585 0
DWIDTH 13 0
BBX 9 10 2 2
BITMAP
0C00
1C00
0C00
0000
FF80
FF80
0000
0C00
1C00
0C00
ENDCHAR
STARTCHAR 00F8
ENCODING 248
SWIDTH 585 0
DWIDTH 13 0
BBX 11 13 1 -1
BITMAP
0180
1F00
3FC0
63C0
4260
C660
C660
C460
4C60
6CC0
3FC0
1F00
1800
ENDCHAR
STARTCHAR 00F9
ENCODING 249
SWIDTH 585 0
DWIDTH 13 0
BBX 9 15 2 0
BITMAP
3000
1800
0C00
0000
C080
C080
C080
C080
C080
C080
C080
C180
C180
7E80
3C80
ENDCHAR
STARTCHAR 00FA
ENCODING 250
SWIDTH 585 0
DWIDTH 13 0
BBX 9 15 2 0
BITMAP
0600
0400
0C00
0000
C080
C080
C080
C080
C080
C080
C080
C180
C180
7E80
3C80
ENDCHAR
STARTCHAR 00FB
ENCODING 251
SWIDTH 585 0
DWIDTH 13 0
BBX 9 15 2 0
BITMAP
1C00
3600
7300
0000
C080
C080
C080
C080
C080
C080
C080
C180
C180
7E80
3C80
ENDCHAR
STARTCHAR 00FC
ENCODING 252
SWIDTH 585 0
DWIDTH 13 0
BBX 9 15 2 0
BITMAP
7300
7700
7300
0000
C080
C080
C080
C080
C080
C080
C080
C180
C180
7E80
3C80
ENDCHAR
STARTCHAR 00FD
ENCODING 253
SWIDTH 585 0
DWIDTH 13 0
BBX 10 19 2 -4
BITMAP
0600
0400
0C00
0000
C0C0
C0C0
C0C0
C0C0
C0C0
C0C0
C0C0
C1C0
C1C0
7EC0
3CC0
00C0
00C0
3FC0
3F80
ENDCHAR
STARTCHAR 00FE
ENCODING 254
SWIDTH 585 0
DWIDTH 13 0
BBX 10 19 2 -4
BITMAP
8000
8000
8000
8000
9F00
BF80
C1C0
C0C0
80C0
8040
80C0
C0C0
C1C0
BF80
9F00
8000
8000
8000
8000
ENDCHAR
STARTCHAR 00FF
ENCODING 255
SWIDTH 585 0
DWIDTH 13 0
BBX 10 19 2 -4
BITMAP
7300
7700
7300
0000
C0C0
C0C0
C0C0
C0C0
C0C0
C0C0
C0C0
C1C0
C1C0
7EC0
3CC0
00C0
00C0
3FC0
3F80
ENDCHAR
STARTCHAR 0100
ENCODING 256
SWIDTH 585 0
DWIDTH 13 0
BBX 13 18 0 0
BITMAP
0FC0
0FC0
0000
0780
0580
0D80
0CC0
08C0
18C0
1840
1860
3060
3FE0
3FF0
6030
6030
6018
C018
ENDCHAR
STARTCHAR 0101
ENCODING 257
SWIDTH 585 0
DWIDTH 13 0
BBX 12 14 1 0
BITMAP
3F00
3F00
0000
1E60
7F60
60E0
C0E0
C060
C060
C060
C0E0
60E0
7F70
1E70
ENDCHAR
STARTCHAR 0102
ENCODING 258
SWIDTH 585 0
DWIDTH 13 0
BBX 13 19 0 0
BITMAP
0D80
0780
0000
0000
0780
0580
0D80
0CC0
08C0
18C0
1840
1860
3060
3FE0
3FF0
6030
6030
6018
C018
ENDCHAR
STARTCHAR 0103
ENCODING 259
SWIDTH 585 0
DWIDTH 13 0
BBX 12 15 1 0
BITMAP
1B00
1E00
0000
0000
1E60
7F60
60E0
C0E0
C060
C060
C060
C0E0
60E0
7F70
1E70
ENDCHAR
STARTCHAR 0104
ENCODING 260
SWIDTH 585 0
DWIDTH 13 0
BBX 14 19 0 -4
BITMAP
0780
0580
0D80
0CC0
08C0
18C0
1840
1860
3060
3FE0
3FF0
6030
6030
6018
C018
0018
0010
001C
000C
ENDCHAR
STARTCHAR 0105
ENCODING 261
SWIDTH 585 0
DWIDTH 13 0
BBX 12 14 1 -3
BITMAP
1E60
7F60
60E0
C0E0
C060
C060
C060
C0E0
60E0
7F70
1E70
0040
0040
0070
ENDCHAR
STARTCHAR 0106
ENCODING 262
SWIDTH 585 0
DWIDTH 13 0
BBX 11 19 1 0
BITMAP
0380
0300
0600
0000
1F00
3FC0
60E0
6060
4060
C000
C000
C000
C000
C060
4060
6060
60E0
3FC0
1F00
ENDCHAR
STARTCHAR 0107
ENCODING 263
SWIDTH 585 0
DWIDTH 13 0
BBX 11 15 1 0
BITMAP
0380
0300
0600
0000
1F00
3FC0
60E0
6060
C000
C000
C000
4060
60E0
3FC0
1F00
ENDCHAR
STARTCHAR 0108
ENCODING 264
SWIDTH 585 0
DWIDTH 13 0
BBX 11 19 1 0
BITMAP
0E00
0B00
1980
0000
1F00
3FC0
60E0
6060
4060
C000
C000
C000
C000
C060
4060
6060
60E0
3FC0
1F00
ENDCHAR
STARTCHAR 0109
ENCODING 265
SWIDTH 585 0
DWIDTH 13 0
BBX 11 15 1 0
BITMAP
0E00
0B00
1980
0000
1F00
3FC0
60E0
6060
C000
C000
C000
4060
60E0
3FC0
1F00
ENDCHAR
STARTCHAR 010A
ENCODING 266
SWIDTH 585 0
DWIDTH 13 0
BBX 11 19 1 0
BITMAP
0600
0E00
0600
0000
1F00
3FC0
60E0
6060
4060
C000
C000
C000
C000
C060
4060
6060
60E0
3FC0
1F00
ENDCHAR
STARTCHAR 010B
ENCODING 267
SWIDTH 585 0
DWIDTH 13 0
BBX 11 15 1 0
BITMAP
0600
0E00
0600
0000
1F00
3FC0
60E0
6060
C000
C000
C000
4060
60E0
3FC0
1F00
ENDCHAR
STARTCHAR 010C
ENCODING 268
SWIDTH 585 0
DWIDTH 13 0
BBX 11 19 1 0
BITMAP
1980
0B00
0E00
0000
1F00
3FC0
60E0
6060
4060
C000
C000
C000
C000
C060
4060
6060
60E0
3FC0
1F00
ENDCHAR
STARTCHAR 010D
ENCODING 269
SWIDTH 585 0
DWIDTH 13 0
BBX 11 15 1 0
BITMAP
1980
0B00
0E00
0000
1F00
3FC0
60E0
6060
C000
C000
C000
4060
60E0
3FC0
1F00
ENDCHAR
STARTCHAR 010E
ENCODING 270
SWIDTH 585 0
DWIDTH 13 0
BBX 10 19 2 0
BITMAP
3300
3600
1C00
0000
FF00
FF80
61C0
60C0
60C0
60C0
60C0
60C0
60C0
60C0
60C0
60C0
61C0
FF80
FF00
ENDCHAR
STARTCHAR 010F
ENCODING 271
SWIDTH 585 0
DWIDTH 13 0
BBX 12 15 1 0
BITMAP
0370
0370
0370
0310
3F70
7F60
C300
C300
8300
8300
8300
C300
C300
7F00
3B00
ENDCHAR
STARTCHAR 0110
ENCODING 272
SWIDTH 585 0
DWIDTH 13 0
BBX 10 15 2 0
BITMAP
FF00
FF80
61C0
60C0
60C0
60C0
F8C0
F8C0
60C0
60C0
60C0
60C0
61C0
FF80
FF00
ENDCHAR
STARTCHAR 0111
ENCODING 273
SWIDTH 585 0
DWIDTH 13 0
BBX 12 15 1 0
BITMAP
0060
07F0
07F0
0060
1F60
3FE0
60E0
4060
C060
C060
C060
4060
60E0
3FE0
1F60
ENDCHAR
STARTCHAR 0112
ENCODING 274
SWIDTH 585 0
DWIDTH 13 0
BBX 10 18 2 0
BITMAP
3F00
3F00
0000
FF80
FF80
C000
C000
C000
C000
FF80
FF80
C000
C000
C000
C000
C000
FFC0
FFC0
ENDCHAR
STARTCHAR 0113
ENCODING 275
SWIDTH 585 0
DWIDTH 13 0
BBX 11 14 1 0
BITMAP
1F80
1F80
0000
1F00
3FC0
60C0
4060
FFE0
FFE0
4000
6040
60E0
3FC0
1F00
ENDCHAR
STARTCHAR 0114
ENCODING 276
SWIDTH 585 0
DWIDTH 13 0
BBX 10 19 2 0
BITMAP
3600
1E00
0000
0000
FF80
FF80
C000
C000
C000
C000
FF80
FF80
C000
C000
C000
C000
C000
FFC0
FFC0
ENDCHAR
STARTCHAR 0115
ENCODING 277
SWIDTH 585 0
DWIDTH 13 0
BBX 11 15 1 0
BITMAP
1B00
0F00
0000
0000
1F00
3FC0
60C0
4060
FFE0
FFE0
4000
6040
60E0
3FC0
1F00
ENDCHAR
STARTCHAR 0116
ENCODING 278
SWIDTH 585 0
DWIDTH 13 0
BBX 10 19 2 0
BITMAP
0C00
1C00
0C00
0000
FF80
FF80
C000
C000
C000
C000
FF80
FF80
C000
C000
C000
C000
C000
FFC0
FFC0
ENDCHAR
STARTCHAR 0117
ENCODING 279
SWIDTH 585 0
DWIDTH 13 0
BBX 11 15 1 0
BITMAP
0600
0E00
0600
0000
1F00
3FC0
60C0
4060
FFE0
FFE0
4000
6040
60E0
3FC0
1F00
ENDCHAR
STARTCHAR 0118
ENCODING 280
SWIDTH 585 0
DWIDTH 13 0
BBX 11 19 2 -4
BITMAP
FF80
FF80
C000
C000
C000
C000
FF80
FF80
C000
C000
C000
C000
C000
FFC0
FFC0
0080
0080
00E0
0060
ENDCHAR
STARTCHAR 0119
ENCODING 281
SWIDTH 585 0
DWIDTH 13 0
BBX 11 14 1 -3
BITMAP
1F00
3FC0
60C0
4060
FFE0
FFE0
C000
4040
6060
3FC0
1F00
0400
0400
0700
ENDCHAR
STARTCHAR 011A
ENCODING 282
SWIDTH 585 0
DWIDTH 13 0
BBX 10 19 2 0
BITMAP
3300
1600
1C00
0000
FF80
FF80
C000
C000
C000
C000
FF80
FF80
C000
C000
C000
C000
C000
FFC0
FFC0
ENDCHAR
STARTCHAR 011B
ENCODING 283
SWIDTH 585 0
DWIDTH 13 0
BBX 11 15 1 0
BITMAP
1980
0B00
0E00
0000
1F00
3FC0
60C0
4060
FFE0
FFE0
4000
6040
60E0
3FC0
1F00
ENDCHAR
STARTCHAR 011C
ENCODING 284
SWIDTH 585 0
DWIDTH 13 0
BBX 11 19 1 0
BITMAP
0E00
1B00
1980
0000
1F00
3FC0
60E0
6060
C060
C000
C000
CFE0
CFE0
C060
C060
6060
60E0
3FE0
1F60
ENDCHAR
STARTCHAR 011D
ENCODING 285
SWIDTH 585 0
DWIDTH 13 0
BBX 11 19 1 -4
BITMAP
0E00
1B00
3300
0000
1F60
3FE0
60E0
C060
C060
C060
C060
C060
60E0
3FE0
1F60
0060
0060
3FE0
3FC0
ENDCHAR
STARTCHAR 011E
ENCODING 286
SWIDTH 585 0
DWIDTH 13 0
BBX 11 19 1 0
BITMAP
1B00
0F00
0000
0000
1F00
3FC0
60E0
6060
C060
C000
C000
CFE0
CFE0
C060
C060
6060
60E0
3FE0
1F60
ENDCHAR
STARTCHAR 011F
ENCODING 287
SWIDTH 585 0
DWIDTH 13 0
BBX 11 19 1 -4
BITMAP
1B00
0E00
0000
0000
1F60
3FE0
60E0
C060
C060
C060
C060
C060
60E0
3FE0
1F60
0060
0060
3FE0
3FC0
ENDCHAR
STARTCHAR 0120
ENCODING 288
SWIDTH 585 0
DWIDTH 13 0
BBX 11 19 1 0
BITMAP
0600
0E00
0600
0000
1F00
3FC0
60E0
6060
C060
C000
C000
CFE0
CFE0
C060
C060
6060
60E0
3FE0
1F60
ENDCHAR
STARTCHAR 0121
ENCODING 289
SWIDTH 585 0
DWIDTH 13 0
BBX 11 19 1 -4
BITMAP
0E00
0E00
0E00
0000
1F60
3FE0
60E0
C060
C060
C060
C060
C060
60E0
3FE0
1F60
0060
0060
3FE0
3FC0
ENDCHAR
STARTCHAR 0122
ENCODING 290
SWIDTH 585 0
DWIDTH 13 0
BBX 11 22 1 -7
BITMAP
1F00
3FC0
60E0
6060
C060
C000
C000
CFE0
CFE0
C060
C060
6060
60E0
3FE0
1F60
0000
0E00
0E00
0E00
0200
0E00
0C00
ENDCHAR
STARTCHAR 0123
ENCODING 291
SWIDTH 585 0
DWIDTH 13 0
BBX 11 21 1 -4
BITMAP
0E00
0E00
0800
0E00
0E00
0E00
1F60
3FE0
60E0
C060
C060
C060
C060
C060
60E0
3FE0
1F60
0060
0060
3FE0
3FC0
ENDCHAR
STARTCHAR 0124
ENCODING 292
SWIDTH 585 0
DWIDTH 13 0
BBX 10 19 2 0
BITMAP
1C00
3600
3300
0000
80C0
80C0
80C0
80C0
80C0
80C0
FFC0
FFC0
80C0
80C0
80C0
80C0
80C0
80C0
80C0
ENDCHAR
STARTCHAR 0125
ENCODING 293
SWIDTH 585 0
DWIDTH 13 0
BBX 10 19 2 0
BITMAP
7800
7800
CC00
0000
C000
C000
C000
C000
DF00
FF80
E180
C080
C0C0
C0C0
C0C0
C0C0
C0C0
C0C0
C0C0
ENDCHAR
STARTCHAR 0126
ENCODING 294
SWIDTH 585 0
DWIDTH 13 0
BBX 13 15 0 0
BITMAP
2030
2030
FFF8
FFF8
2030
2030
3FF0
3FF0
2030
2030
2030
2030
2030
2030
2030
ENDCHAR
STARTCHAR 0127
ENCODING 295
SWIDTH 585 0
DWIDTH 13 0
BBX 11 15 1 0
BITMAP
6000
FE00
FE00
6000
6F80
7FC0
70C0
6040
6060
6060
6060
6060
6060
6060
6060
ENDCHAR
STARTCHAR 0128
ENCODING 296
SWIDTH 585 0
DWIDTH 13 0
BBX 10 20 2 0
BITMAP
3900
6F80
2600
0000
0000
FFC0
FFC0
0C00
0C00
0C00
0C00
0C00
0C00
0C00
0C00
0C00
0C00
0C00
FFC0
FFC0
ENDCHAR
STARTCHAR 0129
ENCODING 297
SWIDTH 585 0
DWIDTH 13 0
BBX 9 15 2 0
BITMAP
7200
DF00
4C00
0000
7C00
7C00
0C00
0C00
0C00
0C00
0C00
0C00
0C00
FF80
FF80
ENDCHAR
STARTCHAR 012A
ENCODING 298
SWIDTH 585 0
DWIDTH 13 0
BBX 10 18 2 0
BITMAP
3F00
3F00
0000
FFC0
FFC0
0C00
0C00
0C00
0C00
0C00
0C00
0C00
0C00
0C00
0C00
0C00
FFC0
FFC0
ENDCHAR
STARTCHAR 012B
ENCODING 299
SWIDTH 585 0
DWIDTH 13 0
BBX 9 14 2 0
BITMAP
7C00
7C00
0000
7C00
7C00
0C00
0C00
0C00
0C00
0C00
0C00
0C00
FF80
FF80
ENDCHAR
STARTCHAR 012C
ENCODING 300
SWIDTH 585 0
DWIDTH 13 0
BBX 10 19 2 0
BITMAP
3600
1E00
0000
0000
FFC0
FFC0
0C00
0C00
0C00
0C00
0C00
0C00
0C00
0C00
0C00
0C00
0C00
FFC0
FFC0
ENDCHAR
STARTCHAR 012D
ENCODING 301
SWIDTH 585 0
DWIDTH 13 0
BBX 9 15 2 0
BITMAP
3600
1E00
0000
0000
7C00
7C00
0C00
0C00
0C00
0C00
0C00
0C00
0C00
FF80
FF80
ENDCHAR
STARTCHAR 012E
ENCODING 302
SWIDTH 585 0
DWIDTH 13 0
BBX 11 19 2 -4
BITMAP
FFC0
FFC0
0C00
0C00
0C00
0C00
0C00
0C00
0C00
0C00
0C00
0C00
0C00
FFC0
FFC0
0080
0080
00E0
0060
ENDCHAR
STARTCHAR 012F
ENCODING 303
SWIDTH 585 0
DWIDTH 13 0
BBX 10 19 2 -4
BITMAP
0C00
1C00
0C00
0000
7C00
7C00
0C00
0C00
0C00
0C00
0C00
0C00
0C00
FF80
FF80
0080
0180
01C0
0040
ENDCHAR
STARTCHAR 0130
ENCODING 304
SWIDTH 585 0
DWIDTH 13 0
BBX 10 19 2 0
BITMAP
0C00
1C00
0C00
0000
FFC0
FFC0
0C00
0C00
0C00
0C00
0C00
0C00
0C00
0C00
0C00
0C00
0C00
FFC0
FFC0
ENDCHAR
STARTCHAR 0131
ENCODING 305
SWIDTH 585 0
DWIDTH 13 0
BBX 9 11 2 0
BITMAP
7C00
7C00
0C00
0C00
0C00
0C00
0C00
0C00
0C00
FF80
FF80
ENDCHAR
STARTCHAR 0132
ENCODING 306
SWIDTH 585 0
DWIDTH 13 0
BBX 10 15 2 0
BITMAP
83C0
83C0
8180
8180
8180
8180
8180
8180
0180
0180
8180
C180
C180
7F00
3E00
ENDCHAR
STARTCHAR 0133
ENCODING 307
SWIDTH 585 0
DWIDTH 13 0
BBX 11 19 1 -4
BITMAP
6060
E0E0
6060
0000
6060
6060
6060
6060
6060
6060
6060
60E0
60E0
3F60
1E60
0060
0060
0FE0
0FC0
ENDCHAR
STARTCHAR 0134
ENCODING 308
SWIDTH 585 0
DWIDTH 13 0
BBX 11 19 2 0
BITMAP
03C0
0340
0660
0000
03C0
03C0
0180
0180
0180
0180
0180
0180
0180
8180
8180
C180
C180
7F00
3E00
ENDCHAR
STARTCHAR 0135
ENCODING 309
SWIDTH 585 0
DWIDTH 13 0
BBX 7 19 3 -4
BITMAP
38
6C
C6
00
FE
FE
06
06
06
06
06
06
06
06
06
06
06
FE
FC
ENDCHAR
STARTCHAR 0136
ENCODING 310
SWIDTH 585 0
DWIDTH 13 0
BBX 11 22 2 -7
BITMAP
C0E0
C180
C300
C600
CE00
DC00
F800
F000
D800
CC00
C600
C700
C380
C180
C0E0
0000
0C00
1C00
0E00
0600
0C00
0800
ENDCHAR
STARTCHAR 0137
ENCODING 311
SWIDTH 585 0
DWIDTH 13 0
BBX 9 22 3 -7
BITMAP
C000
C000
C000
C000
C300
C600
CC00
DC00
D800
F000
F000
D800
CC00
C600
C380
0000
1800
1C00
1C00
0400
1C00
1800
ENDCHAR
STARTCHAR 0138
ENCODING 312
SWIDTH 585 0
DWIDTH 13 0
BBX 9 11 3 0
BITMAP
C300
C600
CC00
DC00
D800
F000
F000
D800
CC00
C600
C380
ENDCHAR
STARTCHAR 0139
ENCODING 313
SWIDTH 585 0
DWIDTH 13 0
BBX 10 19 2 0
BITMAP
7000
6000
C000
0000
C000
C000
C000
C000
C000
C000
C000
C000
C000
C000
C000
C000
C000
FFC0
FFC0
ENDCHAR
STARTCHAR 013A
ENCODING 314
SWIDTH 585 0
DWIDTH 13 0
BBX 10 20 2 0
BITMAP
0600
0600
0C00
0000
0000
FC00
FC00
0C00
0C00
0C00
0C00
0C00
0C00
0C00
0C00
0C00
0C00
0C00
FFC0
FFC0
ENDCHAR
STARTCHAR 013B
ENCODING 315
SWIDTH 585 0
DWIDTH 13 0
BBX 10 22 2 -7
BITMAP
C000
C000
C000
C000
C000
C000
C000
C000
C000
C000
C000
C000
C000
FFC0
FFC0
0000
0C00
1C00
0C00
0400
0C00
0800
ENDCHAR
STARTCHAR 013C
ENCODING 316
SWIDTH 585 0
DWIDTH 13 0
BBX 10 22 2 -7
BITMAP
FC00
FC00
0C00
0C00
0C00
0C00
0C00
0C00
0C00
0C00
0C00
0C00
0C00
FFC0
FFC0
0000
0C00
1C00
0C00
0400
1C00
1800
ENDCHAR
STARTCHAR 013D
ENCODING 317
SWIDTH 585 0
DWIDTH 13 0
BBX 10 15 2 0
BITMAP
C180
C1C0
C1C0
C040
C1C0
C180
C000
C000
C000
C000
C000
C000
C000
FFC0
FFC0
ENDCHAR
STARTCHAR 013E
ENCODING 318
SWIDTH 585 0
DWIDTH 13 0
BBX 10 15 2 0
BITMAP
FD80
FFC0
0DC0
0CC0
0D80
0D00
0C00
0C00
0C00
0C00
0C00
0C00
0C00
FFC0
FFC0
ENDCHAR
STARTCHAR 013F
ENCODING 319
SWIDTH 585 0
DWIDTH 13 0
BBX 10 15 2 0
BITMAP
C000
C000
C000
C000
C000
C000
C180
C1C0
C180
C000
C000
C000
C000
FFC0
FFC0
ENDCHAR
STARTCHAR 0140
ENCODING 320
SWIDTH 585 0
DWIDTH 13 0
BBX 10 15 2 0
BITMAP
FC00
FC00
0C00
0C00
0C00
0C00
0D80
0FC0
0D80
0C00
0C00
0C00
0C00
FFC0
FFC0
ENDCHAR
STARTCHAR 0141
ENCODING 321
SWIDTH 585 0
DWIDTH 13 0
BBX 11 15 1 0
BITMAP
2000
2000
2000
2000
2000
2000
3800
7C00
E000
A000
2000
2000
2000
3FE0
3FE0
ENDCHAR
STARTCHAR 0142
ENCODING 322
SWIDTH 585 0
DWIDTH 13 0
BBX 10 15 2 0
BITMAP
FC00
FC00
0C00
0C00
0C00
0C00
0F00
1E00
3C00
2C00
0C00
0C00
0C00
FFC0
FFC0
ENDCHAR
STARTCHAR 0143
ENCODING 323
SWIDTH 585 0
DWIDTH 13 0
BBX 10 19 2 0
BITMAP
0300
0300
0600
0000
E0C0
B0C0
B0C0
90C0
98C0
98C0
98C0
8CC0
8CC0
8CC0
86C0
86C0
86C0
83C0
83C0
ENDCHAR
STARTCHAR 0144
ENCODING 324
SWIDTH 585 0
DWIDTH 13 0
BBX 10 15 2 0
BITMAP
0300
0600
0600
0000
DF00
FF80
E180
C080
C0C0
C0C0
C0C0
C0C0
C0C0
C0C0
C0C0
ENDCHAR
STARTCHAR 0145
ENCODING 325
SWIDTH 585 0
DWIDTH 13 0
BBX 10 22 2 -7
BITMAP
E0C0
B0C0
B0C0
90C0
98C0
98C0
98C0
8CC0
8CC0
8CC0
86C0
86C0
86C0
83C0
83C0
0000
1800
3800
1800
0800
1800
1000
ENDCHAR
STARTCHAR 0146
ENCODING 326
SWIDTH 585 0
DWIDTH 13 0
BBX 10 18 2 -7
BITMAP
DF00
FF80
E180
C080
C0C0
C0C0
C0C0
C0C0
C0C0
C0C0
C0C0
0000
0C00
1E00
0E00
0600
0C00
0800
ENDCHAR
STARTCHAR 0147
ENCODING 327
SWIDTH 585 0
DWIDTH 13 0
BBX 10 19 2 0
BITMAP
3180
1B00
0E00
0000
E0C0
B0C0
B0C0
90C0
98C0
98C0
98C0
8CC0
8CC0
8CC0
86C0
86C0
86C0
83C0
83C0
ENDCHAR
STARTCHAR 0148
ENCODING 328
SWIDTH 585 0
DWIDTH 13 0
BBX 10 15 2 0
BITMAP
3300
1B00
0E00
0000
DF00
FF80
E180
C080
C0C0
C0C0
C0C0
C0C0
C0C0
C0C0
C0C0
ENDCHAR
STARTCHAR 0149
ENCODING 329
SWIDTH 585 0
DWIDTH 13 0
BBX 10 18 2 0
BITMAP
C000
E000
E000
2000
E000
C000
0000
DF00
FF80
E180
C080
C0C0
C0C0
C0C0
C0C0
C0C0
C0C0
C0C0
ENDCHAR
STARTCHAR 014A
ENCODING 330
SWIDTH 585 0
DWIDTH 13 0
BBX 10 19 2 -4
BITMAP
E0C0
B0C0
B0C0
90C0
98C0
98C0
98C0
8CC0
8CC0
8CC0
86C0
86C0
86C0
83C0
83C0
00C0
00C0
1FC0
1F80
ENDCHAR
STARTCHAR 014B
ENCODING 331
SWIDTH 585 0
DWIDTH 13 0
BBX 10 15 2 -4
BITMAP
DF00
FF80
E180
C080
C0C0
C0C0
C0C0
C0C0
C0C0
C0C0
C0C0
00C0
00C0
07C0
0780
ENDCHAR
STARTCHAR 014C
ENCODING 332
SWIDTH 585 0
DWIDTH 13 0
BBX 11 18 1 0
BITMAP
1F80
1F80
0000
1F00
3FC0
60C0
6060
C060
C060
C060
C060
C060
C060
C060
6060
60C0
3FC0
1F00
ENDCHAR
STARTCHAR 014D
ENCODING 333
SWIDTH 585 0
DWIDTH 13 0
BBX 11 14 1 0
BITMAP
1F80
1F80
0000
1F00
3FC0
60C0
4060
C060
C060
C060
4060
60C0
3FC0
1F00
ENDCHAR
STARTCHAR 014E
ENCODING 334
SWIDTH 585 0
DWIDTH 13 0
BBX 11 19 1 0
BITMAP
1B00
0F00
0000
0000
1F00
3FC0
60C0
6060
C060
C060
C060
C060
C060
C060
C060
6060
60C0
3FC0
1F00
ENDCHAR
STARTCHAR 014F
ENCODING 335
SWIDTH 585 0
DWIDTH 13 0
BBX 11 15 1 0
BITMAP
1B00
0F00
0000
0000
1F00
3FC0
60C0
4060
C060
C060
C060
4060
60C0
3FC0
1F00
ENDCHAR
STARTCHAR 0150
ENCODING 336
SWIDTH 585 0
DWIDTH 13 0
BBX 11 19 1 0
BITMAP
0EC0
0D80
1B00
0000
1F00
3FC0
60C0
6060
C060
C060
C060
C060
C060
C060
C060
6060
60C0
3FC0
1F00
ENDCHAR
STARTCHAR 0151
ENCODING 337
SWIDTH 585 0
DWIDTH 13 0
BBX 11 15 1 0
BITMAP
0EC0
0D80
1B00
0000
1F00
3FC0
60C0
4060
C060
C060
C060
4060
60C0
3FC0
1F00
ENDCHAR
STARTCHAR 0152
ENCODING 338
SWIDTH 585 0
DWIDTH 13 0
BBX 11 15 1 0
BITMAP
1FE0
3FE0
6200
6200
C200
C200
C3E0
C3E0
C200
C200
C200
6200
6200
3FE0
1FE0
ENDCHAR
STARTCHAR 0153
ENCODING 339
SWIDTH 585 0
DWIDTH 13 0
BBX 11 11 1 0
BITMAP
0F00
3FC0
66E0
6660
47E0
C7E0
4600
6640
6660
3FC0
0F80
ENDCHAR
STARTCHAR 0154
ENCODING 340
SWIDTH 585 0
DWIDTH 13 0
BBX 10 19 2 0
BITMAP
0600
0C00
0800
0000
FF00
FF80
C0C0
C0C0
C0C0
C0C0
C180
FF00
FF80
C0C0
C0C0
C0C0
C0C0
C0C0
C0C0
ENDCHAR
STARTCHAR 0155
ENCODING 341
SWIDTH 585 0
DWIDTH 13 0
BBX 11 15 1 0
BITMAP
00C0
0180
0180
0000
F380
F7E0
1860
1060
1000
1000
1000
1000
1000
FE00
FE00
ENDCHAR
STARTCHAR 0156
ENCODING 342
SWIDTH 585 0
DWIDTH 13 0
BBX 10 22 2 -7
BITMAP
FF00
FF80
C0C0
C0C0
C0C0
C0C0
C180
FF00
FF80
C0C0
C0C0
C0C0
C0C0
C0C0
C0C0
0000
0C00
1C00
0C00
0400
0C00
0800
ENDCHAR
STARTCHAR 0157
ENCODING 343
SWIDTH 585 0
DWIDTH 13 0
BBX 11 18 1 -7
BITMAP
F380
F7E0
1860
1060
1000
1000
1000
1000
1000
FE00
FE00
0000
3800
3800
3800
0800
3800
3000
ENDCHAR
STARTCHAR 0158
ENCODING 344
SWIDTH 585 0
DWIDTH 13 0
BBX 10 19 2 0
BITMAP
6600
3400
1C00
0000
FF00
FF80
C0C0
C0C0
C0C0
C0C0
C180
FF00
FF80
C0C0
C0C0
C0C0
C0C0
C0C0
C0C0
ENDCHAR
STARTCHAR 0159
ENCODING 345
SWIDTH 585 0
DWIDTH 13 0
BBX 11 15 1 0
BITMAP
3180
1B00
0E00
0000
F380
F7E0
1860
1060
1000
1000
1000
1000
1000
FE00
FE00
ENDCHAR
STARTCHAR 015A
ENCODING 346
SWIDTH 585 0
DWIDTH 13 0
BBX 11 20 1 0
BITMAP
0300
0600
0600
0000
0000
1F00
3FC0
6060
6060
6060
6000
3C00
1FC0
00E0
C060
C060
C060
6060
3FC0
1F80
ENDCHAR
STARTCHAR 015B
ENCODING 347
SWIDTH 585 0
DWIDTH 13 0
BBX 9 15 2 0
BITMAP
0600
0C00
0800
0000
3E00
7F00
4180
4100
7000
3F00
0180
C180
C180
7F80
3E00
ENDCHAR
STARTCHAR 015C
ENCODING 348
SWIDTH 585 0
DWIDTH 13 0
BBX 11 19 1 0
BITMAP
0E00
1B00
1980
0000
1F00
3FC0
6060
6060
6060
6000
3C00
1FC0
00E0
C060
C060
C060
6060
3FC0
1F80
ENDCHAR
STARTCHAR 015D
ENCODING 349
SWIDTH 585 0
DWIDTH 13 0
BBX 9 15 2 0
BITMAP
1C00
3600
6300
0000
3E00
7F00
4180
4100
7000
3F00
0180
C180
C180
7F80
3E00
ENDCHAR
STARTCHAR 015E
ENCODING 350
SWIDTH 585 0
DWIDTH 13 0
BBX 11 19 1 -4
BITMAP
1F00
3FC0
6060
6060
6060
6000
3C00
1FC0
00E0
C060
C060
C060
6060
3FC0
1F80
0700
0F80
0F80
0700
ENDCHAR
STARTCHAR 015F
ENCODING 351
SWIDTH 585 0
DWIDTH 13 0
BBX 9 15 2 -4
BITMAP
3E00
7F00
4180
4100
7000
3F00
0180
C180
C180
7F80
3E00
0E00
1E00
1E00
0E00
ENDCHAR
STARTCHAR 0160
ENCODING 352
SWIDTH 585 0
DWIDTH 13 0
BBX 11 19 1 0
BITMAP
1980
1B00
0E00
0000
1F00
3FC0
6060
6060
6060
6000
3C00
1FC0
00E0
C060
C060
C060
6060
3FC0
1F80
ENDCHAR
STARTCHAR 0161
ENCODING 353
SWIDTH 585 0
DWIDTH 13 0
BBX 9 15 2 0
BITMAP
6300
3600
1C00
0000
3E00
7F00
4180
4100
7000
3F00
0180
C180
C180
7F80
3E00
ENDCHAR
STARTCHAR 0162
ENCODING 354
SWIDTH 585 0
DWIDTH 13 0
BBX 11 19 1 -4
BITMAP
FFE0
FFE0
0600
0600
0600
0600
0600
0600
0600
0600
0600
0600
0600
0600
0600
0700
0780
0780
0700
ENDCHAR
STARTCHAR 0163
ENCODING 355
SWIDTH 585 0
DWIDTH 13 0
BBX 9 19 2 -4
BITMAP
1800
1800
1800
1800
FF80
FF80
1800
1800
1800
1800
1800
1800
1800
1F00
1F00
0700
0F00
0F00
0700
ENDCHAR
STARTCHAR 0164
ENCODING 356
SWIDTH 585 0
DWIDTH 13 0
BBX 11 19 1 0
BITMAP
1980
1B00
0E00
0000
FFE0
FFE0
0600
0600
0600
0600
0600
0600
0600
0600
0600
0600
0600
0600
0600
ENDCHAR
STARTCHAR 0165
ENCODING 357
SWIDTH 585 0
DWIDTH 13 0
BBX 10 15 2 0
BITMAP
1980
19C0
19C0
1840
FDC0
FD80
1800
1800
1800
1800
1800
1800
1800
1F00
1F00
ENDCHAR
STARTCHAR 0166
ENCODING 358
SWIDTH 585 0
DWIDTH 13 0
BBX 11 15 1 0
BITMAP
FFE0
FFE0
0600
0600
0600
0600
7FC0
7FC0
0600
0600
0600
0600
0600
0600
0600
ENDCHAR
STARTCHAR 0167
ENCODING 359
SWIDTH 585 0
DWIDTH 13 0
BBX 9 15 2 0
BITMAP
1800
1800
1800
1800
FF80
FF80
1800
FF00
FF00
1800
1800
1800
1800
1F00
1F00
ENDCHAR
STARTCHAR 0168
ENCODING 360
SWIDTH 585 0
DWIDTH 13 0
BBX 11 20 1 0
BITMAP
0E40
1BC0
1380
0000
0000
C060
C060
C060
C060
C060
C060
C060
C060
C060
C060
C060
6060
60C0
3FC0
1F00
ENDCHAR
STARTCHAR 0169
ENCODING 361
SWIDTH 585 0
DWIDTH 13 0
BBX 9 15 2 0
BITMAP
3900
6F80
2600
0000
C080
C080
C080
C080
C080
C080
C080
C180
C180
7E80
3C80
ENDCHAR
STARTCHAR 016A
ENCODING 362
SWIDTH 585 0
DWIDTH 13 0
BBX 11 18 1 0
BITMAP
1F80
1F80
0000
C060
C060
C060
C060
C060
C060
C060
C060
C060
C060
C060
6060
60C0
3FC0
1F00
ENDCHAR
STARTCHAR 016B
ENCODING 363
SWIDTH 585 0
DWIDTH 13 0
BBX 9 14 2 0
BITMAP
3F00
3F00
0000
C080
C080
C080
C080
C080
C080
C080
C180
C180
7E80
3C80
ENDCHAR
STARTCHAR 016C
ENCODING 364
SWIDTH 585 0
DWIDTH 13 0
BBX 11 19 1 0
BITMAP
1B00
0F00
0000
0000
C060
C060
C060
C060
C060
C060
C060
C060
C060
C060
C060
6060
60C0
3FC0
1F00
ENDCHAR
STARTCHAR 016D
ENCODING 365
SWIDTH 585 0
DWIDTH 13 0
BBX 9 15 2 0
BITMAP
3600
1C00
0000
0000
C080
C080
C080
C080
C080
C080
C080
C180
C180
7E80
3C80
ENDCHAR
STARTCHAR 016E
ENCODING 366
SWIDTH 585 0
DWIDTH 13 0
BBX 11 21 1 0
BITMAP
0400
0F00
1900
0F00
0E00
0000
C060
C060
C060
C060
C060
C060
C060
C060
C060
C060
C060
6060
60C0
3FC0
1F00
ENDCHAR
STARTCHAR 016F
ENCODING 367
SWIDTH 585 0
DWIDTH 13 0
BBX 9 17 2 0
BITMAP
0800
1E00
3200
1E00
1C00
0000
C080
C080
C080
C080
C080
C080
C080
C180
C180
7E80
3C80
ENDCHAR
STARTCHAR 0170
ENCODING 368
SWIDTH 585 0
DWIDTH 13 0
BBX 11 19 1 0
BITMAP
0EC0
0D80
1B00
0000
C060
C060
C060
C060
C060
C060
C060
C060
C060
C060
C060
6060
60C0
3FC0
1F00
ENDCHAR
STARTCHAR 0171
ENCODING 369
SWIDTH 585 0
DWIDTH 13 0
BBX 9 15 2 0
BITMAP
1D80
1B00
3600
0000
C080
C080
C080
C080
C080
C080
C080
C180
C180
7E80
3C80
ENDCHAR
STARTCHAR 0172
ENCODING 370
SWIDTH 585 0
DWIDTH 13 0
BBX 11 18 1 -3
BITMAP
C060
C060
C060
C060
C060
C060
C060
C060
C060
C060
C060
6060
60C0
3FC0
1F80
0400
0400
0700
ENDCHAR
STARTCHAR 0173
ENCODING 371
SWIDTH 585 0
DWIDTH 13 0
BBX 10 15 2 -4
BITMAP
C080
C080
C080
C080
C080
C080
C080
C180
C180
7E80
3D80
0180
0100
01C0
00C0
ENDCHAR
STARTCHAR 0174
ENCODING 372
SWIDTH 585 0
DWIDTH 13 0
BBX 13 19 0 0
BITMAP
0700
0D80
0CC0
0000
C718
C798
C598
4598
4598
4D98
6D98
6C90
6C90
6C90
6CB0
6CF0
28F0
28F0
38F0
ENDCHAR
STARTCHAR 0175
ENCODING 373
SWIDTH 585 0
DWIDTH 13 0
BBX 13 15 0 0
BITMAP
0700
0D80
0CC0
0000
C718
4798
6598
6598
6590
6D90
6CB0
2CB0
2CB0
38F0
38E0
ENDCHAR
STARTCHAR 0176
ENCODING 374
SWIDTH 585 0
DWIDTH 13 0
BBX 12 19 1 0
BITMAP
0E00
1B00
1980
0000
C030
C060
6060
60C0
30C0
3180
1980
1B00
0F00
0E00
0600
0600
0600
0600
0600
ENDCHAR
STARTCHAR 0177
ENCODING 375
SWIDTH 585 0
DWIDTH 13 0
BBX 10 19 2 -4
BITMAP
1C00
3600
3300
0000
C0C0
C0C0
C0C0
C0C0
C0C0
C0C0
C0C0
C1C0
C1C0
7EC0
3CC0
00C0
00C0
3FC0
3F80
ENDCHAR
STARTCHAR 0178
ENCODING 376
SWIDTH 585 0
DWIDTH 13 0
BBX 12 19 1 0
BITMAP
3980
3B80
3980
0000
C030
C060
6060
60C0
30C0
3180
1980
1B00
0F00
0E00
0600
0600
0600
0600
0600
ENDCHAR
STARTCHAR 0179
ENCODING 377
SWIDTH 585 0
DWIDTH 13 0
BBX 11 19 1 0
BITMAP
0300
0200
0600
0000
7FE0
7FE0
0060
00C0
0180
0380
0700
0E00
0C00
1800
3000
6000
C000
FFE0
FFE0
ENDCHAR
STARTCHAR 017A
ENCODING 378
SWIDTH 585 0
DWIDTH 13 0
BBX 10 15 2 0
BITMAP
0600
0400
0C00
0000
FF80
FF80
0180
0300
0600
1C00
3800
6000
C000
FFC0
FFC0
ENDCHAR
STARTCHAR 017B
ENCODING 379
SWIDTH 585 0
DWIDTH 13 0
BBX 11 19 1 0
BITMAP
0600
0F00
0600
0000
7FE0
7FE0
0060
00C0
0180
0380
0700
0E00
0C00
1800
3000
6000
C000
FFE0
FFE0
ENDCHAR
STARTCHAR 017C
ENCODING 380
SWIDTH 585 0
DWIDTH 13 0
BBX 10 15 2 0
BITMAP
0C00
1C00
0C00
0000
FF80
FF80
0180
0300
0600
1C00
3800
6000
C000
FFC0
FFC0
ENDCHAR
STARTCHAR 017D
ENCODING 381
SWIDTH 585 0
DWIDTH 13 0
BBX 11 19 1 0
BITMAP
1980
0F00
0F00
0000
7FE0
7FE0
0060
00C0
0180
0380
0700
0E00
0C00
1800
3000
6000
C000
FFE0
FFE0
ENDCHAR
STARTCHAR 017E
ENCODING 382
SWIDTH 585 0
DWIDTH 13 0
BBX 10 15 2 0
BITMAP
3300
3600
1C00
0000
FF80
FF80
0180
0300
0600
1C00
3800
6000
C000
FFC0
FFC0
ENDCHAR
STARTCHAR 017F
ENCODING 383
SWIDTH 585 0
DWIDTH 13 0
BBX 7 15 4 0
BITMAP
3E
7E
60
60
E0
E0
60
60
60
60
60
60
60
60
60
ENDCHAR
STARTCHAR 0180
ENCODING 384
SWIDTH 585 0
DWIDTH 13 0
BBX 12 15 0 0
BITMAP
2000
FE00
FE00
2000
27C0
2FE0
3070
3030
2030
2010
2030
3030
3070
2FE0
27C0
ENDCHAR
STARTCHAR 018F
ENCODING 399
SWIDTH 585 0
DWIDTH 13 0
BBX 11 15 1 0
BITMAP
1F00
3FC0
60C0
4060
C060
0060
0060
FFE0
FFE0
C060
C060
6060
60C0
3FC0
1F00
ENDCHAR
STARTCHAR 0192
ENCODING 402
SWIDTH 585 0
DWIDTH 13 0
BBX 8 11 3 2
BITMAP
0F
1F
18
18
7E
7E
18
18
18
F8
F0
ENDCHAR
STARTCHAR 01A0
ENCODING 416
SWIDTH 585 0
DWIDTH 13 0
BBX 12 15 1 0
BITMAP
3E70
7F70
C370
C190
C1F0
C1E0
C180
C180
C180
C180
C180
C180
C300
7F00
3E00
ENDCHAR
STARTCHAR 01A1
ENCODING 417
SWIDTH 585 0
DWIDTH 13 0
BBX 12 11 1 0
BITMAP
3E30
7F70
C1B0
C190
C1F0
C1E0
C180
C180
C180
7F00
3E00
ENDCHAR
STARTCHAR 01AF
ENCODING 431
SWIDTH 585 0
DWIDTH 13 0
BBX 12 15 1 0
BITMAP
C1B0
C1F0
C1B0
C190
C1F0
C1E0
C180
C180
C180
C180
C180
C180
C300
7F00
3E00
ENDCHAR
STARTCHAR 01B0
ENCODING 432
SWIDTH 585 0
DWIDTH 13 0
BBX 12 11 1 0
BITMAP
C130
C170
C130
C110
C1F0
C1E0
C100
C100
C300
FD00
3900
ENDCHAR
STARTCHAR 01CD
ENCODING 461
SWIDTH 585 0
DWIDTH 13 0
BBX 13 19 0 0
BITMAP
0CC0
0D80
0700
0000
0780
0580
0D80
0CC0
08C0
18C0
1840
1860
3060
3FE0
3FF0
6030
6030
6018
C018
ENDCHAR
STARTCHAR 01CE
ENCODING 462
SWIDTH 585 0
DWIDTH 13 0
BBX 12 15 1 0
BITMAP
3300
1A00
0E00
0000
1E60
7F60
60E0
C0E0
C060
C060
C060
C0E0
60E0
7F70
1E70
ENDCHAR
STARTCHAR 01CF
ENCODING 463
SWIDTH 585 0
DWIDTH 13 0
BBX 10 19 2 0
BITMAP
3300
3600
1C00
0000
FFC0
FFC0
0C00
0C00
0C00
0C00
0C00
0C00
0C00
0C00
0C00
0C00
0C00
FFC0
FFC0
ENDCHAR
STARTCHAR 01D0
ENCODING 464
SWIDTH 585 0
DWIDTH 13 0
BBX 9 15 2 0
BITMAP
6300
3600
1C00
0000
7C00
7C00
0C00
0C00
0C00
0C00
0C00
0C00
0C00
FF80
FF80
ENDCHAR
STARTCHAR 01D1
ENCODING 465
SWIDTH 585 0
DWIDTH 13 0
BBX 11 19 1 0
BITMAP
1980
1B00
0E00
0000
1F00
3FC0
60C0
6060
C060
C060
C060
C060
C060
C060
C060
6060
60C0
3FC0
1F00
ENDCHAR
STARTCHAR 01D2
ENCODING 466
SWIDTH 585 0
DWIDTH 13 0
BBX 11 15 1 0
BITMAP
1980
1B00
0E00
0000
1F00
3FC0
60C0
4060
C060
C060
C060
4060
60C0
3FC0
1F00
ENDCHAR
STARTCHAR 01D3
ENCODING 467
SWIDTH 585 0
DWIDTH 13 0
BBX 11 19 1 0
BITMAP
1980
1B00
0E00
0000
C060
C060
C060
C060
C060
C060
C060
C060
C060
C060
C060
6060
60C0
3FC0
1F00
ENDCHAR
STARTCHAR 01D4
ENCODING 468
SWIDTH 585 0
DWIDTH 13 0
BBX 9 15 2 0
BITMAP
6300
3600
1C00
0000
C080
C080
C080
C080
C080
C080
C080
C180
C180
7E80
3C80
ENDCHAR
STARTCHAR 01D5
ENCODING 469
SWIDTH 585 0
DWIDTH 13 0
BBX 11 21 1 0
BITMAP
3F80
3F80
3980
3B80
3980
0000
C060
C060
C060
C060
C060
C060
C060
C060
C060
C060
C060
6060
60C0
3FC0
1F00
ENDCHAR
STARTCHAR 01D6
ENCODING 470
SWIDTH 585 0
DWIDTH 13 0
BBX 9 18 2 0
BITMAP
7F00
7F00
0000
7300
7700
7300
0000
C080
C080
C080
C080
C080
C080
C080
C180
C180
7E80
3C80
ENDCHAR
STARTCHAR 01D7
ENCODING 471
SWIDTH 585 0
DWIDTH 13 0
BBX 11 22 1 0
BITMAP
0300
0200
0600
0000
3980
3B80
3980
C060
C060
C060
C060
C060
C060
C060
C060
C060
C060
C060
6060
60C0
3FC0
1F00
ENDCHAR
STARTCHAR 01D8
ENCODING 472
SWIDTH 585 0
DWIDTH 13 0
BBX 9 19 2 0
BITMAP
0600
0400
0C00
0000
7300
7700
7300
0000
C080
C080
C080
C080
C080
C080
C080
C180
C180
7E80
3C80
ENDCHAR
STARTCHAR 01D9
ENCODING 473
SWIDTH 585 0
DWIDTH 13 0
BBX 11 22 1 0
BITMAP
1980
1B00
0E00
0000
3980
3B80
3980
C060
C060
C060
C060
C060
C060
C060
C060
C060
C060
C060
6060
60C0
3FC0
1F00
ENDCHAR
STARTCHAR 01DA
ENCODING 474
SWIDTH 585 0
DWIDTH 13 0
BBX 9 19 2 0
BITMAP
6300
3600
1C00
0000
7300
7700
7300
0000
C080
C080
C080
C080
C080
C080
C080
C180
C180
7E80
3C80
ENDCHAR
STARTCHAR 01DB
ENCODING 475
SWIDTH 585 0
DWIDTH 13 0
BBX 11 22 1 0
BITMAP
1800
0C00
0600
0000
3980
3B80
3980
C060
C060
C060
C060
C060
C060
C060
C060
C060
C060
C060
6060
60C0
3FC0
1F00
ENDCHAR
STARTCHAR 01DC
ENCODING 476
SWIDTH 585 0
DWIDTH 13 0
BBX 9 19 2 0
BITMAP
3000
1800
0800
0000
7300
7700
7300
0000
C080
C080
C080
C080
C080
C080
C080
C180
C180
7E80
3C80
ENDCHAR
STARTCHAR 01E6
ENCODING 486
SWIDTH 585 0
DWIDTH 13 0
BBX 11 19 1 0
BITMAP
1980
1B00
0E00
0000
1F00
3FC0
60E0
6060
C060
C000
C000
CFE0
CFE0
C060
C060
6060
60E0
3FE0
1F60
ENDCHAR
STARTCHAR 01E7
ENCODING 487
SWIDTH 585 0
DWIDTH 13 0
BBX 11 19 1 -4
BITMAP
3380
1B00
0E00
0000
1F60
3FE0
60E0
C060
C060
C060
C060
C060
60E0
3FE0
1F60
0060
0060
3FE0
3FC0
ENDCHAR
STARTCHAR 01EA
ENCODING 490
SWIDTH 585 0
DWIDTH 13 0
BBX 11 19 1 -4
BITMAP
1F00
3FC0
60C0
6060
C060
C060
C060
C060
C060
C060
C060
C060
6060
60C0
3FC0
1F00
0400
0400
0700
ENDCHAR
STARTCHAR 01EB
ENCODING 491
SWIDTH 585 0
DWIDTH 13 0
BBX 11 14 1 -3
BITMAP
1F00
3FC0
60C0
4060
C060
C060
C060
4060
60E0
3BC0
1F00
0400
0400
0700
ENDCHAR
STARTCHAR 0218
ENCODING 536
SWIDTH 585 0
DWIDTH 13 0
BBX 11 22 1 -7
BITMAP
1F00
3FC0
6060
6060
6060
6000
3C00
1FC0
00E0
C060
C060
C060
6060
3FC0
1F80
0000
0600
0F00
0700
0300
0600
0400
ENDCHAR
STARTCHAR 0219
ENCODING 537
SWIDTH 585 0
DWIDTH 13 0
BBX 9 18 2 -7
BITMAP
3E00
7F00
4180
4100
7000
3F00
0180
C180
C180
7F80
3E00
0000
0C00
1C00
0C00
0400
0C00
0800
ENDCHAR
STARTCHAR 021A
ENCODING 538
SWIDTH 585 0
DWIDTH 13 0
BBX 11 22 1 -7
BITMAP
FFE0
FFE0
0600
0600
0600
0600
0600
0600
0600
0600
0600
0600
0600
0600
0600
0000
0600
0E00
0600
0200
0E00
0C00
ENDCHAR
STARTCHAR 021B
ENCODING 539
SWIDTH 585 0
DWIDTH 13 0
BBX 9 22 2 -7
BITMAP
1800
1800
1800
1800
FF80
FF80
1800
1800
1800
1800
1800
1800
1800
1F00
1F00
0000
1C00
1C00
1C00
0400
1C00
1800
ENDCHAR
STARTCHAR 0237
ENCODING 567
SWIDTH 585 0
DWIDTH 13 0
BBX 6 15 3 -4
BITMAP
FC
FC
0C
0C
0C
0C
0C
0C
0C
0C
0C
0C
0C
FC
FC
ENDCHAR
STARTCHAR 0243
ENCODING 579
SWIDTH 585 0
DWIDTH 13 0
BBX 11 15 1 0
BITMAP
FF80
FFC0
2060
2060
2060
2060
3FC0
3F80
20C0
2060
FC60
FC60
2060
FFC0
FF80
ENDCHAR
STARTCHAR 0250
ENCODING 592
SWIDTH 585 0
DWIDTH 13 0
BBX 11 11 1 0
BITMAP
EF80
E8C0
3060
2060
20C0
3FC0
3F00
2040
30C0
39C0
1F80
ENDCHAR
STARTCHAR 0251
ENCODING 593
SWIDTH 585 0
DWIDTH 13 0
BBX 12 11 1 0
BITMAP
1E60
7F60
60E0
C0E0
C060
C060
C060
C0E0
60E0
7F70
1E70
ENDCHAR
STARTCHAR 0252
ENCODING 594
SWIDTH 585 0
DWIDTH 13 0
BBX 12 11 1 0
BITMAP
CF80
FFC0
7060
6020
6030
6030
6030
6020
7060
7FC0
6780
ENDCHAR
STARTCHAR 0254
ENCODING 596
SWIDTH 585 0
DWIDTH 13 0
BBX 11 11 1 0
BITMAP
1F00
3FC0
60C0
C060
0060
0060
0060
C060
60C0
3FC0
1F00
ENDCHAR
STARTCHAR 0258
ENCODING 600
SWIDTH 585 0
DWIDTH 13 0
BBX 11 11 1 0
BITMAP
1F00
3FC0
60C0
4060
7FE0
FFE0
0060
4060
60C0
3FC0
1F00
ENDCHAR
STARTCHAR 0259
ENCODING 601
SWIDTH 585 0
DWIDTH 13 0
BBX 11 11 1 0
BITMAP
1F00
3F80
60C0
4060
0060
FFE0
FFE0
4060
60C0
3F80
1F00
ENDCHAR
STARTCHAR 0261
ENCODING 609
SWIDTH 585 0
DWIDTH 13 0
BBX 11 15 1 -4
BITMAP
1F60
3FE0
60E0
C060
C060
C060
C060
C060
60E0
3FE0
1F60
0060
0060
3FE0
3FC0
ENDCHAR
STARTCHAR 0265
ENCODING 613
SWIDTH 585 0
DWIDTH 13 0
BBX 10 15 2 -4
BITMAP
C0C0
C0C0
C0C0
C0C0
C0C0
C0C0
C0C0
C1C0
C1C0
7EC0
3CC0
00C0
00C0
00C0
00C0
ENDCHAR
STARTCHAR 026F
ENCODING 623
SWIDTH 585 0
DWIDTH 13 0
BBX 11 11 1 0
BITMAP
C620
C620
C620
C620
C620
C620
C620
C620
C660
FFE0
7BA0
ENDCHAR
STARTCHAR 0279
ENCODING 633
SWIDTH 585 0
DWIDTH 13 0
BBX 11 11 1 0
BITMAP
0FE0
0FE0
0180
0180
0180
0180
0180
C180
E180
7FE0
3DE0
ENDCHAR
STARTCHAR 0287
ENCODING 647
SWIDTH 585 0
DWIDTH 13 0
BBX 10 15 2 -4
BITMAP
7C00
7C00
0C00
0C00
0C00
0C00
0C00
0C00
0C00
FFC0
FFC0
0C00
0C00
0C00
0C00
ENDCHAR
STARTCHAR 028C
ENCODING 652
SWIDTH 585 0
DWIDTH 13 0
BBX 11 11 1 0
BITMAP
0F00
1B00
1B00
1980
3180
3180
30C0
60C0
60C0
6060
C060
ENDCHAR
STARTCHAR 028D
ENCODING 653
SWIDTH 585 0
DWIDTH 13 0
BBX 13 11 0 0
BITMAP
38E0
38F0
2CB0
2CB0
6CB0
6D90
6590
6598
6598
4798
C718
ENDCHAR
STARTCHAR 028E
ENCODING 654
SWIDTH 585 0
DWIDTH 13 0
BBX 11 15 1 0
BITMAP
07E0
07E0
0600
0600
0E00
0F00
1B00
1980
1180
3180
30C0
20C0
60C0
6060
C060
ENDCHAR
STARTCHAR 029E
ENCODING 670
SWIDTH 585 0
DWIDTH 13 0
BBX 8 15 2 -4
BITMAP
C1
61
31
19
0F
07
0D
19
31
61
E1
01
01
01
01
ENDCHAR
STARTCHAR 02C6
ENCODING 710
SWIDTH 585 0
DWIDTH 13 0
BBX 6 3 4 12
BITMAP
70
D8
CC
ENDCHAR
STARTCHAR 02C7
ENCODING 711
SWIDTH 585 0
DWIDTH 13 0
BBX 6 3 4 12
BITMAP
CC
D8
70
ENDCHAR
STARTCHAR 02C9
ENCODING 713
SWIDTH 585 0
DWIDTH 13 0
BBX 6 2 4 12
BITMAP
FC
FC
ENDCHAR
STARTCHAR 02D8
ENCODING 728
SWIDTH 585 0
DWIDTH 13 0
BBX 5 2 4 13
BITMAP
D8
78
ENDCHAR
STARTCHAR 02D9
ENCODING 729
SWIDTH 585 0
DWIDTH 13 0
BBX 3 3 5 12
BITMAP
60
E0
60
ENDCHAR
STARTCHAR 02DA
ENCODING 730
SWIDTH 585 0
DWIDTH 13 0
BBX 5 5 4 12
BITMAP
20
78
C8
78
70
ENDCHAR
STARTCHAR 02DB
ENCODING 731
SWIDTH 585 0
DWIDTH 13 0
BBX 3 4 6 -3
BITMAP
C0
80
80
E0
ENDCHAR
STARTCHAR 02DC
ENCODING 732
SWIDTH 585 0
DWIDTH 13 0
BBX 8 3 3 12
BITMAP
72
DF
4C
ENDCHAR
STARTCHAR 02DD
ENCODING 733
SWIDTH 585 0
DWIDTH 13 0
BBX 7 3 3 12
BITMAP
36
6C
CC
ENDCHAR
STARTCHAR 0301
ENCODING 769
SWIDTH 585 0
DWIDTH 13 0
BBX 3 3 5 15
BITMAP
60
60
C0
ENDCHAR
STARTCHAR 0309
ENCODING 777
SWIDTH 585 0
DWIDTH 13 0
BBX 4 5 5 12
BITMAP
E0
F0
F0
E0
80
ENDCHAR
STARTCHAR 031B
ENCODING 795
SWIDTH 585 0
DWIDTH 13 0
BBX 4 5 5 10
BITMAP
60
70
70
F0
E0
ENDCHAR
STARTCHAR 0323
ENCODING 803
SWIDTH 585 0
DWIDTH 13 0
BBX 3 3 5 -4
BITMAP
60
E0
60
ENDCHAR
STARTCHAR 032E
ENCODING 814
SWIDTH 585 0
DWIDTH 13 0
BBX 5 2 4 -4
BITMAP
D8
78
ENDCHAR
STARTCHAR 0331
ENCODING 817
SWIDTH 585 0
DWIDTH 13 0
BBX 6 2 4 -3
BITMAP
FC
FC
ENDCHAR
STARTCHAR 03C0
ENCODING 960
SWIDTH 585 0
DWIDTH 13 0
BBX 11 11 1 0
BITMAP
FFE0
FFE0
3080
3080
3080
3080
3080
3080
3080
30E0
30E0
ENDCHAR
STARTCHAR 1E0C
ENCODING 7692
SWIDTH 585 0
DWIDTH 13 0
BBX 10 19 2 -4
BITMAP
FF00
FF80
61C0
60C0
60C0
60C0
60C0
60C0
60C0
60C0
60C0
60C0
61C0
FF80
FF00
0000
0C00
1C00
0C00
ENDCHAR
STARTCHAR 1E0D
ENCODING 7693
SWIDTH 585 0
DWIDTH 13 0
BBX 11 19 1 -4
BITMAP
0060
0060
0060
0060
1F60
3FE0
60E0
4060
C060
C060
C060
4060
60E0
3FE0
1F60
0000
0E00
0E00
0E00
ENDCHAR
STARTCHAR 1E0E
ENCODING 7694
SWIDTH 585 0
DWIDTH 13 0
BBX 10 18 2 -3
BITMAP
FF00
FF80
61C0
60C0
60C0
60C0
60C0
60C0
60C0
60C0
60C0
60C0
61C0
FF80
FF00
0000
3F00
3F00
ENDCHAR
STARTCHAR 1E0F
ENCODING 7695
SWIDTH 585 0
DWIDTH 13 0
BBX 11 18 1 -3
BITMAP
0060
0060
0060
0060
1F60
3FE0
60E0
4060
C060
C060
C060
4060
60E0
3FE0
1F60
0000
3F80
3F80
ENDCHAR
STARTCHAR 1E20
ENCODING 7712
SWIDTH 585 0
DWIDTH 13 0
BBX 11 18 1 0
BITMAP
1F80
1F80
0000
1F00
3FC0
60E0
6060
C060
C000
C000
CFE0
CFE0
C060
C060
6060
60E0
3FE0
1F60
ENDCHAR
STARTCHAR 1E21
ENCODING 7713
SWIDTH 585 0
DWIDTH 13 0
BBX 11 18 1 -4
BITMAP
3F80
3F80
0000
1F60
3FE0
60E0
C060
C060
C060
C060
C060
60E0
3FE0
1F60
0060
0060
3FE0
3FC0
ENDCHAR
STARTCHAR 1E24
ENCODING 7716
SWIDTH 585 0
DWIDTH 13 0
BBX 10 19 2 -4
BITMAP
80C0
80C0
80C0
80C0
80C0
80C0
FFC0
FFC0
80C0
80C0
80C0
80C0
80C0
80C0
80C0
0000
0C00
1C00
0C00
ENDCHAR
STARTCHAR 1E25
ENCODING 7717
SWIDTH 585 0
DWIDTH 13 0
BBX 10 19 2 -4
BITMAP
C000
C000
C000
C000
DF00
FF80
E180
C080
C0C0
C0C0
C0C0
C0C0
C0C0
C0C0
C0C0
0000
0C00
1C00
0C00
ENDCHAR
STARTCHAR 1E2A
ENCODING 7722
SWIDTH 585 0
DWIDTH 13 0
BBX 10 19 2 -4
BITMAP
80C0
80C0
80C0
80C0
80C0
80C0
FFC0
FFC0
80C0
80C0
80C0
80C0
80C0
80C0
80C0
0000
0000
3600
1E00
ENDCHAR
STARTCHAR 1E2B
ENCODING 7723
SWIDTH 585 0
DWIDTH 13 0
BBX 10 19 2 -4
BITMAP
C000
C000
C000
C000
DF00
FF80
E180
C080
C0C0
C0C0
C0C0
C0C0
C0C0
C0C0
C0C0
0000
0000
3600
1E00
ENDCHAR
STARTCHAR 1E36
ENCODING 7734
SWIDTH 585 0
DWIDTH 13 0
BBX 10 19 2 -4
BITMAP
C000
C000
C000
C000
C000
C000
C000
C000
C000
C000
C000
C000
C000
FFC0
FFC0
0000
0C00
1C00
0C00
ENDCHAR
STARTCHAR 1E37
ENCODING 7735
SWIDTH 585 0
DWIDTH 13 0
BBX 10 19 2 -4
BITMAP
FC00
FC00
0C00
0C00
0C00
0C00
0C00
0C00
0C00
0C00
0C00
0C00
0C00
FFC0
FFC0
0000
0C00
1C00
0C00
ENDCHAR
STARTCHAR 1E38
ENCODING 7736
SWIDTH 585 0
DWIDTH 13 0
BBX 10 22 2 -4
BITMAP
3F00
3F00
0000
C000
C000
C000
C000
C000
C000
C000
C000
C000
C000
C000
C000
C000
FFC0
FFC0
0000
0C00
1C00
0C00
ENDCHAR
STARTCHAR 1E39
ENCODING 7737
SWIDTH 585 0
DWIDTH 13 0
BBX 10 23 2 -4
BITMAP
FC00
FC00
0000
0000
FC00
FC00
0C00
0C00
0C00
0C00
0C00
0C00
0C00
0C00
0C00
0C00
0C00
FFC0
FFC0
0000
0C00
1C00
0C00
ENDCHAR
STARTCHAR 1E3A
ENCODING 7738
SWIDTH 585 0
DWIDTH 13 0
BBX 10 18 2 -3
BITMAP
C000
C000
C000
C000
C000
C000
C000
C000
C000
C000
C000
C000
C000
FFC0
FFC0
0000
3F00
3F00
ENDCHAR
STARTCHAR 1E3B
ENCODING 7739
SWIDTH 585 0
DWIDTH 13 0
BBX 10 18 2 -3
BITMAP
FC00
FC00
0C00
0C00
0C00
0C00
0C00
0C00
0C00
0C00
0C00
0C00
0C00
FFC0
FFC0
0000
3F00
3F00
ENDCHAR
STARTCHAR 1E42
ENCODING 7746
SWIDTH 585 0
DWIDTH 13 0
BBX 11 19 1 -4
BITMAP
F0E0
F0A0
F0A0
F1A0
D1A0
D1A0
D1A0
D9A0
D920
D920
DB20
CB20
CB20
CF20
CE20
0000
0600
0E00
0600
ENDCHAR
STARTCHAR 1E43
ENCODING 7747
SWIDTH 585 0
DWIDTH 13 0
BBX 11 15 1 -4
BITMAP
FDC0
FFE0
C620
C620
C620
C620
C620
C620
C620
C620
C620
0000
0600
0E00
0600
ENDCHAR
STARTCHAR 1E44
ENCODING 7748
SWIDTH 585 0
DWIDTH 13 0
BBX 10 19 2 0
BITMAP
0600
0E00
0600
0000
E0C0
B0C0
B0C0
90C0
98C0
98C0
98C0
8CC0
8CC0
8CC0
86C0
86C0
86C0
83C0
83C0
ENDCHAR
STARTCHAR 1E45
ENCODING 7749
SWIDTH 585 0
DWIDTH 13 0
BBX 10 15 2 0
BITMAP
0E00
0E00
0E00
0000
DF00
FF80
E180
C080
C0C0
C0C0
C0C0
C0C0
C0C0
C0C0
C0C0
ENDCHAR
STARTCHAR 1E46
ENCODING 7750
SWIDTH 585 0
DWIDTH 13 0
BBX 10 19 2 -4
BITMAP
E0C0
B0C0
B0C0
90C0
98C0
98C0
98C0
8CC0
8CC0
8CC0
86C0
86C0
86C0
83C0
83C0
0000
0C00
1C00
0C00
ENDCHAR
STARTCHAR 1E47
ENCODING 7751
SWIDTH 585 0
DWIDTH 13 0
BBX 10 15 2 -4
BITMAP
DF00
FF80
E180
C080
C0C0
C0C0
C0C0
C0C0
C0C0
C0C0
C0C0
0000
0C00
1C00
0C00
ENDCHAR
STARTCHAR 1E48
ENCODING 7752
SWIDTH 585 0
DWIDTH 13 0
BBX 10 18 2 -3
BITMAP
E0C0
B0C0
B0C0
90C0
98C0
98C0
98C0
8CC0
8CC0
8CC0
86C0
86C0
86C0
83C0
83C0
0000
3F00
3F00
ENDCHAR
STARTCHAR 1E49
ENCODING 7753
SWIDTH 585 0
DWIDTH 13 0
BBX 10 14 2 -3
BITMAP
DF00
FF80
E180
C080
C0C0
C0C0
C0C0
C0C0
C0C0
C0C0
C0C0
0000
3F00
3F00
ENDCHAR
STARTCHAR 1E5A
ENCODING 7770
SWIDTH 585 0
DWIDTH 13 0
BBX 10 19 2 -4
BITMAP
FF00
FF80
C0C0
C0C0
C0C0
C0C0
C180
FF00
FF80
C0C0
C0C0
C0C0
C0C0
C0C0
C0C0
0000
0C00
1C00
0C00
ENDCHAR
STARTCHAR 1E5B
ENCODING 7771
SWIDTH 585 0
DWIDTH 13 0
BBX 11 15 1 -4
BITMAP
F380
F7E0
1860
1060
1000
1000
1000
1000
1000
FE00
FE00
0000
3800
3800
3800
ENDCHAR
STARTCHAR 1E5C
ENCODING 7772
SWIDTH 585 0
DWIDTH 13 0
BBX 10 22 2 -4
BITMAP
3F00
3F00
0000
FF00
FF80
C0C0
C0C0
C0C0
C0C0
C180
FF00
FF80
C0C0
C0C0
C0C0
C0C0
C0C0
C0C0
0000
0C00
1C00
0C00
ENDCHAR
STARTCHAR 1E5D
ENCODING 7773
SWIDTH 585 0
DWIDTH 13 0
BBX 11 18 1 -4
BITMAP
1F80
1F80
0000
F380
F7E0
1860
1060
1000
1000
1000
1000
1000
FE00
FE00
0000
3800
3800
3800
ENDCHAR
STARTCHAR 1E5E
ENCODING 7774
SWIDTH 585 0
DWIDTH 13 0
BBX 10 18 2 -3
BITMAP
FF00
FF80
C0C0
C0C0
C0C0
C0C0
C180
FF00
FF80
C0C0
C0C0
C0C0
C0C0
C0C0
C0C0
0000
3F00
3F00
ENDCHAR
STARTCHAR 1E5F
ENCODING 7775
SWIDTH 585 0
DWIDTH 13 0
BBX 11 14 1 -3
BITMAP
F380
F7E0
1860
1060
1000
1000
1000
1000
1000
FE00
FE00
0000
FE00
FE00
ENDCHAR
STARTCHAR 1E60
ENCODING 7776
SWIDTH 585 0
DWIDTH 13 0
BBX 11 19 1 0
BITMAP
0600
0E00
0600
0000
1F00
3FC0
6060
6060
6060
6000
3C00
1FC0
00E0
C060
C060
C060
6060
3FC0
1F80
ENDCHAR
STARTCHAR 1E61
ENCODING 7777
SWIDTH 585 0
DWIDTH 13 0
BBX 9 15 2 0
BITMAP
1C00
1C00
1C00
0000
3E00
7F00
4180
4100
7000
3F00
0180
C180
C180
7F80
3E00
ENDCHAR
STARTCHAR 1E62
ENCODING 7778
SWIDTH 585 0
DWIDTH 13 0
BBX 11 19 1 -4
BITMAP
1F00
3FC0
6060
6060
6060
6000
3C00
1FC0
00E0
C060
C060
C060
6060
3FC0
1F80
0000
0600
0F00
0600
ENDCHAR
STARTCHAR 1E63
ENCODING 7779
SWIDTH 585 0
DWIDTH 13 0
BBX 9 15 2 -4
BITMAP
3E00
7F00
4180
4100
7000
3F00
0180
C180
C180
7F80
3E00
0000
0C00
1C00
0C00
ENDCHAR
STARTCHAR 1E6C
ENCODING 7788
SWIDTH 585 0
DWIDTH 13 0
BBX 11 19 1 -4
BITMAP
FFE0
FFE0
0600
0600
0600
0600
0600
0600
0600
0600
0600
0600
0600
0600
0600
0000
0600
0E00
0600
ENDCHAR
STARTCHAR 1E6D
ENCODING 7789
SWIDTH 585 0
DWIDTH 13 0
BBX 9 19 2 -4
BITMAP
1800
1800
1800
1800
FF80
FF80
1800
1800
1800
1800
1800
1800
1800
1F00
1F00
0000
1800
3800
1800
ENDCHAR
STARTCHAR 1E6E
ENCODING 7790
SWIDTH 585 0
DWIDTH 13 0
BBX 11 18 1 -3
BITMAP
FFE0
FFE0
0600
0600
0600
0600
0600
0600
0600
0600
0600
0600
0600
0600
0600
0000
1F80
1F80
ENDCHAR
STARTCHAR 1E6F
ENCODING 7791
SWIDTH 585 0
DWIDTH 13 0
BBX 9 18 2 -3
BITMAP
1800
1800
1800
1800
FF80
FF80
1800
1800
1800
1800
1800
1800
1800
1F00
1F00
0000
1F00
1F00
ENDCHAR
STARTCHAR 1E80
ENCODING 7808
SWIDTH 585 0
DWIDTH 13 0
BBX 13 19 0 0
BITMAP
0C00
0600
0300
0000
C718
C798
C598
4598
4598
4D98
6D98
6C90
6C90
6C90
6CB0
6CF0
28F0
28F0
38F0
ENDCHAR
STARTCHAR 1E81
ENCODING 7809
SWIDTH 585 0
DWIDTH 13 0
BBX 13 15 0 0
BITMAP
0C00
0600
0300
0000
C718
4798
6598
6598
6590
6D90
6CB0
2CB0
2CB0
38F0
38E0
ENDCHAR
STARTCHAR 1E82
ENCODING 7810
SWIDTH 585 0
DWIDTH 13 0
BBX 13 19 0 0
BITMAP
0180
0100
0300
0000
C718
C798
C598
4598
4598
4D98
6D98
6C90
6C90
6C90
6CB0
6CF0
28F0
28F0
38F0
ENDCHAR
STARTCHAR 1E83
ENCODING 7811
SWIDTH 585 0
DWIDTH 13 0
BBX 13 15 0 0
BITMAP
0180
0100
0300
0000
C718
4798
6598
6598
6590
6D90
6CB0
2CB0
2CB0
38F0
38E0
ENDCHAR
STARTCHAR 1E84
ENCODING 7812
SWIDTH 585 0
DWIDTH 13 0
BBX 13 19 0 0
BITMAP
1CC0
1DC0
1CC0
0000
C718
C798
C598
4598
4598
4D98
6D98
6C90
6C90
6C90
6CB0
6CF0
28F0
28F0
38F0
ENDCHAR
STARTCHAR 1E85
ENCODING 7813
SWIDTH 585 0
DWIDTH 13 0
BBX 13 15 0 0
BITMAP
1CC0
1DC0
1CC0
0000
C718
4798
6598
6598
6590
6D90
6CB0
2CB0
2CB0
38F0
38E0
ENDCHAR
STARTCHAR 1E8E
ENCODING 7822
SWIDTH 585 0
DWIDTH 13 0
BBX 12 19 1 0
BITMAP
0600
0E00
0600
0000
C030
C060
6060
60C0
30C0
3180
1980
1B00
0F00
0E00
0600
0600
0600
0600
0600
ENDCHAR
STARTCHAR 1E8F
ENCODING 7823
SWIDTH 585 0
DWIDTH 13 0
BBX 10 19 2 -4
BITMAP
0C00
1C00
0C00
0000
C0C0
C0C0
C0C0
C0C0
C0C0
C0C0
C0C0
C1C0
C1C0
7EC0
3CC0
00C0
00C0
3FC0
3F80
ENDCHAR
STARTCHAR 1E92
ENCODING 7826
SWIDTH 585 0
DWIDTH 13 0
BBX 11 19 1 -4
BITMAP
7FE0
7FE0
0060
00C0
0180
0380
0700
0E00
0C00
1800
3000
6000
C000
FFE0
FFE0
0000
0600
0E00
0600
ENDCHAR
STARTCHAR 1E93
ENCODING 7827
SWIDTH 585 0
DWIDTH 13 0
BBX 10 15 2 -4
BITMAP
FF80
FF80
0180
0300
0600
1C00
3800
6000
C000
FFC0
FFC0
0000
0C00
1C00
0C00
ENDCHAR
STARTCHAR 1E97
ENCODING 7831
SWIDTH 585 0
DWIDTH 13 0
BBX 9 19 2 0
BITMAP
6600
E700
6600
0000
1800
1800
1800
1800
FF80
FF80
1800
1800
1800
1800
1800
1800
1800
1F00
1F00
ENDCHAR
STARTCHAR 1E9E
ENCODING 7838
SWIDTH 585 0
DWIDTH 13 0
BBX 11 15 1 0
BITMAP
1FC0
3FC0
60C0
6380
E600
EC00
6F80
6FE0
6060
6020
6020
6060
6060
6FC0
6F80
ENDCHAR
STARTCHAR 1EA0
ENCODING 7840
SWIDTH 585 0
DWIDTH 13 0
BBX 13 19 0 -4
BITMAP
0780
0580
0D80
0CC0
08C0
18C0
1840
1860
3060
3FE0
3FF0
6030
6030
6018
C018
0000
0300
0700
0300
ENDCHAR
STARTCHAR 1EA1
ENCODING 7841
SWIDTH 585 0
DWIDTH 13 0
BBX 12 15 1 -4
BITMAP
1E60
7F60
60E0
C0E0
C060
C060
C060
C0E0
60E0
7F70
1E70
0000
0C00
0E00
0C00
ENDCHAR
STARTCHAR 1EA2
ENCODING 7842
SWIDTH 585 0
DWIDTH 13 0
BBX 13 21 0 0
BITMAP
0380
03C0
0040
03C0
0280
0000
0780
0580
0D80
0CC0
08C0
18C0
1840
1860
3060
3FE0
3FF0
6030
6030
6018
C018
ENDCHAR
STARTCHAR 1EA3
ENCODING 7843
SWIDTH 585 0
DWIDTH 13 0
BBX 12 17 1 0
BITMAP
0600
0F00
0100
0F00
0A00
0000
1E60
7F60
60E0
C0E0
C060
C060
C060
C0E0
60E0
7F70
1E70
ENDCHAR
STARTCHAR 1EA4
ENCODING 7844
SWIDTH 585 0
DWIDTH 13 0
BBX 13 21 0 0
BITMAP
0018
0030
0760
0D80
0CC0
0000
0780
0580
0D80
0CC0
08C0
18C0
1840
1860
3060
3FE0
3FF0
6030
6030
6018
C018
ENDCHAR
STARTCHAR 1EA5
ENCODING 7845
SWIDTH 585 0
DWIDTH 13 0
BBX 12 17 1 0
BITMAP
0060
00C0
1EC0
1A00
3300
0000
1E60
7F60
60E0
C0E0
C060
C060
C060
C0E0
60E0
7F70
1E70
ENDCHAR
STARTCHAR 1EA6
ENCODING 7846
SWIDTH 585 0
DWIDTH 13 0
BBX 13 21 0 0
BITMAP
6000
2000
3700
0D80
0CC0
0000
0780
0580
0D80
0CC0
08C0
18C0
1840
1860
3060
3FE0
3FF0
6030
6030
6018
C018
ENDCHAR
STARTCHAR 1EA7
ENCODING 7847
SWIDTH 585 0
DWIDTH 13 0
BBX 13 17 0 0
BITMAP
C000
6000
3F00
0D00
1980
0000
0F30
3FB0
3070
6070
6030
6030
6030
6070
3070
3FB8
0F38
ENDCHAR
STARTCHAR 1EA8
ENCODING 7848
SWIDTH 585 0
DWIDTH 13 0
BBX 13 24 0 0
BITMAP
0030
0078
0048
0078
0070
0740
0D80
08C0
0000
0780
0580
0D80
0CC0
08C0
18C0
1840
1860
3060
3FE0
3FF0
6030
6030
6018
C018
ENDCHAR
STARTCHAR 1EA9
ENCODING 7849
SWIDTH 585 0
DWIDTH 13 0
BBX 12 20 1 0
BITMAP
0040
00E0
01A0
01E0
01E0
1E80
1A00
3300
0000
1E60
7F60
60E0
C0E0
C060
C060
C060
C0E0
60E0
7F70
1E70
ENDCHAR
STARTCHAR 1EAA
ENCODING 7850
SWIDTH 585 0
DWIDTH 13 0
BBX 13 22 0 0
BITMAP
0E40
1BE0
0980
0700
0D80
0CC0
0000
0780
0580
0D80
0CC0
08C0
18C0
1840
1860
3060
3FE0
3FF0
6030
6030
6018
C018
ENDCHAR
STARTCHAR 1EAB
ENCODING 7851
SWIDTH 585 0
DWIDTH 13 0
BBX 12 19 1 0
BITMAP
1900
7F80
2700
0000
1E00
1A00
3300
0000
1E60
7F60
60E0
C0E0
C060
C060
C060
C0E0
60E0
7F70
1E70
ENDCHAR
STARTCHAR 1EAC
ENCODING 7852
SWIDTH 585 0
DWIDTH 13 0
BBX 13 23 0 -4
BITMAP
0700
0D80
0CC0
0000
0780
0580
0D80
0CC0
08C0
18C0
1840
1860
3060
3FE0
3FF0
6030
6030
6018
C018
0000
0300
0700
0300
ENDCHAR
STARTCHAR 1EAD
ENCODING 7853
SWIDTH 585 0
DWIDTH 13 0
BBX 12 19 1 -4
BITMAP
1E00
1A00
3300
0000
1E60
7F60
60E0
C0E0
C060
C060
C060
C0E0
60E0
7F70
1E70
0000
0C00
0E00
0C00
ENDCHAR
STARTCHAR 1EAE
ENCODING 7854
SWIDTH 585 0
DWIDTH 13 0
BBX 13 22 0 0
BITMAP
0180
0100
0300
0D80
0780
0000
0000
0780
0580
0D80
0CC0
08C0
18C0
1840
1860
3060
3FE0
3FF0
6030
6030
6018
C018
ENDCHAR
STARTCHAR 1EAF
ENCODING 7855
SWIDTH 585 0
DWIDTH 13 0
BBX 12 18 1 0
BITMAP
0300
0600
0500
1A00
1E00
0000
0000
1E60
7F60
60E0
C0E0
C060
C060
C060
C0E0
60E0
7F70
1E70
ENDCHAR
STARTCHAR 1EB0
ENCODING 7856
SWIDTH 585 0
DWIDTH 13 0
BBX 13 22 0 0
BITMAP
0C00
0600
0200
0D80
0780
0000
0000
0780
0580
0D80
0CC0
08C0
18C0
1840
1860
3060
3FE0
3FF0
6030
6030
6018
C018
ENDCHAR
STARTCHAR 1EB1
ENCODING 7857
SWIDTH 585 0
DWIDTH 13 0
BBX 12 18 1 0
BITMAP
3800
1800
0D00
1A00
1E00
0000
0000
1E60
7F60
60E0
C0E0
C060
C060
C060
C0E0
60E0
7F70
1E70
ENDCHAR
STARTCHAR 1EB2
ENCODING 7858
SWIDTH 585 0
DWIDTH 13 0
BBX 13 24 0 0
BITMAP
0180
03C0
0240
0380
0200
0D80
0780
0000
0000
0780
0580
0D80
0CC0
08C0
18C0
1840
1860
3060
3FE0
3FF0
6030
6030
6018
C018
ENDCHAR
STARTCHAR 1EB3
ENCODING 7859
SWIDTH 585 0
DWIDTH 13 0
BBX 12 21 1 0
BITMAP
0200
0F00
0500
0F00
0A00
0400
1200
1E00
0000
0000
1E60
7F60
60E0
C0E0
C060
C060
C060
C0E0
60E0
7F70
1E70
ENDCHAR
STARTCHAR 1EB4
ENCODING 7860
SWIDTH 585 0
DWIDTH 13 0
BBX 13 22 0 0
BITMAP
0E40
1BE0
0980
0D80
0780
0000
0000
0780
0580
0D80
0CC0
08C0
18C0
1840
1860
3060
3FE0
3FF0
6030
6030
6018
C018
ENDCHAR
STARTCHAR 1EB5
ENCODING 7861
SWIDTH 585 0
DWIDTH 13 0
BBX 12 19 1 0
BITMAP
1900
7F80
2700
0100
1A00
1E00
0000
0000
1E60
7F60
60E0
C0E0
C060
C060
C060
C0E0
60E0
7F70
1E70
ENDCHAR
STARTCHAR 1EB6
ENCODING 7862
SWIDTH 585 0
DWIDTH 13 0
BBX 13 23 0 -4
BITMAP
0D80
0780
0000
0000
0780
0580
0D80
0CC0
08C0
18C0
1840
1860
3060
3FE0
3FF0
6030
6030
6018
C018
0000
0300
0700
0300
ENDCHAR
STARTCHAR 1EB7
ENCODING 7863
SWIDTH 585 0
DWIDTH 13 0
BBX 12 19 1 -4
BITMAP
1B00
1E00
0000
0000
1E60
7F60
60E0
C0E0
C060
C060
C060
C0E0
60E0
7F70
1E70
0000
0C00
0E00
0C00
ENDCHAR
STARTCHAR 1EB8
ENCODING 7864
SWIDTH 585 0
DWIDTH 13 0
BBX 10 19 2 -4
BITMAP
FF80
FF80
C000
C000
C000
C000
FF80
FF80
C000
C000
C000
C000
C000
FFC0
FFC0
0000
0C00
1C00
0C00
ENDCHAR
STARTCHAR 1EB9
ENCODING 7865
SWIDTH 585 0
DWIDTH 13 0
BBX 11 15 1 -4
BITMAP
1F00
3FC0
60C0
4060
FFE0
FFE0
4000
6040
60E0
3FC0
1F00
0000
0600
0E00
0600
ENDCHAR
STARTCHAR 1EBA
ENCODING 7866
SWIDTH 585 0
DWIDTH 13 0
BBX 10 21 2 0
BITMAP
0E00
1E00
0200
1E00
1C00
0000
FF80
FF80
C000
C000
C000
C000
FF80
FF80
C000
C000
C000
C000
C000
FFC0
FFC0
ENDCHAR
STARTCHAR 1EBB
ENCODING 7867
SWIDTH 585 0
DWIDTH 13 0
BBX 11 17 1 0
BITMAP
0700
0F00
0100
0F00
0600
0000
1F00
3FC0
60C0
4060
FFE0
FFE0
C000
4040
60E0
3FC0
1F00
ENDCHAR
STARTCHAR 1EBC
ENCODING 7868
SWIDTH 585 0
DWIDTH 13 0
BBX 10 20 2 0
BITMAP
1900
7F80
2700
0000
0000
FF80
FF80
C000
C000
C000
C000
FF80
FF80
C000
C000
C000
C000
C000
FFC0
FFC0
ENDCHAR
STARTCHAR 1EBD
ENCODING 7869
SWIDTH 585 0
DWIDTH 13 0
BBX 11 15 1 0
BITMAP
0E40
1BC0
1380
0000
1F00
3FC0
60C0
4060
FFE0
FFE0
4000
6040
60E0
3FC0
1F00
ENDCHAR
STARTCHAR 1EBE
ENCODING 7870
SWIDTH 585 0
DWIDTH 13 0
BBX 11 21 2 0
BITMAP
0060
00C0
1D80
1600
3300
0000
FF80
FF80
C000
C000
C000
C000
FF80
FF80
C000
C000
C000
C000
C000
FFC0
FFC0
ENDCHAR
STARTCHAR 1EBF
ENCODING 7871
SWIDTH 585 0
DWIDTH 13 0
BBX 12 17 1 0
BITMAP
0030
0060
0EC0
0B00
1980
0000
1F00
3FC0
60C0
4060
FFE0
FFE0
4000
6040
60E0
3FC0
1F00
ENDCHAR
STARTCHAR 1EC0
ENCODING 7872
SWIDTH 585 0
DWIDTH 13 0
BBX 11 21 1 0
BITMAP
C000
4000
6E00
0B00
1980
0000
7FC0
7FC0
6000
6000
6000
6000
7FC0
7FC0
6000
6000
6000
6000
6000
7FE0
7FE0
ENDCHAR
STARTCHAR 1EC1
ENCODING 7873
SWIDTH 585 0
DWIDTH 13 0
BBX 11 17 1 0
BITMAP
C000
4000
6E00
0B00
1980
0000
1F00
3FC0
60C0
4060
FFE0
FFE0
4000
6040
60E0
3FC0
1F00
ENDCHAR
STARTCHAR 1EC2
ENCODING 7874
SWIDTH 585 0
DWIDTH 13 0
BBX 11 24 2 0
BITMAP
00C0
01E0
0120
01E0
0160
1D80
3600
3300
0000
FF80
FF80
C000
C000
C000
C000
FF80
FF80
C000
C000
C000
C000
C000
FFC0
FFC0
ENDCHAR
STARTCHAR 1EC3
ENCODING 7875
SWIDTH 585 0
DWIDTH 13 0
BBX 12 20 1 0
BITMAP
0060
00F0
0090
00F0
00B0
0E80
1B00
1980
0000
1F00
3FC0
60C0
4060
FFE0
FFE0
C000
4040
60E0
3FC0
1F00
ENDCHAR
STARTCHAR 1EC4
ENCODING 7876
SWIDTH 585 0
DWIDTH 13 0
BBX 10 22 2 0
BITMAP
3900
6F80
2600
1C00
1600
3300
0000
FF80
FF80
C000
C000
C000
C000
FF80
FF80
C000
C000
C000
C000
C000
FFC0
FFC0
ENDCHAR
STARTCHAR 1EC5
ENCODING 7877
SWIDTH 585 0
DWIDTH 13 0
BBX 11 19 1 0
BITMAP
1C80
37C0
1300
0000
0E00
0B00
1980
0000
1F00
3FC0
60C0
4060
FFE0
FFE0
4000
6040
60E0
3FC0
1F00
ENDCHAR
STARTCHAR 1EC6
ENCODING 7878
SWIDTH 585 0
DWIDTH 13 0
BBX 10 23 2 -4
BITMAP
1C00
1600
3300
0000
FF80
FF80
C000
C000
C000
C000
FF80
FF80
C000
C000
C000
C000
C000
FFC0
FFC0
0000
0C00
1C00
0C00
ENDCHAR
STARTCHAR 1EC7
ENCODING 7879
SWIDTH 585 0
DWIDTH 13 0
BBX 11 19 1 -4
BITMAP
0E00
0B00
1980
0000
1F00
3FC0
60C0
4060
FFE0
FFE0
4000
6040
60E0
3FC0
1F00
0000
0600
0E00
0600
ENDCHAR
STARTCHAR 1EC8
ENCODING 7880
SWIDTH 585 0
DWIDTH 13 0
BBX 10 22 2 0
BITMAP
0E00
0F00
0900
0E00
0800
0000
0000
FFC0
FFC0
0C00
0C00
0C00
0C00
0C00
0C00
0C00
0C00
0C00
0C00
0C00
FFC0
FFC0
ENDCHAR
STARTCHAR 1EC9
ENCODING 7881
SWIDTH 585 0
DWIDTH 13 0
BBX 9 17 2 0
BITMAP
0600
0F00
0900
0F00
0A00
0000
7C00
7C00
0C00
0C00
0C00
0C00
0C00
0C00
0C00
FF80
FF80
ENDCHAR
STARTCHAR 1ECA
ENCODING 7882
SWIDTH 585 0
DWIDTH 13 0
BBX 10 19 2 -4
BITMAP
FFC0
FFC0
0C00
0C00
0C00
0C00
0C00
0C00
0C00
0C00
0C00
0C00
0C00
FFC0
FFC0
0000
0C00
1C00
0C00
ENDCHAR
STARTCHAR 1ECB
ENCODING 7883
SWIDTH 585 0
DWIDTH 13 0
BBX 9 19 2 -4
BITMAP
0C00
1C00
0C00
0000
7C00
7C00
0C00
0C00
0C00
0C00
0C00
0C00
0C00
FF80
FF80
0000
0C00
1C00
0C00
ENDCHAR
STARTCHAR 1ECC
ENCODING 7884
SWIDTH 585 0
DWIDTH 13 0
BBX 11 19 1 -4
BITMAP
1F00
3FC0
60C0
6060
C060
C060
C060
C060
C060
C060
C060
6060
60C0
3FC0
1F00
0000
0600
0E00
0600
ENDCHAR
STARTCHAR 1ECD
ENCODING 7885
SWIDTH 585 0
DWIDTH 13 0
BBX 11 15 1 -4
BITMAP
1F00
3FC0
60C0
4060
C060
C060
C060
4060
60C0
3FC0
1F00
0000
0600
0E00
0600
ENDCHAR
STARTCHAR 1ECE
ENCODING 7886
SWIDTH 585 0
DWIDTH 13 0
BBX 11 22 1 0
BITMAP
0200
0700
0480
0780
0700
0400
0000
1F00
3FC0
60C0
6060
C060
C060
C060
C060
C060
C060
C060
6060
60C0
3FC0
1F00
ENDCHAR
STARTCHAR 1ECF
ENCODING 7887
SWIDTH 585 0
DWIDTH 13 0
BBX 11 17 1 0
BITMAP
0700
0780
0080
0780
0500
0000
1F00
3FC0
60C0
4060
C060
C060
C060
4060
60C0
3FC0
1F00
ENDCHAR
STARTCHAR 1ED0
ENCODING 7888
SWIDTH 585 0
DWIDTH 13 0
BBX 12 21 1 0
BITMAP
0030
0060
0EC0
1B00
1980
0000
1F00
3FC0
60C0
6060
C060
C060
C060
C060
C060
C060
C060
6060
60C0
3FC0
1F00
ENDCHAR
STARTCHAR 1ED1
ENCODING 7889
SWIDTH 585 0
DWIDTH 13 0
BBX 12 17 1 0
BITMAP
0030
0060
0EC0
1B00
1980
0000
1F00
3FC0
60C0
4060
C060
C060
C060
4060
60C0
3FC0
1F00
ENDCHAR
STARTCHAR 1ED2
ENCODING 7890
SWIDTH 585 0
DWIDTH 13 0
BBX 11 21 1 0
BITMAP
C000
4000
6E00
1B00
1980
0000
1F00
3FC0
60C0
6060
C060
C060
C060
C060
C060
C060
C060
6060
60C0
3FC0
1F00
ENDCHAR
STARTCHAR 1ED3
ENCODING 7891
SWIDTH 585 0
DWIDTH 13 0
BBX 11 17 1 0
BITMAP
C000
4000
6E00
1B00
1980
0000
1F00
3FC0
60C0
4060
C060
C060
C060
4060
60C0
3FC0
1F00
ENDCHAR
STARTCHAR 1ED4
ENCODING 7892
SWIDTH 585 0
DWIDTH 13 0
BBX 12 24 1 0
BITMAP
0060
00F0
0090
00F0
0080
0E00
1B00
1980
0000
1F00
3FC0
60C0
6060
C060
C060
C060
C060
C060
C060
C060
6060
60C0
3FC0
1F00
ENDCHAR
STARTCHAR 1ED5
ENCODING 7893
SWIDTH 585 0
DWIDTH 13 0
BBX 12 20 1 0
BITMAP
0060
00F0
0090
00F0
00E0
0E80
1B00
1980
0000
1F00
3FC0
60C0
4060
C060
C060
C060
4060
60C0
3FC0
1F00
ENDCHAR
STARTCHAR 1ED6
ENCODING 7894
SWIDTH 585 0
DWIDTH 13 0
BBX 11 22 1 0
BITMAP
1C80
37C0
1300
0E00
1B00
1980
0000
1F00
3FC0
60C0
6060
C060
C060
C060
C060
C060
C060
C060
6060
60C0
3FC0
1F00
ENDCHAR
STARTCHAR 1ED7
ENCODING 7895
SWIDTH 585 0
DWIDTH 13 0
BBX 11 19 1 0
BITMAP
1C80
37C0
1300
0000
0E00
1B00
1980
0000
1F00
3FC0
60C0
4060
C060
C060
C060
4060
60C0
3FC0
1F00
ENDCHAR
STARTCHAR 1ED8
ENCODING 7896
SWIDTH 585 0
DWIDTH 13 0
BBX 11 23 1 -4
BITMAP
0E00
1B00
1980
0000
1F00
3FC0
60C0
6060
C060
C060
C060
C060
C060
C060
C060
6060
60C0
3FC0
1F00
0000
0600
0E00
0600
ENDCHAR
STARTCHAR 1ED9
ENCODING 7897
SWIDTH 585 0
DWIDTH 13 0
BBX 11 19 1 -4
BITMAP
0E00
1B00
1980
0000
1F00
3FC0
60C0
4060
C060
C060
C060
4060
60C0
3FC0
1F00
0000
0600
0E00
0600
ENDCHAR
STARTCHAR 1EDA
ENCODING 7898
SWIDTH 585 0
DWIDTH 13 0
BBX 12 19 1 0
BITMAP
0600
0C00
1800
0000
3E70
7F70
C370
C190
C1F0
C1E0
C180
C180
C180
C180
C180
C180
C300
7F00
3E00
ENDCHAR
STARTCHAR 1EDB
ENCODING 7899
SWIDTH 585 0
DWIDTH 13 0
BBX 12 15 1 0
BITMAP
0600
0400
0C00
0000
3E30
7F70
C1B0
C190
C1F0
C1E0
C180
C180
C180
7F00
3E00
ENDCHAR
STARTCHAR 1EDC
ENCODING 7900
SWIDTH 585 0
DWIDTH 13 0
BBX 12 19 1 0
BITMAP
3000
1000
1800
0000
3E70
7F70
C370
C190
C1F0
C1E0
C180
C180
C180
C180
C180
C180
C300
7F00
3E00
ENDCHAR
STARTCHAR 1EDD
ENCODING 7901
SWIDTH 585 0
DWIDTH 13 0
BBX 12 15 1 0
BITMAP
3000
1800
1800
0000
3E30
7F70
C1B0
C190
C1F0
C1E0
C180
C180
C180
7F00
3E00
ENDCHAR
STARTCHAR 1EDE
ENCODING 7902
SWIDTH 585 0
DWIDTH 13 0
BBX 12 22 1 0
BITMAP
0E00
1E00
0A00
1E00
1800
0000
0000
3E70
7F70
C370
C190
C1F0
C1E0
C180
C180
C180
C180
C180
C180
C300
7F00
3E00
ENDCHAR
STARTCHAR 1EDF
ENCODING 7903
SWIDTH 585 0
DWIDTH 13 0
BBX 12 17 1 0
BITMAP
0E00
1F00
0B00
1E00
0800
0000
3E30
7F70
C1B0
C190
C1F0
C1E0
C180
C180
C180
7F00
3E00
ENDCHAR
STARTCHAR 1EE0
ENCODING 7904
SWIDTH 585 0
DWIDTH 13 0
BBX 12 20 1 0
BITMAP
3900
7F00
4E00
0000
0000
3E70
7F70
C370
C190
C1F0
C1E0
C180
C180
C180
C180
C180
C180
C300
7F00
3E00
ENDCHAR
STARTCHAR 1EE1
ENCODING 7905
SWIDTH 585 0
DWIDTH 13 0
BBX 12 15 1 0
BITMAP
3900
6F00
4E00
0000
3E30
7F70
C1B0
C190
C1F0
C1E0
C180
C180
C180
7F00
3E00
ENDCHAR
STARTCHAR 1EE2
ENCODING 7906
SWIDTH 585 0
DWIDTH 13 0
BBX 12 19 1 -4
BITMAP
3E70
7F70
C370
C190
C1F0
C1E0
C180
C180
C180
C180
C180
C180
C300
7F00
3E00
0000
1800
1C00
1800
ENDCHAR
STARTCHAR 1EE3
ENCODING 7907
SWIDTH 585 0
DWIDTH 13 0
BBX 12 15 1 -4
BITMAP
3E30
7F70
C1B0
C190
C1F0
C1E0
C180
C180
C180
7F00
3E00
0000
1C00
1C00
1C00
ENDCHAR
STARTCHAR 1EE4
ENCODING 7908
SWIDTH 585 0
DWIDTH 13 0
BBX 11 19 1 -4
BITMAP
C060
C060
C060
C060
C060
C060
C060
C060
C060
C060
C060
6060
60C0
3FC0
1F00
0000
0600
0E00
0600
ENDCHAR
STARTCHAR 1EE5
ENCODING 7909
SWIDTH 585 0
DWIDTH 13 0
BBX 9 15 2 -4
BITMAP
C080
C080
C080
C080
C080
C080
C080
C180
C180
7E80
3C80
0000
1C00
1C00
1C00
ENDCHAR
STARTCHAR 1EE6
ENCODING 7910
SWIDTH 585 0
DWIDTH 13 0
BBX 11 22 1 0
BITMAP
0200
0700
0D80
0F80
0700
0400
0000
C060
C060
C060
C060
C060
C060
C060
C060
C060
C060
C060
6060
60C0
3FC0
1F00
ENDCHAR
STARTCHAR 1EE7
ENCODING 7911
SWIDTH 585 0
DWIDTH 13 0
BBX 9 17 2 0
BITMAP
0E00
1E00
0300
1E00
0C00
0000
C080
C080
C080
C080
C080
C080
C080
C180
C180
7E80
3C80
ENDCHAR
STARTCHAR 1EE8
ENCODING 7912
SWIDTH 585 0
DWIDTH 13 0
BBX 12 19 1 0
BITMAP
0600
0C00
1800
0000
C1B0
C1F0
C1B0
C190
C1F0
C1E0
C180
C180
C180
C180
C180
C180
C300
7F00
3E00
ENDCHAR
STARTCHAR 1EE9
ENCODING 7913
SWIDTH 585 0
DWIDTH 13 0
BBX 12 15 1 0
BITMAP
0E00
0C00
1800
0000
C130
C170
C130
C110
C1F0
C1E0
C100
C100
C300
FD00
3900
ENDCHAR
STARTCHAR 1EEA
ENCODING 7914
SWIDTH 585 0
DWIDTH 13 0
BBX 12 19 1 0
BITMAP
3000
3000
1800
0000
C1B0
C1F0
C1B0
C190
C1F0
C1E0
C180
C180
C180
C180
C180
C180
C300
7F00
3E00
ENDCHAR
STARTCHAR 1EEB
ENCODING 7915
SWIDTH 585 0
DWIDTH 13 0
BBX 12 15 1 0
BITMAP
7000
3000
1800
0000
C130
C170
C130
C110
C1F0
C1E0
C100
C100
C300
FD00
3900
ENDCHAR
STARTCHAR 1EEC
ENCODING 7916
SWIDTH 585 0
DWIDTH 13 0
BBX 12 22 1 0
BITMAP
0400
0E00
1200
1E00
1600
0800
0000
C1B0
C1F0
C1B0
C190
C1F0
C1E0
C180
C180
C180
C180
C180
C180
C300
7F00
3E00
ENDCHAR
STARTCHAR 1EED
ENCODING 7917
SWIDTH 585 0
DWIDTH 13 0
BBX 12 17 1 0
BITMAP
0C00
1E00
1200
1E00
1000
0000
C130
C170
C130
C110
C1F0
C1E0
C100
C100
C300
FD00
3900
ENDCHAR
STARTCHAR 1EEE
ENCODING 7918
SWIDTH 585 0
DWIDTH 13 0
BBX 12 20 1 0
BITMAP
3200
7F00
4E00
0000
0000
C1B0
C1F0
C1B0
C190
C1F0
C1E0
C180
C180
C180
C180
C180
C180
C300
7F00
3E00
ENDCHAR
STARTCHAR 1EEF
ENCODING 7919
SWIDTH 585 0
DWIDTH 13 0
BBX 12 15 1 0
BITMAP
3200
7F00
4E00
0000
C130
C170
C130
C110
C1F0
C1E0
C100
C100
C300
FD00
3900
ENDCHAR
STARTCHAR 1EF0
ENCODING 7920
SWIDTH 585 0
DWIDTH 13 0
BBX 12 19 1 -4
BITMAP
C1B0
C1F0
C1B0
C190
C1F0
C1E0
C180
C180
C180
C180
C180
C180
C300
7F00
3E00
0000
1800
1C00
1800
ENDCHAR
STARTCHAR 1EF1
ENCODING 7921
SWIDTH 585 0
DWIDTH 13 0
BBX 12 15 1 -4
BITMAP
C130
C170
C130
C110
C1F0
C1E0
C100
C100
C300
FD00
3900
0000
1800
3C00
1800
ENDCHAR
STARTCHAR 1EF2
ENCODING 7922
SWIDTH 585 0
DWIDTH 13 0
BBX 12 19 1 0
BITMAP
1800
0C00
0600
0000
C030
C060
6060
60C0
30C0
3180
1980
1B00
0F00
0E00
0600
0600
0600
0600
0600
ENDCHAR
STARTCHAR 1EF3
ENCODING 7923
SWIDTH 585 0
DWIDTH 13 0
BBX 10 19 2 -4
BITMAP
3000
1800
0C00
0000
C0C0
C0C0
C0C0
C0C0
C0C0
C0C0
C0C0
C1C0
C1C0
7EC0
3CC0
00C0
00C0
3FC0
3F80
ENDCHAR
STARTCHAR 1EF4
ENCODING 7924
SWIDTH 585 0
DWIDTH 13 0
BBX 12 19 1 -4
BITMAP
C030
C060
6060
60C0
30C0
3180
1980
1B00
0F00
0E00
0600
0600
0600
0600
0600
0000
0600
0E00
0600
ENDCHAR
STARTCHAR 1EF5
ENCODING 7925
SWIDTH 585 0
DWIDTH 13 0
BBX 10 15 2 -4
BITMAP
C0C0
C0C0
C0C0
C0C0
C0C0
C0C0
C0C0
C1C0
C1C0
7EC0
3CC0
00C0
E0C0
EF80
EF00
ENDCHAR
STARTCHAR 1EF6
ENCODING 7926
SWIDTH 585 0
DWIDTH 13 0
BBX 12 21 1 0
BITMAP
0700
0780
0080
0780
0500
0000
C030
C060
6060
60C0
30C0
3180
1980
1B00
0F00
0E00
0600
0600
0600
0600
0600
ENDCHAR
STARTCHAR 1EF7
ENCODING 7927
SWIDTH 585 0
DWIDTH 13 0
BBX 10 21 2 -4
BITMAP
0E00
0E00
1300
0E00
0C00
0000
C0C0
C0C0
C0C0
C0C0
C0C0
C0C0
C0C0
C1C0
C1C0
7EC0
3CC0
00C0
00C0
3FC0
3F80
ENDCHAR
STARTCHAR 1EF8
ENCODING 7928
SWIDTH 585 0
DWIDTH 13 0
BBX 12 20 1 0
BITMAP
1C80
37C0
1300
0000
0000
C030
C060
6060
60C0
30C0
3180
1980
1B00
0F00
0E00
0600
0600
0600
0600
0600
ENDCHAR
STARTCHAR 1EF9
ENCODING 7929
SWIDTH 585 0
DWIDTH 13 0
BBX 10 19 2 -4
BITMAP
3900
6F80
2600
0000
C0C0
C0C0
C0C0
C0C0
C0C0
C0C0
C0C0
C1C0
C1C0
7EC0
3CC0
00C0
00C0
3FC0
3F80
ENDCHAR
STARTCHAR 2013
ENCODING 8211
SWIDTH 585 0
DWIDTH 13 0
BBX 10 2 2 5
BITMAP
FFC0
FFC0
ENDCHAR
STARTCHAR 2014
ENCODING 8212
SWIDTH 585 0
DWIDTH 13 0
BBX 13 2 0 5
BITMAP
FFF8
FFF8
ENDCHAR
STARTCHAR 2018
ENCODING 8216
SWIDTH 585 0
DWIDTH 13 0
BBX 3 6 5 9
BITMAP
60
E0
80
E0
E0
60
ENDCHAR
STARTCHAR 2019
ENCODING 8217
SWIDTH 585 0
DWIDTH 13 0
BBX 3 6 5 9
BITMAP
60
E0
60
20
E0
C0
ENDCHAR
STARTCHAR 201A
ENCODING 8218
SWIDTH 585 0
DWIDTH 13 0
BBX 3 6 5 -3
BITMAP
60
E0
60
20
E0
C0
ENDCHAR
STARTCHAR 201C
ENCODING 8220
SWIDTH 585 0
DWIDTH 13 0
BBX 7 6 3 9
BITMAP
66
EE
88
EE
EE
66
ENDCHAR
STARTCHAR 201D
ENCODING 8221
SWIDTH 585 0
DWIDTH 13 0
BBX 7 6 3 9
BITMAP
66
EE
66
22
EE
CC
ENDCHAR
STARTCHAR 201E
ENCODING 8222
SWIDTH 585 0
DWIDTH 13 0
BBX 7 6 3 -3
BITMAP
66
EE
66
22
EE
CC
ENDCHAR
STARTCHAR 2020
ENCODING 8224
SWIDTH 585 0
DWIDTH 13 0
BBX 7 11 3 4
BITMAP
18
18
FE
FE
18
18
18
18
18
18
18
ENDCHAR
STARTCHAR 2021
ENCODING 8225
SWIDTH 585 0
DWIDTH 13 0
BBX 7 11 3 4
BITMAP
18
18
FE
FE
18
18
18
FE
FE
18
18
ENDCHAR
STARTCHAR 2022
ENCODING 8226
SWIDTH 585 0
DWIDTH 13 0
BBX 5 5 4 5
BITMAP
70
F8
F8
F8
70
ENDCHAR
STARTCHAR 2026
ENCODING 8230
SWIDTH 585 0
DWIDTH 13 0
BBX 11 3 1 0
BITMAP
66E0
EEE0
66E0
ENDCHAR
STARTCHAR 2030
ENCODING 8240
SWIDTH 585 0
DWIDTH 13 0
BBX 12 15 1 0
BITMAP
7800
FC00
8400
8400
C420
7CE0
3380
0E00
3A40
E7E0
84B0
04B0
04B0
07F0
0760
ENDCHAR
STARTCHAR 2032
ENCODING 8242
SWIDTH 585 0
DWIDTH 13 0
BBX 3 5 5 10
BITMAP
60
E0
60
40
C0
ENDCHAR
STARTCHAR 2033
ENCODING 8243
SWIDTH 585 0
DWIDTH 13 0
BBX 7 5 3 10
BITMAP
66
EE
66
44
CC
ENDCHAR
STARTCHAR 2039
ENCODING 8249
SWIDTH 585 0
DWIDTH 13 0
BBX 5 11 4 0
BITMAP
08
08
38
70
C0
80
C0
E0
38
18
08
ENDCHAR
STARTCHAR 203A
ENCODING 8250
SWIDTH 585 0
DWIDTH 13 0
BBX 5 11 4 0
BITMAP
80
C0
E0
38
18
08
18
38
70
C0
80
ENDCHAR
STARTCHAR 2044
ENCODING 8260
SWIDTH 585 0
DWIDTH 13 0
BBX 11 6 1 5
BITMAP
0020
00C0
0380
0E00
3800
E000
ENDCHAR
STARTCHAR 2070
ENCODING 8304
SWIDTH 585 0
DWIDTH 13 0
BBX 5 6 4 9
BITMAP
70
48
E8
C8
48
70
ENDCHAR
STARTCHAR 2071
ENCODING 8305
SWIDTH 585 0
DWIDTH 13 0
BBX 6 9 4 9
BITMAP
30
30
00
F0
30
30
30
30
FC
ENDCHAR
STARTCHAR 2074
ENCODING 8308
SWIDTH 585 0
DWIDTH 13 0
BBX 5 6 4 9
BITMAP
30
30
50
D0
F8
10
ENDCHAR
STARTCHAR 2075
ENCODING 8309
SWIDTH 585 0
DWIDTH 13 0
BBX 4 6 5 9
BITMAP
F0
80
F0
D0
90
F0
ENDCHAR
STARTCHAR 2076
ENCODING 8310
SWIDTH 585 0
DWIDTH 13 0
BBX 4 6 5 9
BITMAP
E0
90
E0
90
90
E0
ENDCHAR
STARTCHAR 2077
ENCODING 8311
SWIDTH 585 0
DWIDTH 13 0
BBX 4 6 5 9
BITMAP
F0
10
30
60
40
C0
ENDCHAR
STARTCHAR 2078
ENCODING 8312
SWIDTH 585 0
DWIDTH 13 0
BBX 4 6 5 9
BITMAP
E0
90
E0
90
90
E0
ENDCHAR
STARTCHAR 2079
ENCODING 8313
SWIDTH 585 0
DWIDTH 13 0
BBX 4 6 5 9
BITMAP
E0
90
90
F0
90
E0
ENDCHAR
STARTCHAR 207D
ENCODING 8317
SWIDTH 585 0
DWIDTH 13 0
BBX 4 11 5 7
BITMAP
30
C0
80
80
80
80
80
80
80
C0
70
ENDCHAR
STARTCHAR 207E
ENCODING 8318
SWIDTH 585 0
DWIDTH 13 0
BBX 4 11 5 7
BITMAP
C0
60
30
10
10
10
10
10
30
20
C0
ENDCHAR
STARTCHAR 207F
ENCODING 8319
SWIDTH 585 0
DWIDTH 13 0
BBX 6 6 4 9
BITMAP
B8
CC
8C
8C
8C
8C
ENDCHAR
STARTCHAR 2080
ENCODING 8320
SWIDTH 585 0
DWIDTH 13 0
BBX 5 6 4 -4
BITMAP
70
48
E8
C8
48
70
ENDCHAR
STARTCHAR 2081
ENCODING 8321
SWIDTH 585 0
DWIDTH 13 0
BBX 4 6 5 -4
BITMAP
E0
E0
E0
60
60
F0
ENDCHAR
STARTCHAR 2082
ENCODING 8322
SWIDTH 585 0
DWIDTH 13 0
BBX 5 6 4 -4
BITMAP
70
48
88
70
40
78
ENDCHAR
STARTCHAR 2083
ENCODING 8323
SWIDTH 585 0
DWIDTH 13 0
BBX 5 6 4 -4
BITMAP
78
18
30
88
48
70
ENDCHAR
STARTCHAR 2084
ENCODING 8324
SWIDTH 585 0
DWIDTH 13 0
BBX 5 6 4 -4
BITMAP
30
30
50
D0
F8
10
ENDCHAR
STARTCHAR 2085
ENCODING 8325
SWIDTH 585 0
DWIDTH 13 0
BBX 4 6 5 -4
BITMAP
F0
80
F0
D0
90
F0
ENDCHAR
STARTCHAR 2086
ENCODING 8326
SWIDTH 585 0
DWIDTH 13 0
BBX 4 6 5 -4
BITMAP
E0
90
E0
90
90
E0
ENDCHAR
STARTCHAR 2087
ENCODING 8327
SWIDTH 585 0
DWIDTH 13 0
BBX 4 6 5 -4
BITMAP
F0
10
30
60
40
C0
ENDCHAR
STARTCHAR 2088
ENCODING 8328
SWIDTH 585 0
DWIDTH 13 0
BBX 4 6 5 -4
BITMAP
E0
90
E0
90
90
E0
ENDCHAR
STARTCHAR 2089
ENCODING 8329
SWIDTH 585 0
DWIDTH 13 0
BBX 4 6 5 -4
BITMAP
E0
90
90
F0
90
E0
ENDCHAR
STARTCHAR 208D
ENCODING 8333
SWIDTH 585 0
DWIDTH 13 0
BBX 4 11 5 -7
BITMAP
30
C0
80
80
80
80
80
80
80
C0
70
ENDCHAR
STARTCHAR 208E
ENCODING 8334
SWIDTH 585 0
DWIDTH 13 0
BBX 4 11 5 -7
BITMAP
C0
60
30
10
10
10
10
10
30
20
C0
ENDCHAR
STARTCHAR 2094
ENCODING 8340
SWIDTH 585 0
DWIDTH 13 0
BBX 6 6 4 -4
BITMAP
78
88
FC
8C
C8
70
ENDCHAR
STARTCHAR 20A1
ENCODING 8353
SWIDTH 585 0
DWIDTH 13 0
BBX 11 14 1 1
BITMAP
0780
0580
1F80
7DC0
6D60
CF60
CB00
CB00
DA40
DA60
7EC0
3FC0
3F00
3400
ENDCHAR
STARTCHAR 20A4
ENCODING 8356
SWIDTH 585 0
DWIDTH 13 0
BBX 9 11 2 2
BITMAP
1E00
3F80
3180
2180
F800
F800
2000
F800
F800
FF80
FF80
ENDCHAR
STARTCHAR 20A6
ENCODING 8358
SWIDTH 585 0
DWIDTH 13 0
BBX 10 11 2 2
BITMAP
7900
7900
7900
7900
FFC0
FFC0
FFC0
FFC0
6D00
6500
6700
ENDCHAR
STARTCHAR 20A7
ENCODING 8359
SWIDTH 585 0
DWIDTH 13 0
BBX 10 11 2 3
BITMAP
7C00
7F00
6300
FFC0
FFC0
7F00
7E00
6000
6000
6000
6000
ENDCHAR
STARTCHAR 20AB
ENCODING 8363
SWIDTH 585 0
DWIDTH 13 0
BBX 9 13 2 0
BITMAP
0300
0F80
0F80
3F00
7F00
6300
C300
C300
6300
7F00
3F00
3F00
3F00
ENDCHAR
STARTCHAR 20AC
ENCODING 8364
SWIDTH 585 0
DWIDTH 13 0
BBX 12 12 1 2
BITMAP
0700
1FC0
38E0
7060
FC30
FC00
6000
FC00
FC30
3060
3FC0
0F80
ENDCHAR
STARTCHAR 20B1
ENCODING 8369
SWIDTH 585 0
DWIDTH 13 0
BBX 10 11 2 3
BITMAP
7C00
7F00
6300
FFC0
FFC0
FFC0
FFC0
6000
6000
6000
6000
ENDCHAR
STARTCHAR 20B2
ENCODING 8370
SWIDTH 585 0
DWIDTH 13 0
BBX 8 14 3 1
BITMAP
10
38
7E
D6
D2
91
90
9F
9F
D3
D7
7B
10
10
ENDCHAR
STARTCHAR 20B5
ENCODING 8373
SWIDTH 585 0
DWIDTH 13 0
BBX 8 14 3 1
BITMAP
18
18
7E
DE
DB
DB
D8
D8
D8
DB
DE
7E
38
18
ENDCHAR
STARTCHAR 20B9
ENCODING 8377
SWIDTH 585 0
DWIDTH 13 0
BBX 8 11 3 2
BITMAP
FF
0C
FF
FF
0C
F8
0C
0C
0C
0C
0C
ENDCHAR
STARTCHAR 2113
ENCODING 8467
SWIDTH 585 0
DWIDTH 13 0
BBX 9 16 2 0
BITMAP
0600
0F00
1980
1980
1880
1880
1980
1980
1B00
1E00
FC00
1800
1800
1800
1F80
0F80
ENDCHAR
STARTCHAR 2120
ENCODING 8480
SWIDTH 585 0
DWIDTH 13 0
BBX 11 7 1 9
BITMAP
2000
7B60
4B60
7360
0B60
CBA0
7BA0
ENDCHAR
STARTCHAR 2122
ENCODING 8482
SWIDTH 585 0
DWIDTH 13 0
BBX 11 6 1 9
BITMAP
FFE0
27A0
27A0
27A0
27A0
27A0
ENDCHAR
STARTCHAR 2126
ENCODING 8486
SWIDTH 585 0
DWIDTH 13 0
BBX 11 16 1 0
BITMAP
0E00
3F80
70C0
6060
4060
C060
C060
C060
C060
C060
C060
C060
6060
30C0
F9E0
F9E0
ENDCHAR
STARTCHAR 212E
ENCODING 8494
SWIDTH 585 0
DWIDTH 13 0
BBX 11 11 1 2
BITMAP
1F80
30C0
6060
4060
FFE0
FFE0
4000
4040
6060
39C0
1F80
ENDCHAR
STARTCHAR 2153
ENCODING 8531
SWIDTH 585 0
DWIDTH 13 0
BBX 11 15 1 0
BITMAP
6000
E000
A000
2000
2020
F8C0
0380
0E00
3800
E1E0
0060
00C0
0020
0120
00E0
ENDCHAR
STARTCHAR 2154
ENCODING 8532
SWIDTH 585 0
DWIDTH 13 0
BBX 11 15 1 0
BITMAP
7000
D800
1800
7000
C020
F8C0
0380
0E00
3800
E1E0
0060
00C0
0020
0120
00E0
ENDCHAR
STARTCHAR 215B
ENCODING 8539
SWIDTH 585 0
DWIDTH 13 0
BBX 11 15 1 0
BITMAP
6000
E000
A000
2000
2020
F8C0
0380
0E00
3800
E1E0
0120
00C0
0120
0120
01E0
ENDCHAR
STARTCHAR 215C
ENCODING 8540
SWIDTH 585 0
DWIDTH 13 0
BBX 11 15 1 0
BITMAP
F000
3000
2000
1800
9820
70C0
0380
0E00
3800
E1E0
0120
00C0
0120
0120
01E0
ENDCHAR
STARTCHAR 215D
ENCODING 8541
SWIDTH 585 0
DWIDTH 13 0
BBX 11 15 1 0
BITMAP
F000
C000
F000
C800
8820
70C0
0380
0E00
3800
E1E0
0120
00C0
0120
0120
01E0
ENDCHAR
STARTCHAR 215E
ENCODING 8542
SWIDTH 585 0
DWIDTH 13 0
BBX 11 15 1 0
BITMAP
7800
0800
1000
3000
6020
40C0
0380
0E00
3800
E1E0
0120
00C0
0120
0120
01E0
ENDCHAR
STARTCHAR 2190
ENCODING 8592
SWIDTH 585 0
DWIDTH 13 0
BBX 12 9 1 3
BITMAP
1000
3000
6000
8000
FFF0
C000
6000
3000
1000
ENDCHAR
STARTCHAR 2191
ENCODING 8593
SWIDTH 585 0
DWIDTH 13 0
BBX 9 12 2 2
BITMAP
0C00
1E00
3B00
ED80
4C80
0C00
0C00
0C00
0C00
0C00
0C00
0C00
ENDCHAR
STARTCHAR 2192
ENCODING 8594
SWIDTH 585 0
DWIDTH 13 0
BBX 12 9 1 3
BITMAP
0080
01C0
0060
0030
FFF0
0070
00E0
01C0
0080
ENDCHAR
STARTCHAR 2193
ENCODING 8595
SWIDTH 585 0
DWIDTH 13 0
BBX 9 12 2 2
BITMAP
0C00
0C00
0C00
0C00
0C00
0C00
0C00
0C00
CD80
6F80
3B00
1E00
ENDCHAR
STARTCHAR 2194
ENCODING 8596
SWIDTH 585 0
DWIDTH 13 0
BBX 12 9 1 3
BITMAP
1080
31C0
6060
8030
FFF0
C070
60E0
31C0
1080
ENDCHAR
STARTCHAR 2195
ENCODING 8597
SWIDTH 585 0
DWIDTH 13 0
BBX 9 12 2 2
BITMAP
0C00
1E00
3B00
ED80
4C80
0C00
0C00
0C00
CD80
6F80
3B00
1E00
ENDCHAR
STARTCHAR 2196
ENCODING 8598
SWIDTH 585 0
DWIDTH 13 0
BBX 9 10 2 3
BITMAP
7C00
FC00
E000
B000
9800
8C00
8600
0300
0180
0080
ENDCHAR
STARTCHAR 2197
ENCODING 8599
SWIDTH 585 0
DWIDTH 13 0
BBX 9 10 2 3
BITMAP
1F00
1F80
0380
0680
0C80
1880
3080
6000
C000
8000
ENDCHAR
STARTCHAR 2198
ENCODING 8600
SWIDTH 585 0
DWIDTH 13 0
BBX 9 10 2 3
BITMAP
8000
C000
6000
3000
1880
0C80
0680
0380
1D80
1F80
ENDCHAR
STARTCHAR 2199
ENCODING 8601
SWIDTH 585 0
DWIDTH 13 0
BBX 9 10 2 3
BITMAP
0080
0180
0300
0600
8C00
9800
B000
E000
DC00
7C00
ENDCHAR
STARTCHAR 2202
ENCODING 8706
SWIDTH 585 0
DWIDTH 13 0
BBX 11 16 1 0
BITMAP
1000
1E00
0700
0180
00C0
1F40
39E0
60E0
4060
C060
C060
C060
C060
60C0
39C0
1F80
ENDCHAR
STARTCHAR 2206
ENCODING 8710
SWIDTH 585 0
DWIDTH 13 0
BBX 13 15 0 0
BITMAP
0780
0D80
0D80
0CC0
08C0
18C0
1860
1860
3060
3020
3030
6030
6030
7FF8
FFF8
ENDCHAR
STARTCHAR 220F
ENCODING 8719
SWIDTH 585 0
DWIDTH 13 0
BBX 10 15 2 0
BITMAP
FFC0
80C0
80C0
80C0
80C0
80C0
80C0
80C0
80C0
80C0
80C0
80C0
80C0
80C0
80C0
ENDCHAR
STARTCHAR 2211
ENCODING 8721
SWIDTH 585 0
DWIDTH 13 0
BBX 10 15 2 0
BITMAP
FFC0
8000
C000
6000
3000
1C00
0E00
0600
0C00
1800
7000
E000
C000
FFC0
FFC0
ENDCHAR
STARTCHAR 2212
ENCODING 8722
SWIDTH 585 0
DWIDTH 13 0
BBX 9 1 2 7
BITMAP
FF80
ENDCHAR
STARTCHAR 2215
ENCODING 8725
SWIDTH 585 0
DWIDTH 13 0
BBX 11 20 1 -2
BITMAP
0040
0060
0040
00C0
0080
0180
0100
0300
0200
0600
0600
0C00
0C00
1800
1800
3000
3000
6000
6000
C000
ENDCHAR
STARTCHAR 2219
ENCODING 8729
SWIDTH 585 0
DWIDTH 13 0
BBX 4 4 5 6
BITMAP
60
F0
F0
E0
ENDCHAR
STARTCHAR 221A
ENCODING 8730
SWIDTH 585 0
DWIDTH 13 0
BBX 12 19 1 0
BITMAP
0030
0020
0060
0060
0060
0040
00C0
00C0
00C0
0080
0180
F180
3180
3100
1300
1B00
1B00
1B00
0E00
ENDCHAR
STARTCHAR 221E
ENCODING 8734
SWIDTH 585 0
DWIDTH 13 0
BBX 11 6 1 5
BITMAP
39C0
7FE0
C620
C620
CE60
7BC0
ENDCHAR
STARTCHAR 222B
ENCODING 8747
SWIDTH 585 0
DWIDTH 13 0
BBX 7 19 3 -4
BITMAP
1E
18
18
18
18
18
18
18
18
18
18
18
18
18
18
18
18
18
F0
ENDCHAR
STARTCHAR 2248
ENCODING 8776
SWIDTH 585 0
DWIDTH 13 0
BBX 10 7 2 4
BITMAP
3880
69C0
CF00
0600
3880
69C0
CF00
ENDCHAR
STARTCHAR 2260
ENCODING 8800
SWIDTH 585 0
DWIDTH 13 0
BBX 9 9 2 3
BITMAP
0600
0400
FF80
FF80
0C00
FF80
FF80
1800
3000
ENDCHAR
STARTCHAR 2264
ENCODING 8804
SWIDTH 585 0
DWIDTH 13 0
BBX 9 13 2 0
BITMAP
0080
0380
1F80
7C00
E000
8000
F000
3E00
0780
0180
0000
FF80
FF80
ENDCHAR
STARTCHAR 2265
ENCODING 8805
SWIDTH 585 0
DWIDTH 13 0
BBX 9 13 2 0
BITMAP
8000
E000
7C00
0F80
0180
0080
0380
1F00
F800
C000
0000
FF80
FF80
ENDCHAR
STARTCHAR 23FB
ENCODING 9211
SWIDTH 585 0
DWIDTH 13 0
BBX 13 15 0 1
BITMAP
0300
0300
0300
0300
7330
7338
E318
C318
C318
C318
E018
6038
7870
3FE0
1FC0
ENDCHAR
STARTCHAR 23FC
ENCODING 9212
SWIDTH 585 0
DWIDTH 13 0
BBX 13 13 0 2
BITMAP
0FC0
3FE0
78F0
7238
E318
C318
C318
C318
E318
6338
7870
3FE0
1FC0
ENDCHAR
STARTCHAR 23FD
ENCODING 9213
SWIDTH 585 0
DWIDTH 13 0
BBX 6 33 4 -8
BITMAP
30
78
F8
FC
FC
FC
FC
FC
FC
FC
FC
FC
FC
FC
FC
FC
FC
FC
FC
FC
FC
FC
FC
FC
FC
FC
FC
FC
FC
FC
F8
F8
70
ENDCHAR
STARTCHAR 23FE
ENCODING 9214
SWIDTH 585 0
DWIDTH 13 0
BBX 13 19 0 -1
BITMAP
0400
0800
1800
3800
7000
7000
F000
F000
F000
F800
F800
F800
7C00
7E00
3E00
3F00
1FC0
07F0
01F8
ENDCHAR
STARTCHAR 2500
ENCODING 9472
SWIDTH 585 0
DWIDTH 13 0
BBX 14 2 0 7
BITMAP
FFFC
FFFC
ENDCHAR
STARTCHAR 2501
ENCODING 9473
SWIDTH 585 0
DWIDTH 13 0
BBX 14 5 0 6
BITMAP
FFFC
FFFC
FFFC
FFFC
FFFC
ENDCHAR
STARTCHAR 2502
ENCODING 9474
SWIDTH 585 0
DWIDTH 13 0
BBX 2 33 6 -8
BITMAP
C0
C0
C0
C0
C0
C0
C0
C0
C0
C0
C0
C0
C0
C0
C0
C0
C0
C0
C0
C0
C0
C0
C0
C0
C0
C0
C0
C0
C0
C0
C0
C0
C0
ENDCHAR
STARTCHAR 2503
ENCODING 9475
SWIDTH 585 0
DWIDTH 13 0
BBX 3 33 5 -8
BITMAP
E0
E0
E0
E0
E0
E0
E0
E0
E0
E0
E0
E0
E0
E0
E0
E0
E0
E0
E0
E0
E0
E0
E0
E0
E0
E0
E0
E0
E0
E0
E0
E0
E0
ENDCHAR
STARTCHAR 2504
ENCODING 9476
SWIDTH 585 0
DWIDTH 13 0
BBX 12 2 1 7
BITMAP
EE70
EE70
ENDCHAR
STARTCHAR 2505
ENCODING 9477
SWIDTH 585 0
DWIDTH 13 0
BBX 12 5 1 6
BITMAP
EE70
EE70
EE70
EE70
EE70
ENDCHAR
STARTCHAR 2506
ENCODING 9478
SWIDTH 585 0
DWIDTH 13 0
BBX 2 29 6 -6
BITMAP
C0
C0
C0
C0
C0
C0
C0
C0
00
00
00
C0
C0
C0
C0
C0
C0
C0
C0
00
00
C0
C0
C0
C0
C0
C0
C0
C0
ENDCHAR
STARTCHAR 2507
ENCODING 9479
SWIDTH 585 0
DWIDTH 13 0
BBX 3 29 5 -6
BITMAP
E0
E0
E0
E0
E0
E0
E0
E0
00
00
00
E0
E0
E0
E0
E0
E0
E0
E0
00
00
E0
E0
E0
E0
E0
E0
E0
E0
ENDCHAR
STARTCHAR 2508
ENCODING 9480
SWIDTH 585 0
DWIDTH 13 0
BBX 12 2 1 7
BITMAP
DB30
DB30
ENDCHAR
STARTCHAR 2509
ENCODING 9481
SWIDTH 585 0
DWIDTH 13 0
BBX 12 5 1 6
BITMAP
DB30
DB30
DB30
DB30
DB30
ENDCHAR
STARTCHAR 250A
ENCODING 9482
SWIDTH 585 0
DWIDTH 13 0
BBX 2 29 6 -6
BITMAP
C0
C0
C0
C0
C0
C0
00
00
C0
C0
C0
C0
C0
C0
00
00
C0
C0
C0
C0
C0
00
00
00
C0
C0
C0
C0
C0
ENDCHAR
STARTCHAR 250B
ENCODING 9483
SWIDTH 585 0
DWIDTH 13 0
BBX 3 29 5 -6
BITMAP
E0
E0
E0
E0
E0
E0
00
00
E0
E0
E0
E0
E0
E0
00
00
E0
E0
E0
E0
E0
00
00
00
E0
E0
E0
E0
E0
ENDCHAR
STARTCHAR 250C
ENCODING 9484
SWIDTH 585 0
DWIDTH 13 0
BBX 8 17 6 -8
BITMAP
FF
FF
C0
C0
C0
C0
C0
C0
C0
C0
C0
C0
C0
C0
C0
C0
C0
ENDCHAR
STARTCHAR 250D
ENCODING 9485
SWIDTH 585 0
DWIDTH 13 0
BBX 8 19 6 -8
BITMAP
FF
FF
FF
FF
FF
C0
C0
C0
C0
C0
C0
C0
C0
C0
C0
C0
C0
C0
C0
ENDCHAR
STARTCHAR 250E
ENCODING 9486
SWIDTH 585 0
DWIDTH 13 0
BBX 9 17 5 -8
BITMAP
FF80
FF80
E000
E000
E000
E000
E000
E000
E000
E000
E000
E000
E000
E000
E000
E000
E000
ENDCHAR
STARTCHAR 250F
ENCODING 9487
SWIDTH 585 0
DWIDTH 13 0
BBX 9 19 5 -8
BITMAP
FF80
FF80
FF80
FF80
FF80
E000
E000
E000
E000
E000
E000
E000
E000
E000
E000
E000
E000
E000
E000
ENDCHAR
STARTCHAR 2510
ENCODING 9488
SWIDTH 585 0
DWIDTH 13 0
BBX 8 17 0 -8
BITMAP
FF
FF
03
03
03
03
03
03
03
03
03
03
03
03
03
03
03
ENDCHAR
STARTCHAR 2511
ENCODING 9489
SWIDTH 585 0
DWIDTH 13 0
BBX 8 19 0 -8
BITMAP
FF
FF
FF
FF
FF
03
03
03
03
03
03
03
03
03
03
03
03
03
03
ENDCHAR
STARTCHAR 2512
ENCODING 9490
SWIDTH 585 0
DWIDTH 13 0
BBX 8 17 0 -8
BITMAP
FF
FF
07
07
07
07
07
07
07
07
07
07
07
07
07
07
07
ENDCHAR
STARTCHAR 2513
ENCODING 9491
SWIDTH 585 0
DWIDTH 13 0
BBX 8 19 0 -8
BITMAP
FF
FF
FF
FF
FF
07
07
07
07
07
07
07
07
07
07
07
07
07
07
ENDCHAR
STARTCHAR 2514
ENCODING 9492
SWIDTH 585 0
DWIDTH 13 0
BBX 8 18 6 7
BITMAP
C0
C0
C0
C0
C0
C0
C0
C0
C0
C0
C0
C0
C0
C0
C0
C0
FF
FF
ENDCHAR
STARTCHAR 2515
ENCODING 9493
SWIDTH 585 0
DWIDTH 13 0
BBX 8 19 6 6
BITMAP
C0
C0
C0
C0
C0
C0
C0
C0
C0
C0
C0
C0
C0
C0
FF
FF
FF
FF
FF
ENDCHAR
STARTCHAR 2516
ENCODING 9494
SWIDTH 585 0
DWIDTH 13 0
BBX 9 18 5 7
BITMAP
E000
E000
E000
E000
E000
E000
E000
E000
E000
E000
E000
E000
E000
E000
E000
E000
FF80
FF80
ENDCHAR
STARTCHAR 2517
ENCODING 9495
SWIDTH 585 0
DWIDTH 13 0
BBX 9 19 5 6
BITMAP
E000
E000
E000
E000
E000
E000
E000
E000
E000
E000
E000
E000
E000
E000
FF80
FF80
FF80
FF80
FF80
ENDCHAR
STARTCHAR 2518
ENCODING 9496
SWIDTH 585 0
DWIDTH 13 0
BBX 8 18 0 7
BITMAP
03
03
03
03
03
03
03
03
03
03
03
03
03
03
03
03
FF
FF
ENDCHAR
STARTCHAR 2519
ENCODING 9497
SWIDTH 585 0
DWIDTH 13 0
BBX 8 19 0 6
BITMAP
03
03
03
03
03
03
03
03
03
03
03
03
03
03
FF
FF
FF
FF
FF
ENDCHAR
STARTCHAR 251A
ENCODING 9498
SWIDTH 585 0
DWIDTH 13 0
BBX 8 18 0 7
BITMAP
07
07
07
07
07
07
07
07
07
07
07
07
07
07
07
07
FF
FF
ENDCHAR
STARTCHAR 251B
ENCODING 9499
SWIDTH 585 0
DWIDTH 13 0
BBX 8 19 0 6
BITMAP
07
07
07
07
07
07
07
07
07
07
07
07
07
07
FF
FF
FF
FF
FF
ENDCHAR
STARTCHAR 251C
ENCODING 9500
SWIDTH 585 0
DWIDTH 13 0
BBX 8 33 6 -8
BITMAP
C0
C0
C0
C0
C0
C0
C0
C0
C0
C0
C0
C0
C0
C0
C0
C0
FF
FF
C0
C0
C0
C0
C0
C0
C0
C0
C0
C0
C0
C0
C0
C0
C0
ENDCHAR
STARTCHAR 251D
ENCODING 9501
SWIDTH 585 0
DWIDTH 13 0
BBX 8 33 6 -8
BITMAP
C0
C0
C0
C0
C0
C0
C0
C0
C0
C0
C0
C0
C0
C0
FF
FF
FF
FF
FF
C0
C0
C0
C0
C0
C0
C0
C0
C0
C0
C0
C0
C0
C0
ENDCHAR
STARTCHAR 251E
ENCODING 9502
SWIDTH 585 0
DWIDTH 13 0
BBX 9 33 5 -8
BITMAP
E000
E000
E000
E000
E000
E000
E000
E000
E000
E000
E000
E000
E000
E000
E000
E000
FF80
FF80
6000
6000
6000
6000
6000
6000
6000
6000
6000
6000
6000
6000
6000
6000
6000
ENDCHAR
STARTCHAR 251F
ENCODING 9503
SWIDTH 585 0
DWIDTH 13 0
BBX 9 33 5 -8
BITMAP
6000
6000
6000
6000
6000
6000
6000
6000
6000
6000
6000
6000
6000
6000
6000
6000
FF80
FF80
E000
E000
E000
E000
E000
E000
E000
E000
E000
E000
E000
E000
E000
E000
E000
ENDCHAR
STARTCHAR 2520
ENCODING 9504
SWIDTH 585 0
DWIDTH 13 0
BBX 9 33 5 -8
BITMAP
E000
E000
E000
E000
E000
E000
E000
E000
E000
E000
E000
E000
E000
E000
E000
E000
FF80
FF80
E000
E000
E000
E000
E000
E000
E000
E000
E000
E000
E000
E000
E000
E000
E000
ENDCHAR
STARTCHAR 2521
ENCODING 9505
SWIDTH 585 0
DWIDTH 13 0
BBX 9 33 5 -8
BITMAP
E000
E000
E000
E000
E000
E000
E000
E000
E000
E000
E000
E000
E000
E000
FF80
FF80
FF80
FF80
FF80
6000
6000
6000
6000
6000
6000
6000
6000
6000
6000
6000
6000
6000
6000
ENDCHAR
STARTCHAR 2522
ENCODING 9506
SWIDTH 585 0
DWIDTH 13 0
BBX 9 33 5 -8
BITMAP
6000
6000
6000
6000
6000
6000
6000
6000
6000
6000
6000
6000
6000
6000
FF80
FF80
FF80
FF80
FF80
E000
E000
E000
E000
E000
E000
E000
E000
E000
E000
E000
E000
E000
E000
ENDCHAR
STARTCHAR 2523
ENCODING 9507
SWIDTH 585 0
DWIDTH 13 0
BBX 9 33 5 -8
BITMAP
E000
E000
E000
E000
E000
E000
E000
E000
E000
E000
E000
E000
E000
E000
FF80
FF80
FF80
FF80
FF80
E000
E000
E000
E000
E000
E000
E000
E000
E000
E000
E000
E000
E000
E000
ENDCHAR
STARTCHAR 2524
ENCODING 9508
SWIDTH 585 0
DWIDTH 13 0
BBX 8 33 0 -8
BITMAP
03
03
03
03
03
03
03
03
03
03
03
03
03
03
03
03
FF
FF
03
03
03
03
03
03
03
03
03
03
03
03
03
03
03
ENDCHAR
STARTCHAR 2525
ENCODING 9509
SWIDTH 585 0
DWIDTH 13 0
BBX 8 33 0 -8
BITMAP
03
03
03
03
03
03
03
03
03
03
03
03
03
03
FF
FF
FF
FF
FF
03
03
03
03
03
03
03
03
03
03
03
03
03
03
ENDCHAR
STARTCHAR 2526
ENCODING 9510
SWIDTH 585 0
DWIDTH 13 0
BBX 8 33 0 -8
BITMAP
07
07
07
07
07
07
07
07
07
07
07
07
07
07
07
07
FF
FF
03
03
03
03
03
03
03
03
03
03
03
03
03
03
03
ENDCHAR
STARTCHAR 2527
ENCODING 9511
SWIDTH 585 0
DWIDTH 13 0
BBX 8 33 0 -8
BITMAP
03
03
03
03
03
03
03
03
03
03
03
03
03
03
03
03
FF
FF
07
07
07
07
07
07
07
07
07
07
07
07
07
07
07
ENDCHAR
STARTCHAR 2528
ENCODING 9512
SWIDTH 585 0
DWIDTH 13 0
BBX 8 33 0 -8
BITMAP
07
07
07
07
07
07
07
07
07
07
07
07
07
07
07
07
FF
FF
07
07
07
07
07
07
07
07
07
07
07
07
07
07
07
ENDCHAR
STARTCHAR 2529
ENCODING 9513
SWIDTH 585 0
DWIDTH 13 0
BBX 8 33 0 -8
BITMAP
07
07
07
07
07
07
07
07
07
07
07
07
07
07
FF
FF
FF
FF
FF
03
03
03
03
03
03
03
03
03
03
03
03
03
03
ENDCHAR
STARTCHAR 252A
ENCODING 9514
SWIDTH 585 0
DWIDTH 13 0
BBX 8 33 0 -8
BITMAP
03
03
03
03
03
03
03
03
03
03
03
03
03
03
FF
FF
FF
FF
FF
07
07
07
07
07
07
07
07
07
07
07
07
07
07
ENDCHAR
STARTCHAR 252B
ENCODING 9515
SWIDTH 585 0
DWIDTH 13 0
BBX 8 33 0 -8
BITMAP
07
07
07
07
07
07
07
07
07
07
07
07
07
07
FF
FF
FF
FF
FF
07
07
07
07
07
07
07
07
07
07
07
07
07
07
ENDCHAR
STARTCHAR 252C
ENCODING 9516
SWIDTH 585 0
DWIDTH 13 0
BBX 14 17 0 -8
BITMAP
FFFC
FFFC
0300
0300
0300
0300
0300
0300
0300
0300
0300
0300
0300
0300
0300
0300
0300
ENDCHAR
STARTCHAR 252D
ENCODING 9517
SWIDTH 585 0
DWIDTH 13 0
BBX 14 19 0 -8
BITMAP
FF00
FF00
FFFC
FFFC
FF00
0300
0300
0300
0300
0300
0300
0300
0300
0300
0300
0300
0300
0300
0300
ENDCHAR
STARTCHAR 252E
ENCODING 9518
SWIDTH 585 0
DWIDTH 13 0
BBX 14 19 0 -8
BITMAP
03FC
03FC
FFFC
FFFC
03FC
0300
0300
0300
0300
0300
0300
0300
0300
0300
0300
0300
0300
0300
0300
ENDCHAR
STARTCHAR 252F
ENCODING 9519
SWIDTH 585 0
DWIDTH 13 0
BBX 14 19 0 -8
BITMAP
FFFC
FFFC
FFFC
FFFC
FFFC
0300
0300
0300
0300
0300
0300
0300
0300
0300
0300
0300
0300
0300
0300
ENDCHAR
STARTCHAR 2530
ENCODING 9520
SWIDTH 585 0
DWIDTH 13 0
BBX 14 17 0 -8
BITMAP
FFFC
FFFC
0700
0700
0700
0700
0700
0700
0700
0700
0700
0700
0700
0700
0700
0700
0700
ENDCHAR
STARTCHAR 2531
ENCODING 9521
SWIDTH 585 0
DWIDTH 13 0
BBX 14 19 0 -8
BITMAP
FF00
FF00
FFFC
FFFC
FF00
0700
0700
0700
0700
0700
0700
0700
0700
0700
0700
0700
0700
0700
0700
ENDCHAR
STARTCHAR 2532
ENCODING 9522
SWIDTH 585 0
DWIDTH 13 0
BBX 14 19 0 -8
BITMAP
07FC
07FC
FFFC
FFFC
07FC
0700
0700
0700
0700
0700
0700
0700
0700
0700
0700
0700
0700
0700
0700
ENDCHAR
STARTCHAR 2533
ENCODING 9523
SWIDTH 585 0
DWIDTH 13 0
BBX 14 19 0 -8
BITMAP
FFFC
FFFC
FFFC
FFFC
FFFC
0700
0700
0700
0700
0700
0700
0700
0700
0700
0700
0700
0700
0700
0700
ENDCHAR
STARTCHAR 2534
ENCODING 9524
SWIDTH 585 0
DWIDTH 13 0
BBX 14 18 0 7
BITMAP
0300
0300
0300
0300
0300
0300
0300
0300
0300
0300
0300
0300
0300
0300
0300
0300
FFFC
FFFC
ENDCHAR
STARTCHAR 2535
ENCODING 9525
SWIDTH 585 0
DWIDTH 13 0
BBX 14 19 0 6
BITMAP
0300
0300
0300
0300
0300
0300
0300
0300
0300
0300
0300
0300
0300
0300
FF00
FF00
FFFC
FFFC
FF00
ENDCHAR
STARTCHAR 2536
ENCODING 9526
SWIDTH 585 0
DWIDTH 13 0
BBX 14 19 0 6
BITMAP
0300
0300
0300
0300
0300
0300
0300
0300
0300
0300
0300
0300
0300
0300
03FC
03FC
FFFC
FFFC
03FC
ENDCHAR
STARTCHAR 2537
ENCODING 9527
SWIDTH 585 0
DWIDTH 13 0
BBX 14 19 0 6
BITMAP
0300
0300
0300
0300
0300
0300
0300
0300
0300
0300
0300
0300
0300
0300
FFFC
FFFC
FFFC
FFFC
FFFC
ENDCHAR
STARTCHAR 2538
ENCODING 9528
SWIDTH 585 0
DWIDTH 13 0
BBX 14 18 0 7
BITMAP
0700
0700
0700
0700
0700
0700
0700
0700
0700
0700
0700
0700
0700
0700
0700
0700
FFFC
FFFC
ENDCHAR
STARTCHAR 2539
ENCODING 9529
SWIDTH 585 0
DWIDTH 13 0
BBX 14 19 0 6
BITMAP
0700
0700
0700
0700
0700
0700
0700
0700
0700
0700
0700
0700
0700
0700
FF00
FF00
FFFC
FFFC
FF00
ENDCHAR
STARTCHAR 253A
ENCODING 9530
SWIDTH 585 0
DWIDTH 13 0
BBX 14 19 0 6
BITMAP
0700
0700
0700
0700
0700
0700
0700
0700
0700
0700
0700
0700
0700
0700
07FC
07FC
FFFC
FFFC
07FC
ENDCHAR
STARTCHAR 253B
ENCODING 9531
SWIDTH 585 0
DWIDTH 13 0
BBX 14 19 0 6
BITMAP
0700
0700
0700
0700
0700
0700
0700
0700
0700
0700
0700
0700
0700
0700
FFFC
FFFC
FFFC
FFFC
FFFC
ENDCHAR
STARTCHAR 253C
ENCODING 9532
SWIDTH 585 0
DWIDTH 13 0
BBX 14 33 0 -8
BITMAP
0300
0300
0300
0300
0300
0300
0300
0300
0300
0300
0300
0300
0300
0300
0300
0300
FFFC
FFFC
0300
0300
0300
0300
0300
0300
0300
0300
0300
0300
0300
0300
0300
0300
0300
ENDCHAR
STARTCHAR 253D
ENCODING 9533
SWIDTH 585 0
DWIDTH 13 0
BBX 14 33 0 -8
BITMAP
0300
0300
0300
0300
0300
0300
0300
0300
0300
0300
0300
0300
0300
0300
FF00
FF00
FFFC
FFFC
FF00
0300
0300
0300
0300
0300
0300
0300
0300
0300
0300
0300
0300
0300
0300
ENDCHAR
STARTCHAR 253E
ENCODING 9534
SWIDTH 585 0
DWIDTH 13 0
BBX 14 33 0 -8
BITMAP
0300
0300
0300
0300
0300
0300
0300
0300
0300
0300
0300
0300
0300
0300
03FC
03FC
FFFC
FFFC
03FC
0300
0300
0300
0300
0300
0300
0300
0300
0300
0300
0300
0300
0300
0300
ENDCHAR
STARTCHAR 253F
ENCODING 9535
SWIDTH 585 0
DWIDTH 13 0
BBX 14 33 0 -8
BITMAP
0300
0300
0300
0300
0300
0300
0300
0300
0300
0300
0300
0300
0300
0300
FFFC
FFFC
FFFC
FFFC
FFFC
0300
0300
0300
0300
0300
0300
0300
0300
0300
0300
0300
0300
0300
0300
ENDCHAR
STARTCHAR 2540
ENCODING 9536
SWIDTH 585 0
DWIDTH 13 0
BBX 14 33 0 -8
BITMAP
0700
0700
0700
0700
0700
0700
0700
0700
0700
0700
0700
0700
0700
0700
0700
0700
FFFC
FFFC
0300
0300
0300
0300
0300
0300
0300
0300
0300
0300
0300
0300
0300
0300
0300
ENDCHAR
STARTCHAR 2541
ENCODING 9537
SWIDTH 585 0
DWIDTH 13 0
BBX 14 33 0 -8
BITMAP
0300
0300
0300
0300
0300
0300
0300
0300
0300
0300
0300
0300
0300
0300
0300
0300
FFFC
FFFC
0700
0700
0700
0700
0700
0700
0700
0700
0700
0700
0700
0700
0700
0700
0700
ENDCHAR
STARTCHAR 2542
ENCODING 9538
SWIDTH 585 0
DWIDTH 13 0
BBX 14 33 0 -8
BITMAP
0700
0700
0700
0700
0700
0700
0700
0700
0700
0700
0700
0700
0700
0700
0700
0700
FFFC
FFFC
0700
0700
0700
0700
0700
0700
0700
0700
0700
0700
0700
0700
0700
0700
0700
ENDCHAR
STARTCHAR 2543
ENCODING 9539
SWIDTH 585 0
DWIDTH 13 0
BBX 14 33 0 -8
BITMAP
0700
0700
0700
0700
0700
0700
0700
0700
0700
0700
0700
0700
0700
0700
FF00
FF00
FFFC
FFFC
FF00
0300
0300
0300
0300
0300
0300
0300
0300
0300
0300
0300
0300
0300
0300
ENDCHAR
STARTCHAR 2544
ENCODING 9540
SWIDTH 585 0
DWIDTH 13 0
BBX 14 33 0 -8
BITMAP
0700
0700
0700
0700
0700
0700
0700
0700
0700
0700
0700
0700
0700
0700
07FC
07FC
FFFC
FFFC
07FC
0300
0300
0300
0300
0300
0300
0300
0300
0300
0300
0300
0300
0300
0300
ENDCHAR
STARTCHAR 2545
ENCODING 9541
SWIDTH 585 0
DWIDTH 13 0
BBX 14 33 0 -8
BITMAP
0300
0300
0300
0300
0300
0300
0300
0300
0300
0300
0300
0300
0300
0300
FF00
FF00
FFFC
FFFC
FF00
0700
0700
0700
0700
0700
0700
0700
0700
0700
0700
0700
0700
0700
0700
ENDCHAR
STARTCHAR 2546
ENCODING 9542
SWIDTH 585 0
DWIDTH 13 0
BBX 14 33 0 -8
BITMAP
0300
0300
0300
0300
0300
0300
0300
0300
0300
0300
0300
0300
0300
0300
07FC
07FC
FFFC
FFFC
07FC
0700
0700
0700
0700
0700
0700
0700
0700
0700
0700
0700
0700
0700
0700
ENDCHAR
STARTCHAR 2547
ENCODING 9543
SWIDTH 585 0
DWIDTH 13 0
BBX 14 33 0 -8
BITMAP
0700
0700
0700
0700
0700
0700
0700
0700
0700
0700
0700
0700
0700
0700
FFFC
FFFC
FFFC
FFFC
FFFC
0300
0300
0300
0300
0300
0300
0300
0300
0300
0300
0300
0300
0300
0300
ENDCHAR
STARTCHAR 2548
ENCODING 9544
SWIDTH 585 0
DWIDTH 13 0
BBX 14 33 0 -8
BITMAP
0300
0300
0300
0300
0300
0300
0300
0300
0300
0300
0300
0300
0300
0300
FFFC
FFFC
FFFC
FFFC
FFFC
0700
0700
0700
0700
0700
0700
0700
0700
0700
0700
0700
0700
0700
0700
ENDCHAR
STARTCHAR 2549
ENCODING 9545
SWIDTH 585 0
DWIDTH 13 0
BBX 14 33 0 -8
BITMAP
0700
0700
0700
0700
0700
0700
0700
0700
0700
0700
0700
0700
0700
0700
FF00
FF00
FFFC
FFFC
FF00
0700
0700
0700
0700
0700
0700
0700
0700
0700
0700
0700
0700
0700
0700
ENDCHAR
STARTCHAR 254A
ENCODING 9546
SWIDTH 585 0
DWIDTH 13 0
BBX 14 33 0 -8
BITMAP
0700
0700
0700
0700
0700
0700
0700
0700
0700
0700
0700
0700
0700
0700
07FC
07FC
FFFC
FFFC
07FC
0700
0700
0700
0700
0700
0700
0700
0700
0700
0700
0700
0700
0700
0700
ENDCHAR
STARTCHAR 254B
ENCODING 9547
SWIDTH 585 0
DWIDTH 13 0
BBX 14 33 0 -8
BITMAP
0700
0700
0700
0700
0700
0700
0700
0700
0700
0700
0700
0700
0700
0700
FFFC
FFFC
FFFC
FFFC
FFFC
0700
0700
0700
0700
0700
0700
0700
0700
0700
0700
0700
0700
0700
0700
ENDCHAR
STARTCHAR 254C
ENCODING 9548
SWIDTH 585 0
DWIDTH 13 0
BBX 12 2 1 7
BITMAP
FBF0
FBF0
ENDCHAR
STARTCHAR 254D
ENCODING 9549
SWIDTH 585 0
DWIDTH 13 0
BBX 12 5 1 6
BITMAP
FBF0
FBF0
FBF0
FBF0
FBF0
ENDCHAR
STARTCHAR 254E
ENCODING 9550
SWIDTH 585 0
DWIDTH 13 0
BBX 2 27 6 -5
BITMAP
C0
C0
C0
C0
C0
C0
C0
C0
C0
C0
C0
00
00
00
00
00
C0
C0
C0
C0
C0
C0
C0
C0
C0
C0
C0
ENDCHAR
STARTCHAR 254F
ENCODING 9551
SWIDTH 585 0
DWIDTH 13 0
BBX 3 27 5 -5
BITMAP
E0
E0
E0
E0
E0
E0
E0
E0
E0
E0
E0
00
00
00
00
00
E0
E0
E0
E0
E0
E0
E0
E0
E0
E0
E0
ENDCHAR
STARTCHAR 2550
ENCODING 9552
SWIDTH 585 0
DWIDTH 13 0
BBX 14 7 0 5
BITMAP
FFFC
FFFC
FFFC
0000
0000
FFFC
FFFC
ENDCHAR
STARTCHAR 2551
ENCODING 9553
SWIDTH 585 0
DWIDTH 13 0
BBX 5 33 4 -8
BITMAP
C8
C8
C8
C8
C8
C8
C8
C8
C8
C8
C8
C8
C8
C8
C8
C8
C8
C8
C8
C8
C8
C8
C8
C8
C8
C8
C8
C8
C8
C8
C8
C8
C8
ENDCHAR
STARTCHAR 2552
ENCODING 9554
SWIDTH 585 0
DWIDTH 13 0
BBX 8 20 6 -8
BITMAP
FF
FF
FF
C0
C0
FF
FF
C0
C0
C0
C0
C0
C0
C0
C0
C0
C0
C0
C0
C0
ENDCHAR
STARTCHAR 2553
ENCODING 9555
SWIDTH 585 0
DWIDTH 13 0
BBX 10 17 4 -8
BITMAP
FFC0
FFC0
C800
C800
C800
C800
C800
C800
C800
C800
C800
C800
C800
C800
C800
C800
C800
ENDCHAR
STARTCHAR 2554
ENCODING 9556
SWIDTH 585 0
DWIDTH 13 0
BBX 10 20 4 -8
BITMAP
FFC0
FFC0
FFC0
C000
C000
CFC0
CFC0
C800
C800
C800
C800
C800
C800
C800
C800
C800
C800
C800
C800
C800
ENDCHAR
STARTCHAR 2555
ENCODING 9557
SWIDTH 585 0
DWIDTH 13 0
BBX 8 20 0 -8
BITMAP
FF
FF
FF
03
03
FF
FF
03
03
03
03
03
03
03
03
03
03
03
03
03
ENDCHAR
STARTCHAR 2556
ENCODING 9558
SWIDTH 585 0
DWIDTH 13 0
BBX 9 17 0 -8
BITMAP
FF80
FF80
0C80
0C80
0C80
0C80
0C80
0C80
0C80
0C80
0C80
0C80
0C80
0C80
0C80
0C80
0C80
ENDCHAR
STARTCHAR 2557
ENCODING 9559
SWIDTH 585 0
DWIDTH 13 0
BBX 9 20 0 -8
BITMAP
FF80
FF80
FF80
0080
0080
FC80
FC80
0C80
0C80
0C80
0C80
0C80
0C80
0C80
0C80
0C80
0C80
0C80
0C80
0C80
ENDCHAR
STARTCHAR 2558
ENCODING 9560
SWIDTH 585 0
DWIDTH 13 0
BBX 8 20 6 5
BITMAP
C0
C0
C0
C0
C0
C0
C0
C0
C0
C0
C0
C0
C0
FF
FF
FF
C0
C0
FF
FF
ENDCHAR
STARTCHAR 2559
ENCODING 9561
SWIDTH 585 0
DWIDTH 13 0
BBX 10 18 4 7
BITMAP
C800
C800
C800
C800
C800
C800
C800
C800
C800
C800
C800
C800
C800
C800
C800
C800
FFC0
FFC0
ENDCHAR
STARTCHAR 255A
ENCODING 9562
SWIDTH 585 0
DWIDTH 13 0
BBX 10 20 4 5
BITMAP
C800
C800
C800
C800
C800
C800
C800
C800
C800
C800
C800
C800
C800
CFC0
CFC0
CFC0
C000
C000
FFC0
FFC0
ENDCHAR
STARTCHAR 255B
ENCODING 9563
SWIDTH 585 0
DWIDTH 13 0
BBX 8 20 0 5
BITMAP
03
03
03
03
03
03
03
03
03
03
03
03
03
FF
FF
FF
03
03
FF
FF
ENDCHAR
STARTCHAR 255C
ENCODING 9564
SWIDTH 585 0
DWIDTH 13 0
BBX 9 18 0 7
BITMAP
0C80
0C80
0C80
0C80
0C80
0C80
0C80
0C80
0C80
0C80
0C80
0C80
0C80
0C80
0C80
0C80
FF80
FF80
ENDCHAR
STARTCHAR 255D
ENCODING 9565
SWIDTH 585 0
DWIDTH 13 0
BBX 9 20 0 5
BITMAP
0C80
0C80
0C80
0C80
0C80
0C80
0C80
0C80
0C80
0C80
0C80
0C80
0C80
FC80
FC80
FC80
0080
0080
FF80
FF80
ENDCHAR
STARTCHAR 255E
ENCODING 9566
SWIDTH 585 0
DWIDTH 13 0
BBX 8 33 6 -8
BITMAP
C0
C0
C0
C0
C0
C0
C0
C0
C0
C0
C0
C0
C0
FF
FF
FF
C0
C0
FF
FF
C0
C0
C0
C0
C0
C0
C0
C0
C0
C0
C0
C0
C0
ENDCHAR
STARTCHAR 255F
ENCODING 9567
SWIDTH 585 0
DWIDTH 13 0
BBX 10 33 4 -8
BITMAP
C800
C800
C800
C800
C800
C800
C800
C800
C800
C800
C800
C800
C800
C800
C800
C800
CFC0
CFC0
C800
C800
C800
C800
C800
C800
C800
C800
C800
C800
C800
C800
C800
C800
C800
ENDCHAR
STARTCHAR 2560
ENCODING 9568
SWIDTH 585 0
DWIDTH 13 0
BBX 10 33 4 -8
BITMAP
C800
C800
C800
C800
C800
C800
C800
C800
C800
C800
C800
C800
C800
CFC0
CFC0
CFC0
C000
C000
CFC0
CFC0
C800
C800
C800
C800
C800
C800
C800
C800
C800
C800
C800
C800
C800
ENDCHAR
STARTCHAR 2561
ENCODING 9569
SWIDTH 585 0
DWIDTH 13 0
BBX 8 33 0 -8
BITMAP
03
03
03
03
03
03
03
03
03
03
03
03
03
FF
FF
FF
03
03
FF
FF
03
03
03
03
03
03
03
03
03
03
03
03
03
ENDCHAR
STARTCHAR 2562
ENCODING 9570
SWIDTH 585 0
DWIDTH 13 0
BBX 9 33 0 -8
BITMAP
0C80
0C80
0C80
0C80
0C80
0C80
0C80
0C80
0C80
0C80
0C80
0C80
0C80
0C80
0C80
0C80
FC80
FC80
0C80
0C80
0C80
0C80
0C80
0C80
0C80
0C80
0C80
0C80
0C80
0C80
0C80
0C80
0C80
ENDCHAR
STARTCHAR 2563
ENCODING 9571
SWIDTH 585 0
DWIDTH 13 0
BBX 9 33 0 -8
BITMAP
0C80
0C80
0C80
0C80
0C80
0C80
0C80
0C80
0C80
0C80
0C80
0C80
0C80
FC80
FC80
FC80
0080
0080
FC80
FC80
0C80
0C80
0C80
0C80
0C80
0C80
0C80
0C80
0C80
0C80
0C80
0C80
0C80
ENDCHAR
STARTCHAR 2564
ENCODING 9572
SWIDTH 585 0
DWIDTH 13 0
BBX 14 20 0 -8
BITMAP
FFFC
FFFC
FFFC
0000
0000
FFFC
FFFC
0300
0300
0300
0300
0300
0300
0300
0300
0300
0300
0300
0300
0300
ENDCHAR
STARTCHAR 2565
ENCODING 9573
SWIDTH 585 0
DWIDTH 13 0
BBX 14 17 0 -8
BITMAP
FFFC
FFFC
0C80
0C80
0C80
0C80
0C80
0C80
0C80
0C80
0C80
0C80
0C80
0C80
0C80
0C80
0C80
ENDCHAR
STARTCHAR 2566
ENCODING 9574
SWIDTH 585 0
DWIDTH 13 0
BBX 14 20 0 -8
BITMAP
FFFC
FFFC
FFFC
0000
0000
FCFC
FCFC
0C80
0C80
0C80
0C80
0C80
0C80
0C80
0C80
0C80
0C80
0C80
0C80
0C80
ENDCHAR
STARTCHAR 2567
ENCODING 9575
SWIDTH 585 0
DWIDTH 13 0
BBX 14 20 0 5
BITMAP
0300
0300
0300
0300
0300
0300
0300
0300
0300
0300
0300
0300
0300
FFFC
FFFC
FFFC
0000
0000
FFFC
FFFC
ENDCHAR
STARTCHAR 2568
ENCODING 9576
SWIDTH 585 0
DWIDTH 13 0
BBX 14 18 0 7
BITMAP
0C80
0C80
0C80
0C80
0C80
0C80
0C80
0C80
0C80
0C80
0C80
0C80
0C80
0C80
0C80
0C80
FFFC
FFFC
ENDCHAR
STARTCHAR 2569
ENCODING 9577
SWIDTH 585 0
DWIDTH 13 0
BBX 14 20 0 5
BITMAP
0C80
0C80
0C80
0C80
0C80
0C80
0C80
0C80
0C80
0C80
0C80
0C80
0C80
FCFC
FCFC
FCFC
0000
0000
FFFC
FFFC
ENDCHAR
STARTCHAR 256A
ENCODING 9578
SWIDTH 585 0
DWIDTH 13 0
BBX 14 33 0 -8
BITMAP
0300
0300
0300
0300
0300
0300
0300
0300
0300
0300
0300
0300
0300
FFFC
FFFC
FFFC
0300
0300
FFFC
FFFC
0300
0300
0300
0300
0300
0300
0300
0300
0300
0300
0300
0300
0300
ENDCHAR
STARTCHAR 256B
ENCODING 9579
SWIDTH 585 0
DWIDTH 13 0
BBX 14 33 0 -8
BITMAP
0C80
0C80
0C80
0C80
0C80
0C80
0C80
0C80
0C80
0C80
0C80
0C80
0C80
0C80
0C80
0C80
FFFC
FFFC
0C80
0C80
0C80
0C80
0C80
0C80
0C80
0C80
0C80
0C80
0C80
0C80
0C80
0C80
0C80
ENDCHAR
STARTCHAR 256C
ENCODING 9580
SWIDTH 585 0
DWIDTH 13 0
BBX 14 33 0 -8
BITMAP
0C80
0C80
0C80
0C80
0C80
0C80
0C80
0C80
0C80
0C80
0C80
0C80
0C80
FCFC
FCFC
FCFC
0000
0000
FCFC
FCFC
0C80
0C80
0C80
0C80
0C80
0C80
0C80
0C80
0C80
0C80
0C80
0C80
0C80
ENDCHAR
STARTCHAR 256D
ENCODING 9581
SWIDTH 585 0
DWIDTH 13 0
BBX 8 17 6 -8
BITMAP
7F
7F
C0
C0
C0
C0
C0
C0
C0
C0
C0
C0
C0
C0
C0
C0
C0
ENDCHAR
STARTCHAR 256E
ENCODING 9582
SWIDTH 585 0
DWIDTH 13 0
BBX 8 17 0 -8
BITMAP
FC
FE
06
02
03
03
03
03
03
03
03
03
03
03
03
03
03
ENDCHAR
STARTCHAR 256F
ENCODING 9583
SWIDTH 585 0
DWIDTH 13 0
BBX 8 18 0 7
BITMAP
03
03
03
03
03
03
03
03
03
03
03
03
03
03
02
06
FC
F8
ENDCHAR
STARTCHAR 2570
ENCODING 9584
SWIDTH 585 0
DWIDTH 13 0
BBX 8 18 6 7
BITMAP
C0
C0
C0
C0
C0
C0
C0
C0
C0
C0
C0
C0
C0
C0
C0
E0
7F
3F
ENDCHAR
STARTCHAR 2571
ENCODING 9585
SWIDTH 585 0
DWIDTH 13 0
BBX 14 33 0 -8
BITMAP
000C
0018
0018
0010
0030
0030
0020
0060
0060
00C0
00C0
0080
0180
0180
0100
0300
0300
0200
0600
0600
0C00
0C00
0800
1800
1800
1000
3000
3000
2000
6000
6000
C000
C000
ENDCHAR
STARTCHAR 2572
ENCODING 9586
SWIDTH 585 0
DWIDTH 13 0
BBX 14 33 0 -8
BITMAP
C000
C000
4000
6000
6000
3000
3000
1000
1800
1800
0800
0C00
0C00
0400
0600
0600
0300
0300
0100
0180
0180
0080
00C0
00C0
0040
0060
0060
0030
0030
0010
0018
0018
000C
ENDCHAR
STARTCHAR 2573
ENCODING 9587
SWIDTH 585 0
DWIDTH 13 0
BBX 14 33 0 -8
BITMAP
C00C
C018
4018
6010
6030
3030
3020
1060
1860
18C0
08C0
0C80
0D80
0580
0700
0700
0300
0300
0700
0780
0D80
0C80
08C0
18C0
1840
1060
3060
3030
2030
6010
6018
C018
C00C
ENDCHAR
STARTCHAR 2574
ENCODING 9588
SWIDTH 585 0
DWIDTH 13 0
BBX 7 2 0 7
BITMAP
FE
FE
ENDCHAR
STARTCHAR 2575
ENCODING 9589
SWIDTH 585 0
DWIDTH 13 0
BBX 2 17 6 8
BITMAP
C0
C0
C0
C0
C0
C0
C0
C0
C0
C0
C0
C0
C0
C0
C0
C0
C0
ENDCHAR
STARTCHAR 2576
ENCODING 9590
SWIDTH 585 0
DWIDTH 13 0
BBX 7 2 7 7
BITMAP
FE
FE
ENDCHAR
STARTCHAR 2577
ENCODING 9591
SWIDTH 585 0
DWIDTH 13 0
BBX 2 16 6 -8
BITMAP
C0
C0
C0
C0
C0
C0
C0
C0
C0
C0
C0
C0
C0
C0
C0
C0
ENDCHAR
STARTCHAR 2578
ENCODING 9592
SWIDTH 585 0
DWIDTH 13 0
BBX 7 5 0 6
BITMAP
FE
FE
FE
FE
FE
ENDCHAR
STARTCHAR 2579
ENCODING 9593
SWIDTH 585 0
DWIDTH 13 0
BBX 3 17 5 8
BITMAP
E0
E0
E0
E0
E0
E0
E0
E0
E0
E0
E0
E0
E0
E0
E0
E0
E0
ENDCHAR
STARTCHAR 257A
ENCODING 9594
SWIDTH 585 0
DWIDTH 13 0
BBX 7 5 7 6
BITMAP
FE
FE
FE
FE
FE
ENDCHAR
STARTCHAR 257B
ENCODING 9595
SWIDTH 585 0
DWIDTH 13 0
BBX 3 16 5 -8
BITMAP
E0
E0
E0
E0
E0
E0
E0
E0
E0
E0
E0
E0
E0
E0
E0
E0
ENDCHAR
STARTCHAR 257C
ENCODING 9596
SWIDTH 585 0
DWIDTH 13 0
BBX 14 5 0 6
BITMAP
01FC
01FC
FFFC
FFFC
01FC
ENDCHAR
STARTCHAR 257D
ENCODING 9597
SWIDTH 585 0
DWIDTH 13 0
BBX 3 33 5 -8
BITMAP
60
60
60
60
60
60
60
60
60
60
60
60
60
60
60
60
60
E0
E0
E0
E0
E0
E0
E0
E0
E0
E0
E0
E0
E0
E0
E0
E0
ENDCHAR
STARTCHAR 257E
ENCODING 9598
SWIDTH 585 0
DWIDTH 13 0
BBX 14 5 0 6
BITMAP
FE00
FE00
FFFC
FFFC
FE00
ENDCHAR
STARTCHAR 257F
ENCODING 9599
SWIDTH 585 0
DWIDTH 13 0
BBX 3 33 5 -8
BITMAP
E0
E0
E0
E0
E0
E0
E0
E0
E0
E0
E0
E0
E0
E0
E0
E0
E0
60
60
60
60
60
60
60
60
60
60
60
60
60
60
60
60
ENDCHAR
STARTCHAR 2580
ENCODING 9600
SWIDTH 585 0
DWIDTH 13 0
BBX 14 17 0 8
BITMAP
FFFC
FFFC
FFFC
FFFC
FFFC
FFFC
FFFC
FFFC
FFFC
FFFC
FFFC
FFFC
FFFC
FFFC
FFFC
FFFC
FFFC
ENDCHAR
STARTCHAR 2581
ENCODING 9601
SWIDTH 585 0
DWIDTH 13 0
BBX 14 4 0 -8
BITMAP
FFFC
FFFC
FFFC
FFFC
ENDCHAR
STARTCHAR 2582
ENCODING 9602
SWIDTH 585 0
DWIDTH 13 0
BBX 14 8 0 -8
BITMAP
FFFC
FFFC
FFFC
FFFC
FFFC
FFFC
FFFC
FFFC
ENDCHAR
STARTCHAR 2583
ENCODING 9603
SWIDTH 585 0
DWIDTH 13 0
BBX 14 12 0 -8
BITMAP
FFFC
FFFC
FFFC
FFFC
FFFC
FFFC
FFFC
FFFC
FFFC
FFFC
FFFC
FFFC
ENDCHAR
STARTCHAR 2584
ENCODING 9604
SWIDTH 585 0
DWIDTH 13 0
BBX 14 16 0 -8
BITMAP
FFFC
FFFC
FFFC
FFFC
FFFC
FFFC
FFFC
FFFC
FFFC
FFFC
FFFC
FFFC
FFFC
FFFC
FFFC
FFFC
ENDCHAR
STARTCHAR 2585
ENCODING 9605
SWIDTH 585 0
DWIDTH 13 0
BBX 14 20 0 -8
BITMAP
FFFC
FFFC
FFFC
FFFC
FFFC
FFFC
FFFC
FFFC
FFFC
FFFC
FFFC
FFFC
FFFC
FFFC
FFFC
FFFC
FFFC
FFFC
FFFC
FFFC
ENDCHAR
STARTCHAR 2586
ENCODING 9606
SWIDTH 585 0
DWIDTH 13 0
BBX 14 24 0 -8
BITMAP
FFFC
FFFC
FFFC
FFFC
FFFC
FFFC
FFFC
FFFC
FFFC
FFFC
FFFC
FFFC
FFFC
FFFC
FFFC
FFFC
FFFC
FFFC
FFFC
FFFC
FFFC
FFFC
FFFC
FFFC
ENDCHAR
STARTCHAR 2587
ENCODING 9607
SWIDTH 585 0
DWIDTH 13 0
BBX 14 28 0 -8
BITMAP
FFFC
FFFC
FFFC
FFFC
FFFC
FFFC
FFFC
FFFC
FFFC
FFFC
FFFC
FFFC
FFFC
FFFC
FFFC
FFFC
FFFC
FFFC
FFFC
FFFC
FFFC
FFFC
FFFC
FFFC
FFFC
FFFC
FFFC
FFFC
ENDCHAR
STARTCHAR 2588
ENCODING 9608
SWIDTH 585 0
DWIDTH 13 0
BBX 14 33 0 -8
BITMAP
FFFC
FFFC
FFFC
FFFC
FFFC
FFFC
FFFC
FFFC
FFFC
FFFC
FFFC
FFFC
FFFC
FFFC
FFFC
FFFC
FFFC
FFFC
FFFC
FFFC
FFFC
FFFC
FFFC
FFFC
FFFC
FFFC
FFFC
FFFC
FFFC
FFFC
FFFC
FFFC
FFFC
ENDCHAR
STARTCHAR 2589
ENCODING 9609
SWIDTH 585 0
DWIDTH 13 0
BBX 12 33 0 -8
BITMAP
FFF0
FFF0
FFF0
FFF0
FFF0
FFF0
FFF0
FFF0
FFF0
FFF0
FFF0
FFF0
FFF0
FFF0
FFF0
FFF0
FFF0
FFF0
FFF0
FFF0
FFF0
FFF0
FFF0
FFF0
FFF0
FFF0
FFF0
FFF0
FFF0
FFF0
FFF0
FFF0
FFF0
ENDCHAR
STARTCHAR 258A
ENCODING 9610
SWIDTH 585 0
DWIDTH 13 0
BBX 10 33 0 -8
BITMAP
FFC0
FFC0
FFC0
FFC0
FFC0
FFC0
FFC0
FFC0
FFC0
FFC0
FFC0
FFC0
FFC0
FFC0
FFC0
FFC0
FFC0
FFC0
FFC0
FFC0
FFC0
FFC0
FFC0
FFC0
FFC0
FFC0
FFC0
FFC0
FFC0
FFC0
FFC0
FFC0
FFC0
ENDCHAR
STARTCHAR 258B
ENCODING 9611
SWIDTH 585 0
DWIDTH 13 0
BBX 9 33 0 -8
BITMAP
FF80
FF80
FF80
FF80
FF80
FF80
FF80
FF80
FF80
FF80
FF80
FF80
FF80
FF80
FF80
FF80
FF80
FF80
FF80
FF80
FF80
FF80
FF80
FF80
FF80
FF80
FF80
FF80
FF80
FF80
FF80
FF80
FF80
ENDCHAR
STARTCHAR 258C
ENCODING 9612
SWIDTH 585 0
DWIDTH 13 0
BBX 7 33 0 -8
BITMAP
FE
FE
FE
FE
FE
FE
FE
FE
FE
FE
FE
FE
FE
FE
FE
FE
FE
FE
FE
FE
FE
FE
FE
FE
FE
FE
FE
FE
FE
FE
FE
FE
FE
ENDCHAR
STARTCHAR 258D
ENCODING 9613
SWIDTH 585 0
DWIDTH 13 0
BBX 5 33 0 -8
BITMAP
F8
F8
F8
F8
F8
F8
F8
F8
F8
F8
F8
F8
F8
F8
F8
F8
F8
F8
F8
F8
F8
F8
F8
F8
F8
F8
F8
F8
F8
F8
F8
F8
F8
ENDCHAR
STARTCHAR 258E
ENCODING 9614
SWIDTH 585 0
DWIDTH 13 0
BBX 3 33 0 -8
BITMAP
E0
E0
E0
E0
E0
E0
E0
E0
E0
E0
E0
E0
E0
E0
E0
E0
E0
E0
E0
E0
E0
E0
E0
E0
E0
E0
E0
E0
E0
E0
E0
E0
E0
ENDCHAR
STARTCHAR 258F
ENCODING 9615
SWIDTH 585 0
DWIDTH 13 0
BBX 1 33 0 -8
BITMAP
80
80
80
80
80
80
80
80
80
80
80
80
80
80
80
80
80
80
80
80
80
80
80
80
80
80
80
80
80
80
80
80
80
ENDCHAR
STARTCHAR 2590
ENCODING 9616
SWIDTH 585 0
DWIDTH 13 0
BBX 7 33 7 -8
BITMAP
FE
FE
FE
FE
FE
FE
FE
FE
FE
FE
FE
FE
FE
FE
FE
FE
FE
FE
FE
FE
FE
FE
FE
FE
FE
FE
FE
FE
FE
FE
FE
FE
FE
ENDCHAR
STARTCHAR 2591
ENCODING 9617
SWIDTH 585 0
DWIDTH 13 0
BBX 12 33 0 -8
BITMAP
C100
C100
C100
0000
1830
1830
1830
0000
0000
C100
C100
C100
0000
1830
1830
1830
0000
C100
C100
C100
0000
0000
1830
1830
1830
0000
C100
C100
C100
0000
1830
1830
1830
ENDCHAR
STARTCHAR 2592
ENCODING 9618
SWIDTH 585 0
DWIDTH 13 0
BBX 14 33 0 -8
BITMAP
CE60
CE60
CE60
319C
319C
319C
319C
CE60
CE60
CE60
319C
319C
319C
CE60
CE60
CE60
CE60
319C
319C
319C
CE60
CE60
CE60
319C
319C
319C
319C
CE60
CE60
CE60
319C
319C
319C
ENDCHAR
STARTCHAR 2593
ENCODING 9619
SWIDTH 585 0
DWIDTH 13 0
BBX 14 33 0 -8
BITMAP
3EFC
3EFC
3EFC
FFFC
E7CC
E7CC
E7CC
FFFC
FFFC
3EFC
3EFC
3EFC
FFFC
E7CC
E7CC
E7CC
FFFC
3EFC
3EFC
3EFC
FFFC
FFFC
E7CC
E7CC
E7CC
FFFC
3EFC
3EFC
3EFC
FFFC
E7CC
E7CC
E7CC
ENDCHAR
STARTCHAR 2594
ENCODING 9620
SWIDTH 585 0
DWIDTH 13 0
BBX 14 5 0 20
BITMAP
FFFC
FFFC
FFFC
FFFC
FFFC
ENDCHAR
STARTCHAR 2595
ENCODING 9621
SWIDTH 585 0
DWIDTH 13 0
BBX 2 33 12 -8
BITMAP
C0
C0
C0
C0
C0
C0
C0
C0
C0
C0
C0
C0
C0
C0
C0
C0
C0
C0
C0
C0
C0
C0
C0
C0
C0
C0
C0
C0
C0
C0
C0
C0
C0
ENDCHAR
STARTCHAR 2596
ENCODING 9622
SWIDTH 585 0
DWIDTH 13 0
BBX 7 16 0 -8
BITMAP
FE
FE
FE
FE
FE
FE
FE
FE
FE
FE
FE
FE
FE
FE
FE
FE
ENDCHAR
STARTCHAR 2597
ENCODING 9623
SWIDTH 585 0
DWIDTH 13 0
BBX 7 16 7 -8
BITMAP
FE
FE
FE
FE
FE
FE
FE
FE
FE
FE
FE
FE
FE
FE
FE
FE
ENDCHAR
STARTCHAR 2598
ENCODING 9624
SWIDTH 585 0
DWIDTH 13 0
BBX 7 17 0 8
BITMAP
FE
FE
FE
FE
FE
FE
FE
FE
FE
FE
FE
FE
FE
FE
FE
FE
FE
ENDCHAR
STARTCHAR 2599
ENCODING 9625
SWIDTH 585 0
DWIDTH 13 0
BBX 14 33 0 -8
BITMAP
FE00
FE00
FE00
FE00
FE00
FE00
FE00
FE00
FE00
FE00
FE00
FE00
FE00
FE00
FE00
FE00
FE00
FFFC
FFFC
FFFC
FFFC
FFFC
FFFC
FFFC
FFFC
FFFC
FFFC
FFFC
FFFC
FFFC
FFFC
FFFC
FFFC
ENDCHAR
STARTCHAR 259A
ENCODING 9626
SWIDTH 585 0
DWIDTH 13 0
BBX 14 33 0 -8
BITMAP
FE00
FE00
FE00
FE00
FE00
FE00
FE00
FE00
FE00
FE00
FE00
FE00
FE00
FE00
FE00
FE00
FE00
01FC
01FC
01FC
01FC
01FC
01FC
01FC
01FC
01FC
01FC
01FC
01FC
01FC
01FC
01FC
01FC
ENDCHAR
STARTCHAR 259B
ENCODING 9627
SWIDTH 585 0
DWIDTH 13 0
BBX 14 33 0 -8
BITMAP
FFFC
FFFC
FFFC
FFFC
FFFC
FFFC
FFFC
FFFC
FFFC
FFFC
FFFC
FFFC
FFFC
FFFC
FFFC
FFFC
FFFC
FE00
FE00
FE00
FE00
FE00
FE00
FE00
FE00
FE00
FE00
FE00
FE00
FE00
FE00
FE00
FE00
ENDCHAR
STARTCHAR 259C
ENCODING 9628
SWIDTH 585 0
DWIDTH 13 0
BBX 14 33 0 -8
BITMAP
FFFC
FFFC
FFFC
FFFC
FFFC
FFFC
FFFC
FFFC
FFFC
FFFC
FFFC
FFFC
FFFC
FFFC
FFFC
FFFC
FFFC
01FC
01FC
01FC
01FC
01FC
01FC
01FC
01FC
01FC
01FC
01FC
01FC
01FC
01FC
01FC
01FC
ENDCHAR
STARTCHAR 259D
ENCODING 9629
SWIDTH 585 0
DWIDTH 13 0
BBX 7 17 7 8
BITMAP
FE
FE
FE
FE
FE
FE
FE
FE
FE
FE
FE
FE
FE
FE
FE
FE
FE
ENDCHAR
STARTCHAR 259E
ENCODING 9630
SWIDTH 585 0
DWIDTH 13 0
BBX 14 33 0 -8
BITMAP
01FC
01FC
01FC
01FC
01FC
01FC
01FC
01FC
01FC
01FC
01FC
01FC
01FC
01FC
01FC
01FC
01FC
FE00
FE00
FE00
FE00
FE00
FE00
FE00
FE00
FE00
FE00
FE00
FE00
FE00
FE00
FE00
FE00
ENDCHAR
STARTCHAR 259F
ENCODING 9631
SWIDTH 585 0
DWIDTH 13 0
BBX 14 33 0 -8
BITMAP
01FC
01FC
01FC
01FC
01FC
01FC
01FC
01FC
01FC
01FC
01FC
01FC
01FC
01FC
01FC
01FC
01FC
FFFC
FFFC
FFFC
FFFC
FFFC
FFFC
FFFC
FFFC
FFFC
FFFC
FFFC
FFFC
FFFC
FFFC
FFFC
FFFC
ENDCHAR
STARTCHAR 25CA
ENCODING 9674
SWIDTH 585 0
DWIDTH 13 0
BBX 11 15 1 0
BITMAP
0F00
1B00
1980
3180
30C0
60C0
6060
C060
6060
60C0
30C0
3180
1980
1B00
0F00
ENDCHAR
STARTCHAR 2630
ENCODING 9776
SWIDTH 585 0
DWIDTH 13 0
BBX 12 10 1 3
BITMAP
FFF0
FFF0
0000
0000
FFF0
FFF0
0000
0000
FFF0
FFF0
ENDCHAR
STARTCHAR 2665
ENCODING 9829
SWIDTH 585 0
DWIDTH 13 0
BBX 13 12 0 2
BITMAP
7CF0
4718
8308
8208
8008
C008
4018
2030
3060
0CC0
0780
0200
ENDCHAR
STARTCHAR 26A1
ENCODING 9889
SWIDTH 585 0
DWIDTH 13 0
BBX 13 17 0 0
BITMAP
00E0
01E0
03E0
0740
0EC0
1CC0
39F8
70F8
C018
C038
FC70
0CE0
0980
1B00
1E00
3C00
1800
ENDCHAR
STARTCHAR 276C
ENCODING 10092
SWIDTH 585 0
DWIDTH 13 0
BBX 8 20 3 -2
BITMAP
0F
0E
1C
1C
38
38
70
70
E0
E0
E0
70
70
38
38
1C
1C
0E
0E
07
ENDCHAR
STARTCHAR 276D
ENCODING 10093
SWIDTH 585 0
DWIDTH 13 0
BBX 8 20 3 -2
BITMAP
E0
70
70
38
38
1C
1C
0E
0E
07
0E
0E
1C
1C
38
38
70
70
E0
E0
ENDCHAR
STARTCHAR 276E
ENCODING 10094
SWIDTH 585 0
DWIDTH 13 0
BBX 11 20 1 -2
BITMAP
03E0
07C0
0780
0F80
0F00
1E00
3E00
3C00
7800
F800
7800
7C00
3C00
1E00
1F00
0F00
0780
07C0
03C0
01E0
ENDCHAR
STARTCHAR 276F
ENCODING 10095
SWIDTH 585 0
DWIDTH 13 0
BBX 11 20 1 -2
BITMAP
F800
3C00
3E00
1E00
0F00
0F80
0780
07C0
03C0
01E0
03E0
03C0
0780
0F80
0F00
1E00
3E00
3C00
7C00
F800
ENDCHAR
STARTCHAR 2770
ENCODING 10096
SWIDTH 585 0
DWIDTH 13 0
BBX 11 23 1 -3
BITMAP
03E0
07E0
07C0
0FC0
0F80
1F80
1F00
3F00
3E00
7E00
7C00
FC00
7C00
7E00
3E00
3F00
1F00
1F80
0F80
0FC0
07C0
07E0
03E0
ENDCHAR
STARTCHAR 2771
ENCODING 10097
SWIDTH 585 0
DWIDTH 13 0
BBX 11 23 1 -3
BITMAP
FC00
7C00
7E00
3E00
3F00
1F00
1F80
0F80
0FC0
07C0
07E0
03E0
07E0
07C0
0FC0
0F80
1F80
1F00
3F00
3E00
7E00
7C00
FC00
ENDCHAR
STARTCHAR 2B58
ENCODING 11096
SWIDTH 585 0
DWIDTH 13 0
BBX 13 13 0 2
BITMAP
0F80
3FE0
78F0
7038
E018
C018
C018
C018
E018
6038
7870
3FE0
1FC0
ENDCHAR
STARTCHAR E000
ENCODING 57344
SWIDTH 585 0
DWIDTH 13 0
BBX 13 12 0 2
BITMAP
0860
FFF8
1820
1B20
7FF8
1030
1010
1010
1010
1010
1010
1010
ENDCHAR
STARTCHAR E001
ENCODING 57345
SWIDTH 585 0
DWIDTH 13 0
BBX 13 14 0 1
BITMAP
0600
7AF0
0F88
3FF0
7FB8
FF98
FFD8
FFC8
FFD8
FFF8
7FF8
7FF0
1FE0
0780
ENDCHAR
STARTCHAR E002
ENCODING 57346
SWIDTH 585 0
DWIDTH 13 0
BBX 13 14 0 1
BITMAP
0600
7AF0
0F88
3FF0
6718
C008
8008
8008
C008
C008
6018
7030
1FE0
0780
ENDCHAR
STARTCHAR E003
ENCODING 57347
SWIDTH 585 0
DWIDTH 13 0
BBX 13 14 0 1
BITMAP
0600
7AF0
0F88
3FF0
7FF8
F7F8
F3F8
FDF8
FDF8
FDF8
7DF8
7FF0
1FE0
0780
ENDCHAR
STARTCHAR E004
ENCODING 57348
SWIDTH 585 0
DWIDTH 13 0
BBX 13 14 0 1
BITMAP
0600
7AF0
0F88
3FF0
6718
C008
8008
8008
FFF8
FFF8
7FF8
7FF0
1FE0
0780
ENDCHAR
STARTCHAR E005
ENCODING 57349
SWIDTH 585 0
DWIDTH 13 0
BBX 13 13 0 2
BITMAP
0400
0C00
0A00
0C00
0800
FF80
FFB8
FFE8
FFC8
FFB8
FF80
7F00
3E00
ENDCHAR
STARTCHAR E006
ENCODING 57350
SWIDTH 585 0
DWIDTH 13 0
BBX 13 14 0 1
BITMAP
1F70
67F8
0FF0
3FF8
33D8
4368
0628
0620
0600
0600
3EC0
FFE0
7FE0
1F00
ENDCHAR
STARTCHAR E007
ENCODING 57351
SWIDTH 585 0
DWIDTH 13 0
BBX 13 15 0 1
BITMAP
3000
7C00
FC00
F600
9200
9700
FFC0
FFF8
7FF8
7FE0
3FF0
3FF0
1F80
0F80
0700
ENDCHAR
STARTCHAR E008
ENCODING 57352
SWIDTH 585 0
DWIDTH 13 0
BBX 13 15 0 1
BITMAP
0600
0200
7EF0
0E88
3EF0
7EF8
FEF8
F0F8
EFF8
EFF8
F4F8
72F0
7EF0
3EE0
0E80
ENDCHAR
STARTCHAR E009
ENCODING 57353
SWIDTH 585 0
DWIDTH 13 0
BBX 10 33 2 -8
BITMAP
FFC0
FF80
FF80
FF80
FF80
FF80
FF80
FF80
FF80
FF80
7F80
7F80
7F80
7F80
7F80
7F80
7F80
7F80
7F00
7F00
3F00
1C00
0000
0000
0000
1C00
3F00
7F00
7F80
7F80
7F00
3F00
1E00
ENDCHAR
STARTCHAR E00A
ENCODING 57354
SWIDTH 585 0
DWIDTH 13 0
BBX 13 25 0 -4
BITMAP
3F80
3F80
7F80
7F00
7F00
7F00
7F00
7E08
7E78
7FF8
FFF0
FFF0
FFE0
F3E0
87C0
0780
0780
0700
0700
0E00
0E00
0C00
0C00
0800
1800
ENDCHAR
STARTCHAR E0A0
ENCODING 57504
SWIDTH 585 0
DWIDTH 13 0
BBX 13 33 0 -8
BITMAP
F000
F000
F000
F000
F040
F0C0
F1E0
F3F0
F7F8
F0C0
F0C0
F0C0
F0C0
F0C0
F0C0
F0C0
F0C0
C1C0
83C0
0F80
1F00
3E00
7800
7800
F000
F000
F000
F000
F000
F000
F000
F000
F000
ENDCHAR
STARTCHAR E0A1
ENCODING 57505
SWIDTH 585 0
DWIDTH 13 0
BBX 12 33 1 -8
BITMAP
E000
E000
E000
E000
E000
E000
E000
E000
E000
E000
E000
E000
E000
E000
FF80
FF80
0000
3870
3870
3C70
3C70
3E70
3E70
3670
3770
3B70
3BF0
3BF0
39F0
39F0
38F0
38F0
38F0
ENDCHAR
STARTCHAR E0A2
ENCODING 57506
SWIDTH 585 0
DWIDTH 13 0
BBX 13 27 0 -5
BITMAP
0300
0FC0
1FE0
3860
3060
3060
3060
3060
3060
3060
3060
FFF8
FFF8
FFF8
F8F8
F878
F878
F8F8
FCF8
FCF8
FCF8
FCF8
FCF8
FFF8
FFF8
FFF8
7FF8
ENDCHAR
STARTCHAR E0A3
ENCODING 57507
SWIDTH 585 0
DWIDTH 13 0
BBX 13 33 0 -8
BITMAP
FFC0
FFC0
FFC0
E000
E000
E000
E000
E000
E000
E000
E000
E000
E000
E000
FFC0
FFC0
0000
3C38
3C38
3E38
3E38
3F38
3F38
3BB8
3B98
3BD8
39D8
39F8
3CF8
3CF8
3C78
3C78
3C38
ENDCHAR
STARTCHAR E0B0
ENCODING 57520
SWIDTH 585 0
DWIDTH 13 0
BBX 14 33 -1 -8
BITMAP
8000
C000
E000
F000
F800
F800
FC00
FE00
FF00
FF80
FFC0
FFC0
FFE0
FFF0
FFF8
FFFC
FFFC
FFFC
FFF8
FFF0
FFE0
FFE0
FFC0
FF80
FF00
FE00
FE00
FC00
F800
F000
E000
C000
C000
ENDCHAR
STARTCHAR E0B1
ENCODING 57521
SWIDTH 585 0
DWIDTH 13 0
BBX 13 33 0 -8
BITMAP
4000
C000
6000
7000
3000
1800
0C00
0E00
0600
0300
0180
01C0
00C0
0060
0030
0038
0018
0018
0030
0060
00E0
00C0
0180
0300
0700
0600
0C00
1800
3800
3000
6000
C000
4000
ENDCHAR
STARTCHAR E0B2
ENCODING 57522
SWIDTH 585 0
DWIDTH 13 0
BBX 14 33 0 -8
BITMAP
0004
000C
001C
001C
003C
007C
00FC
01FC
01FC
03FC
07FC
0FFC
1FFC
1FFC
3FFC
7FFC
FFFC
7FFC
3FFC
3FFC
1FFC
0FFC
07FC
03FC
03FC
01FC
00FC
007C
003C
003C
001C
000C
0004
ENDCHAR
STARTCHAR E0B3
ENCODING 57523
SWIDTH 585 0
DWIDTH 13 0
BBX 13 33 0 -8
BITMAP
0008
0018
0018
0030
0060
00E0
00C0
0180
0300
0700
0600
0C00
1800
3800
3000
6000
C000
6000
7000
3000
1800
0C00
0E00
0600
0300
0180
01C0
00C0
0060
0030
0038
0018
0008
ENDCHAR
STARTCHAR E0B4
ENCODING 57524
SWIDTH 585 0
DWIDTH 13 0
BBX 13 33 0 -8
BITMAP
C000
F800
FE00
FF00
FF80
FFC0
FFE0
FFE0
FFF0
FFF0
FFF8
FFF8
FFF8
FFF8
FFF8
FFF8
FFF8
FFF8
FFF8
FFF8
FFF8
FFF8
FFF8
FFF0
FFF0
FFE0
FFE0
FFC0
FF80
FF00
FE00
F800
E000
ENDCHAR
STARTCHAR E0B5
ENCODING 57525
SWIDTH 585 0
DWIDTH 13 0
BBX 13 33 0 -8
BITMAP
E000
3800
0C00
0700
0380
0180
00C0
00E0
0060
0070
0030
0038
0038
0038
0018
0018
0018
0018
0018
0018
0038
0038
0030
0070
0070
00E0
00C0
01C0
0380
0700
0E00
1800
F000
ENDCHAR
STARTCHAR E0B6
ENCODING 57526
SWIDTH 585 0
DWIDTH 13 0
BBX 14 33 0 -8
BITMAP
001C
007C
01FC
03FC
0FFC
0FFC
1FFC
3FFC
3FFC
7FFC
7FFC
7FFC
FFFC
FFFC
FFFC
FFFC
FFFC
FFFC
FFFC
FFFC
FFFC
7FFC
7FFC
7FFC
3FFC
3FFC
1FFC
1FFC
0FFC
07FC
01FC
00FC
003C
ENDCHAR
STARTCHAR E0B7
ENCODING 57527
SWIDTH 585 0
DWIDTH 13 0
BBX 13 33 0 -8
BITMAP
0038
0060
01C0
0380
0700
0E00
1C00
1800
3800
3000
7000
6000
6000
E000
E000
E000
E000
E000
E000
E000
E000
6000
7000
7000
3800
3800
1C00
0C00
0600
0300
0180
00E0
0038
ENDCHAR
STARTCHAR E0B8
ENCODING 57528
SWIDTH 585 0
DWIDTH 13 0
BBX 13 33 0 -8
BITMAP
8000
8000
8000
8000
C000
C000
C000
E000
E000
F000
F000
F000
F800
F800
FC00
FC00
FE00
FE00
FE00
FF00
FF00
FF80
FF80
FF80
FFC0
FFC0
FFE0
FFE0
FFF0
FFF0
FFF0
FFF8
FFF8
ENDCHAR
STARTCHAR E0B9
ENCODING 57529
SWIDTH 585 0
DWIDTH 13 0
BBX 13 33 0 -8
BITMAP
8000
8000
4000
4000
4000
2000
2000
1000
1000
1000
0800
0800
0400
0400
0400
0200
0200
0100
0100
0100
0080
0080
0040
0040
0040
0020
0020
0020
0010
0010
0008
0008
0008
ENDCHAR
STARTCHAR E0BA
ENCODING 57530
SWIDTH 585 0
DWIDTH 13 0
BBX 14 33 0 -8
BITMAP
0004
0004
0004
000C
000C
000C
001C
001C
003C
003C
007C
007C
007C
00FC
00FC
01FC
01FC
01FC
03FC
03FC
07FC
07FC
0FFC
0FFC
0FFC
1FFC
1FFC
3FFC
3FFC
3FFC
7FFC
7FFC
FFFC
ENDCHAR
STARTCHAR E0BB
ENCODING 57531
SWIDTH 585 0
DWIDTH 13 0
BBX 13 33 0 -8
BITMAP
0008
0008
0008
0010
0010
0010
0020
0020
0040
0040
0040
0080
0080
0100
0100
0100
0200
0200
0400
0400
0400
0800
0800
0800
1000
1000
2000
2000
2000
4000
4000
8000
8000
ENDCHAR
STARTCHAR E0BC
ENCODING 57532
SWIDTH 585 0
DWIDTH 13 0
BBX 13 33 0 -8
BITMAP
FFF8
FFF8
FFF8
FFF0
FFF0
FFE0
FFE0
FFC0
FFC0
FFC0
FF80
FF80
FF00
FF00
FF00
FE00
FE00
FC00
FC00
F800
F800
F800
F000
F000
E000
E000
E000
C000
C000
8000
8000
8000
8000
ENDCHAR
STARTCHAR E0BD
ENCODING 57533
SWIDTH 585 0
DWIDTH 13 0
BBX 13 33 0 -8
BITMAP
0008
0008
0008
0010
0010
0010
0020
0020
0040
0040
0040
0080
0080
0100
0100
0100
0200
0200
0400
0400
0400
0800
0800
0800
1000
1000
2000
2000
2000
4000
4000
8000
8000
ENDCHAR
STARTCHAR E0BE
ENCODING 57534
SWIDTH 585 0
DWIDTH 13 0
BBX 14 33 0 -8
BITMAP
FFFC
7FFC
7FFC
7FFC
3FFC
3FFC
1FFC
1FFC
1FFC
0FFC
0FFC
07FC
07FC
03FC
03FC
03FC
01FC
01FC
00FC
00FC
00FC
007C
007C
003C
003C
001C
001C
001C
000C
000C
0004
0004
0004
ENDCHAR
STARTCHAR E0BF
ENCODING 57535
SWIDTH 585 0
DWIDTH 13 0
BBX 13 33 0 -8
BITMAP
8000
8000
4000
4000
4000
2000
2000
1000
1000
1000
0800
0800
0400
0400
0400
0200
0200
0100
0100
0100
0080
0080
0040
0040
0040
0020
0020
0020
0010
0010
0008
0008
0008
ENDCHAR
STARTCHAR E0C0
ENCODING 57536
SWIDTH 585 0
DWIDTH 13 0
BBX 13 33 0 -8
BITMAP
B000
A000
C000
CE00
9C00
9800
F8C0
F9E0
F9E0
FFF8
FF80
FF00
FF00
FE00
FF80
FF80
FE00
FC00
FE00
FE00
FF20
FBC0
F980
F800
F800
CE00
C000
C000
E000
F000
C000
8000
8000
ENDCHAR
STARTCHAR E0C1
ENCODING 57537
SWIDTH 585 0
DWIDTH 13 0
BBX 13 33 0 -8
BITMAP
1000
B000
E000
6E00
3600
5400
68C0
49E0
0930
0618
0078
0090
0080
0100
01C0
0180
0300
0200
0300
0120
03E0
0740
0980
1400
3E00
2E00
6400
3800
1000
3000
4000
8000
8000
ENDCHAR
STARTCHAR E0C2
ENCODING 57538
SWIDTH 585 0
DWIDTH 13 0
BBX 14 33 0 -8
BITMAP
0024
0014
001C
01DC
00CC
006C
087C
1C7C
3E7C
FFFC
0FFC
07FC
03FC
03FC
0FFC
07FC
01FC
01FC
01FC
03FC
17FC
0EFC
047C
007C
00FC
01DC
000C
000C
001C
007C
000C
000C
0004
ENDCHAR
STARTCHAR E0C3
ENCODING 57539
SWIDTH 585 0
DWIDTH 13 0
BBX 14 33 0 -8
BITMAP
0020
0028
0038
02E8
0150
0130
1890
1C90
2280
E180
7800
2800
0400
0400
0C00
0E00
0200
0200
0300
2600
1D00
0B00
0E80
00A0
03E0
01D0
0090
0030
0060
0030
0010
0008
0004
ENDCHAR
STARTCHAR E0C4
ENCODING 57540
SWIDTH 585 0
DWIDTH 13 0
BBX 13 31 0 -7
BITMAP
EFC8
EDC8
EBC8
EA48
EA48
EA48
0180
EA80
EA80
0180
E980
E980
0240
EDA0
EDA0
0240
EB80
EB80
0000
E1B0
E1B0
0190
EE40
EE40
EE40
0000
E800
E800
0000
E600
E600
ENDCHAR
STARTCHAR E0C5
ENCODING 57541
SWIDTH 585 0
DWIDTH 13 0
BBX 13 31 0 -7
BITMAP
97E8
96E8
95E8
91E8
91E8
91E8
0400
0BE8
0BE8
0400
0AE8
0AE8
0700
16E8
16E8
0100
05E8
05E8
0000
6E28
6A28
2400
13E8
12E8
13E8
0000
00E8
00E8
0000
0328
0328
ENDCHAR
STARTCHAR E0C6
ENCODING 57542
SWIDTH 585 0
DWIDTH 13 0
BBX 13 31 0 -7
BITMAP
DFE0
DDA0
DDA0
DF60
0000
DBE0
DBA0
DBA0
DB60
0318
DD18
DD18
DD18
0218
C300
C300
C300
C300
D860
D8A0
D8A0
D8A0
0260
DD00
DD00
DD00
0300
0018
D818
D818
D818
ENDCHAR
STARTCHAR E0C7
ENCODING 57543
SWIDTH 585 0
DWIDTH 13 0
BBX 13 31 0 -7
BITMAP
3FD8
2DD8
2DD8
1FD8
0000
3AD8
2AD8
2AD8
1AD8
C300
A5D8
A5D8
A5D8
C200
0218
0218
0218
0218
18D8
28D8
28D8
28D8
1A00
05D8
05D8
05D8
0700
C000
A0D8
A0D8
E0D8
ENDCHAR
STARTCHAR E0C8
ENCODING 57544
SWIDTH 585 0
DWIDTH 13 0
BBX 13 33 0 -8
BITMAP
8000
F000
F800
C000
FE00
FF80
F400
C000
F000
FC00
FE00
E000
C000
E000
F000
F800
FC00
F800
E000
FF00
FFF8
FF80
F000
E000
F000
FC00
C000
FE00
F800
E000
C000
F000
C000
ENDCHAR
STARTCHAR E0CA
ENCODING 57546
SWIDTH 585 0
DWIDTH 13 0
BBX 14 33 0 -8
BITMAP
000C
003C
007C
001C
03FC
0FFC
00FC
000C
007C
01FC
03FC
003C
001C
001C
003C
007C
01FC
007C
001C
07FC
FFFC
0FFC
007C
001C
007C
00FC
001C
01FC
02FC
003C
000C
003C
001C
ENDCHAR
STARTCHAR E0CC
ENCODING 57548
SWIDTH 585 0
DWIDTH 13 0
BBX 13 33 0 -8
BITMAP
F000
F000
F000
F000
F800
F800
F800
F800
F800
F800
F0F0
F1F0
F1F0
F1F8
01F8
03F8
03F8
03F8
03F8
01F8
F1F0
F1F0
F1F0
F8F0
F800
F800
F800
F800
F800
F800
F000
F000
F000
ENDCHAR
STARTCHAR E0CD
ENCODING 57549
SWIDTH 585 0
DWIDTH 13 0
BBX 13 33 0 -8
BITMAP
F000
8800
8800
8800
8800
8400
8400
8400
8400
8800
88F0
8910
8908
F208
0208
0208
0208
0208
0208
F208
8908
8910
8910
88F0
8400
8400
8400
8400
8800
8800
8800
8800
F000
ENDCHAR
STARTCHAR E0CE
ENCODING 57550
SWIDTH 585 0
DWIDTH 13 0
BBX 13 13 0 2
BITMAP
1FC0
1F40
3E70
7EB0
7CB0
FD68
03E8
F968
7DD0
7EB0
3EB0
3F60
1FC0
ENDCHAR
STARTCHAR E0CF
ENCODING 57551
SWIDTH 585 0
DWIDTH 13 0
BBX 13 14 0 1
BITMAP
0780
38E0
3FF0
C798
3F68
CCC8
E338
F878
FDF8
FDF8
FDF8
3DE0
0DC0
0500
ENDCHAR
STARTCHAR E0D0
ENCODING 57552
SWIDTH 585 0
DWIDTH 13 0
BBX 13 15 0 1
BITMAP
7060
8898
8508
8508
8D08
5498
3860
0000
2020
58D0
8508
8508
8B08
4C98
3870
ENDCHAR
STARTCHAR E0D1
ENCODING 57553
SWIDTH 585 0
DWIDTH 13 0
BBX 13 18 0 -1
BITMAP
FFC0
FFF0
FFC8
FFF8
FFF8
FFF8
FFF8
FFC0
FFC0
FFC0
FFF8
FFC8
FFF8
FFF8
FFF8
FFC0
FFC0
FFC0
ENDCHAR
STARTCHAR E0D2
ENCODING 57554
SWIDTH 585 0
DWIDTH 13 0
BBX 13 33 0 -8
BITMAP
FFF8
FFF0
FFF0
FFE0
FFE0
FFC0
FF80
FF80
FF00
FF00
FE00
FC00
FC00
F800
F800
0000
0000
0000
F000
F800
F800
FC00
FE00
FE00
FF00
FF80
FF80
FFC0
FFE0
FFE0
FFF0
FFF0
FFF8
ENDCHAR
STARTCHAR E0D4
ENCODING 57556
SWIDTH 585 0
DWIDTH 13 0
BBX 14 33 0 -8
BITMAP
FFFC
7FFC
3FFC
3FFC
1FFC
0FFC
0FFC
07FC
07FC
03FC
01FC
01FC
00FC
00FC
007C
0000
0000
0000
007C
007C
00FC
01FC
01FC
03FC
07FC
07FC
0FFC
0FFC
1FFC
3FFC
3FFC
7FFC
FFFC
ENDCHAR
STARTCHAR E200
ENCODING 57856
SWIDTH 585 0
DWIDTH 13 0
BBX 13 22 0 -3
BITMAP
0078
00F8
01F8
03F8
07F0
0FE0
1FC0
3F80
7F00
FE00
FC00
FC00
7E00
3F00
1F80
0FC0
07E0
03F0
01F8
00F8
0078
0030
ENDCHAR
STARTCHAR E201
ENCODING 57857
SWIDTH 585 0
DWIDTH 13 0
BBX 13 11 0 3
BITMAP
0780
0FC0
0FF0
1FF8
3FF8
FFF8
FFF8
0080
2820
0180
2500
ENDCHAR
STARTCHAR E202
ENCODING 57858
SWIDTH 585 0
DWIDTH 13 0
BBX 11 33 1 -8
BITMAP
1F00
1F00
1F00
0F00
0F00
0F00
1F00
1F80
3F80
3FC0
7FC0
7FC0
7FE0
7FE0
7FE0
7FE0
FFE0
FFE0
7FE0
7FE0
7FE0
7FE0
7FE0
7FC0
7FC0
7FC0
7FC0
7FC0
7FE0
7FE0
7FE0
7FC0
3FC0
ENDCHAR
STARTCHAR E203
ENCODING 57859
SWIDTH 585 0
DWIDTH 13 0
BBX 13 7 0 5
BITMAP
3FE0
7FF0
7FF0
FFF8
C018
DFF8
DFF8
ENDCHAR
STARTCHAR E204
ENCODING 57860
SWIDTH 585 0
DWIDTH 13 0
BBX 13 13 0 2
BITMAP
0500
0D00
0A00
0000
0000
FFF8
FFF8
7FF8
7FF0
3FE0
1FC0
0000
FFF8
ENDCHAR
STARTCHAR E205
ENCODING 57861
SWIDTH 585 0
DWIDTH 13 0
BBX 13 15 0 0
BITMAP
E000
F000
7000
7000
0800
0800
0400
0300
0080
0080
0080
0060
0010
0010
0008
ENDCHAR
STARTCHAR E206
ENCODING 57862
SWIDTH 585 0
DWIDTH 13 0
BBX 13 13 0 2
BITMAP
0FC0
3020
6010
4008
8008
8008
8008
8008
8008
8008
4010
2020
1FC0
ENDCHAR
STARTCHAR E207
ENCODING 57863
SWIDTH 585 0
DWIDTH 13 0
BBX 13 17 0 0
BITMAP
01C0
07F0
67F8
67F8
3FF8
1FF8
07F8
07F8
07F8
07F8
07F0
1FE0
FFE0
DF80
C000
E000
6000
ENDCHAR
STARTCHAR E208
ENCODING 57864
SWIDTH 585 0
DWIDTH 13 0
BBX 13 15 0 1
BITMAP
0300
0780
0FC0
0FF8
3FF8
7FF8
FFF8
FFF0
0100
0600
0700
0E00
0400
0800
0800
ENDCHAR
STARTCHAR E209
ENCODING 57865
SWIDTH 585 0
DWIDTH 13 0
BBX 13 13 0 2
BITMAP
6000
9800
9F00
BFC0
5FF0
0778
0738
0340
03C0
0740
0520
0D20
0910
ENDCHAR
STARTCHAR E20A
ENCODING 57866
SWIDTH 585 0
DWIDTH 13 0
BBX 11 33 1 -8
BITMAP
0600
1B00
1080
3080
3080
3080
3080
3080
3080
3080
3080
3080
3480
3680
3680
3680
3680
3680
3680
3680
3680
3680
3680
3680
6640
5F20
9FA0
BFA0
9FA0
5F20
6E40
3180
0F00
ENDCHAR
STARTCHAR E20B
ENCODING 57867
SWIDTH 585 0
DWIDTH 13 0
BBX 11 33 1 -8
BITMAP
0600
1B00
1080
3080
3080
3680
3680
3680
3680
3680
3680
3680
3680
3680
3680
3680
3680
3680
3680
3680
3680
3680
3680
3680
6640
5F20
9FA0
BFA0
DFA0
5F20
6E40
3180
0F00
ENDCHAR
STARTCHAR E20C
ENCODING 57868
SWIDTH 585 0
DWIDTH 13 0
BBX 11 33 1 -8
BITMAP
0600
1B00
1080
3080
3080
3080
3080
3080
3080
3080
3080
3080
3080
3080
3080
3080
3080
3080
3080
3480
3680
3680
3680
3680
6640
5F20
9FA0
BFA0
9FA0
5F20
6E40
3080
0F00
ENDCHAR
STARTCHAR E20D
ENCODING 57869
SWIDTH 585 0
DWIDTH 13 0
BBX 13 13 0 2
BITMAP
C008
6018
3030
1860
0CC0
0780
0300
0780
0CC0
1860
3030
6018
C008
ENDCHAR
STARTCHAR E20E
ENCODING 57870
SWIDTH 585 0
DWIDTH 13 0
BBX 13 17 0 0
BITMAP
0F80
1FC0
1FE0
1FE0
1FE0
1FE0
0000
0000
FFF8
FFF8
3FF0
3FE0
1FC0
0F80
0F80
1FC0
1FE0
ENDCHAR
STARTCHAR E20F
ENCODING 57871
SWIDTH 585 0
DWIDTH 13 0
BBX 13 13 0 2
BITMAP
1808
1C18
8C30
DC60
FEC0
7F00
0F80
17C0
1BE0
3DF0
78F8
F078
E038
ENDCHAR
STARTCHAR E210
ENCODING 57872
SWIDTH 585 0
DWIDTH 13 0
BBX 13 17 0 0
BITMAP
1040
3CF0
7FF8
FFF8
FFF8
FFF8
FFF8
FFF8
7FF8
7FF0
7CF0
7870
7870
7070
3070
3860
1840
ENDCHAR
STARTCHAR E211
ENCODING 57873
SWIDTH 585 0
DWIDTH 13 0
BBX 13 11 0 3
BITMAP
2030
DFC8
CC88
B5B8
65A8
0300
0300
0500
0500
0500
0200
ENDCHAR
STARTCHAR E212
ENCODING 57874
SWIDTH 585 0
DWIDTH 13 0
BBX 13 13 0 2
BITMAP
FFF8
FFF8
FFF8
FFF8
AC88
AEB8
D7A8
D488
FFF8
FFF8
FFF8
3FE0
0780
ENDCHAR
STARTCHAR E213
ENCODING 57875
SWIDTH 585 0
DWIDTH 13 0
BBX 13 26 0 -5
BITMAP
0F00
0F00
0F00
0600
0400
0F00
1F00
3F80
7FC0
FFE0
DF70
DE38
DE08
DE00
9F00
1F00
1F80
1B80
39C0
39C0
39C0
70E0
70E0
E0E0
E060
4000
ENDCHAR
STARTCHAR E214
ENCODING 57876
SWIDTH 585 0
DWIDTH 13 0
BBX 13 13 0 1
BITMAP
0200
0300
3FF0
3FE0
3FE0
3FF0
FFF8
7FF0
3FF0
3FE0
3FE0
0790
0200
ENDCHAR
STARTCHAR E215
ENCODING 57877
SWIDTH 585 0
DWIDTH 13 0
BBX 13 13 0 2
BITMAP
0780
1FE0
3FF0
7FF8
FEB8
F938
C278
FC78
F878
7F78
7FF0
3FE0
0FC0
ENDCHAR
STARTCHAR E216
ENCODING 57878
SWIDTH 585 0
DWIDTH 13 0
BBX 13 21 0 -2
BITMAP
0010
0038
0078
0070
00F0
00E0
01E0
01C0
03C0
0380
0780
0F00
0E00
1E00
1C00
3C00
3800
7800
7000
F000
6000
ENDCHAR
STARTCHAR E217
ENCODING 57879
SWIDTH 585 0
DWIDTH 13 0
BBX 13 11 0 2
BITMAP
0018
0078
03D8
0FB8
7E78
FCF0
13F0
17F0
0FF0
0EF0
0460
ENDCHAR
STARTCHAR E218
ENCODING 57880
SWIDTH 585 0
DWIDTH 13 0
BBX 13 11 0 3
BITMAP
0C80
FFF8
FFF8
FFF8
7FF8
1FE0
1FE0
1FE0
1FE0
1FE0
1FE0
ENDCHAR
STARTCHAR E219
ENCODING 57881
SWIDTH 585 0
DWIDTH 13 0
BBX 13 7 0 5
BITMAP
0E00
7FC0
5EB0
BF78
7AB8
FFE8
FFF8
ENDCHAR
STARTCHAR E21A
ENCODING 57882
SWIDTH 585 0
DWIDTH 13 0
BBX 13 13 0 2
BITMAP
9000
D800
6800
3C00
1400
0A00
0600
0300
01F0
03B8
07F8
0EF8
0FC0
ENDCHAR
STARTCHAR E21B
ENCODING 57883
SWIDTH 585 0
DWIDTH 13 0
BBX 13 13 0 2
BITMAP
8000
C000
E000
F000
7800
FC00
7E00
EF00
E780
E3C0
E1E0
7FF0
FFF8
ENDCHAR
STARTCHAR E21C
ENCODING 57884
SWIDTH 585 0
DWIDTH 13 0
BBX 13 15 0 1
BITMAP
0780
1FC0
3FE0
3FF0
7FF8
BFF8
BFF8
FFF8
DFF0
7FE0
1700
0700
0700
0700
0700
ENDCHAR
STARTCHAR E21D
ENCODING 57885
SWIDTH 585 0
DWIDTH 13 0
BBX 13 11 0 3
BITMAP
0400
3F80
3180
60E0
C7C0
4FC0
4FF0
FFF8
3FF8
FFF8
FFF8
ENDCHAR
STARTCHAR E21E
ENCODING 57886
SWIDTH 585 0
DWIDTH 13 0
BBX 13 11 0 3
BITMAP
1FE0
3330
54D8
FFF8
C848
4890
24A0
14C0
0DC0
0780
0300
ENDCHAR
STARTCHAR E21F
ENCODING 57887
SWIDTH 585 0
DWIDTH 13 0
BBX 13 13 0 2
BITMAP
0060
00B0
00D8
01F8
06F0
0BE0
0FC0
1F80
6F00
BE00
DC00
7800
3000
ENDCHAR
STARTCHAR E220
ENCODING 57888
SWIDTH 585 0
DWIDTH 13 0
BBX 14 13 0 2
BITMAP
0200
0FC0
3FE0
7FF0
7FF8
9EC8
8A44
0200
0200
0200
0200
3200
1E00
ENDCHAR
STARTCHAR E221
ENCODING 57889
SWIDTH 585 0
DWIDTH 13 0
BBX 13 26 0 -5
BITMAP
0FC0
3FE0
71F0
63F8
E7F8
C7F8
C7F8
C7F8
C7F8
C7F8
CFF8
FFF8
FFF8
C018
C018
C018
C018
C018
C018
C018
E018
6038
7070
3FF0
1FC0
0300
ENDCHAR
STARTCHAR E222
ENCODING 57890
SWIDTH 585 0
DWIDTH 13 0
BBX 13 19 0 -1
BITMAP
0300
0700
0780
0780
0F80
3FC0
7BC0
71C0
E1E0
C100
C000
C000
E000
61F8
7070
3FE0
1FC0
3FE0
3FF0
ENDCHAR
STARTCHAR E223
ENCODING 57891
SWIDTH 585 0
DWIDTH 13 0
BBX 13 33 0 -8
BITMAP
0200
0700
0700
0700
0700
0780
0FC0
1FE0
3FE0
3FF0
7FF0
FFF8
FFF8
FFF8
0000
7FF0
7FF0
7FF0
7FF0
07F0
07F0
7FF0
7FF0
07F0
07F0
7FF0
7FF0
7FF0
7FF0
7FF0
7FF0
7FF0
3FF0
ENDCHAR
STARTCHAR E224
ENCODING 57892
SWIDTH 585 0
DWIDTH 13 0
BBX 13 3 0 7
BITMAP
FFF8
FFF8
FFF8
ENDCHAR
STARTCHAR E225
ENCODING 57893
SWIDTH 585 0
DWIDTH 13 0
BBX 13 12 0 2
BITMAP
0700
0700
0300
0200
0300
0780
0F80
0F80
5FD0
E038
E038
6018
ENDCHAR
STARTCHAR E226
ENCODING 57894
SWIDTH 585 0
DWIDTH 13 0
BBX 13 10 0 3
BITMAP
3000
5000
A780
9FC0
9FC0
9FF8
7FF8
FFF8
FFF8
7FF0
ENDCHAR
STARTCHAR E227
ENCODING 57895
SWIDTH 585 0
DWIDTH 13 0
BBX 13 14 0 1
BITMAP
1FE0
7FF0
7FF8
FFF8
FFF8
FFF8
7FF0
0700
0780
0700
0F80
0FC0
0FC0
0700
ENDCHAR
STARTCHAR E228
ENCODING 57896
SWIDTH 585 0
DWIDTH 13 0
BBX 13 4 0 6
BITMAP
1DC0
BFE8
7DF8
1020
ENDCHAR
STARTCHAR E229
ENCODING 57897
SWIDTH 585 0
DWIDTH 13 0
BBX 13 7 0 5
BITMAP
0080
0070
0050
D848
A168
B7A0
FE78
ENDCHAR
STARTCHAR E22A
ENCODING 57898
SWIDTH 585 0
DWIDTH 13 0
BBX 13 3 0 7
BITMAP
FFF8
DEF8
FFF8
ENDCHAR
STARTCHAR E22B
ENCODING 57899
SWIDTH 585 0
DWIDTH 13 0
BBX 13 13 0 2
BITMAP
0FC0
3760
7230
7778
DFD8
CFC8
DFD8
FFF8
FFF0
7FE0
7E00
3F00
1F00
ENDCHAR
STARTCHAR E22C
ENCODING 57900
SWIDTH 585 0
DWIDTH 13 0
BBX 13 13 0 2
BITMAP
1FF8
7FF8
7FF8
8CC0
0CC0
0C80
0C80
0C80
1CC0
1CC8
1CC8
3CF8
1870
ENDCHAR
STARTCHAR E22D
ENCODING 57901
SWIDTH 585 0
DWIDTH 13 0
BBX 13 13 0 2
BITMAP
1C00
0F00
1180
12C0
1060
20B0
3190
3818
4308
4378
5F80
9C00
E000
ENDCHAR
STARTCHAR E22E
ENCODING 57902
SWIDTH 585 0
DWIDTH 13 0
BBX 13 8 0 4
BITMAP
0FA0
1FD8
7FE8
9FF8
E9F0
FFC0
09C0
0700
ENDCHAR
STARTCHAR E22F
ENCODING 57903
SWIDTH 585 0
DWIDTH 13 0
BBX 13 13 0 2
BITMAP
E000
F800
FC08
7E78
7EF8
34D8
12F0
02A0
0300
0300
0100
0100
0100
ENDCHAR
STARTCHAR E230
ENCODING 57904
SWIDTH 585 0
DWIDTH 13 0
BBX 13 11 0 3
BITMAP
0400
0780
06C0
06C0
06E0
06C0
0E00
7EF8
CF38
3EE0
0300
ENDCHAR
STARTCHAR E231
ENCODING 57905
SWIDTH 585 0
DWIDTH 13 0
BBX 13 15 0 1
BITMAP
0700
0FC0
1FE0
3FE0
3720
2320
17E0
1CE0
5FD8
EB98
F8E8
0700
DCE8
E018
4018
ENDCHAR
STARTCHAR E232
ENCODING 57906
SWIDTH 585 0
DWIDTH 13 0
BBX 13 13 0 2
BITMAP
0200
1F80
3FC0
7FE0
7FE0
7FE0
3FC8
57C8
F9C0
3FD0
1FD8
1FC0
1F80
ENDCHAR
STARTCHAR E233
ENCODING 57907
SWIDTH 585 0
DWIDTH 13 0
BBX 13 33 0 -8
BITMAP
0700
1FC0
3FF0
7FF0
7FF8
FFF8
FFF8
FFF8
FFF8
FFF8
FFF8
FFF8
FFF8
FFF8
FFF8
FFF8
FFF8
FFF8
FFF8
FFF8
7FF8
0000
0000
0700
0700
0700
0700
0700
0700
0700
0700
0700
0700
ENDCHAR
STARTCHAR E234
ENCODING 57908
SWIDTH 585 0
DWIDTH 13 0
BBX 13 11 0 3
BITMAP
0200
0200
0340
1540
3560
F5B8
1D80
0980
0980
0080
0080
ENDCHAR
STARTCHAR E235
ENCODING 57909
SWIDTH 585 0
DWIDTH 13 0
BBX 13 13 0 1
BITMAP
0F80
13C0
1FC0
7FF0
FFF8
FFF8
F078
EFF8
FFF8
7FF8
1FC0
1F40
0FC0
ENDCHAR
STARTCHAR E236
ENCODING 57910
SWIDTH 585 0
DWIDTH 13 0
BBX 13 13 0 2
BITMAP
0FC0
3FE0
7FF0
7078
F738
E798
E798
E798
F4B8
7278
7F30
3FE0
1FC0
ENDCHAR
STARTCHAR E237
ENCODING 57911
SWIDTH 585 0
DWIDTH 13 0
BBX 13 13 0 2
BITMAP
FFF8
FFF8
FFF8
F8F8
F338
E7B8
E7B8
E7B8
F4B8
F278
FF78
FFF8
FFF8
ENDCHAR
STARTCHAR E238
ENCODING 57912
SWIDTH 585 0
DWIDTH 13 0
BBX 13 13 0 2
BITMAP
1020
3070
7870
78F8
FA78
F778
0780
0700
0480
0780
0F80
1FC0
0F80
ENDCHAR
STARTCHAR E239
ENCODING 57913
SWIDTH 585 0
DWIDTH 13 0
BBX 13 12 0 2
BITMAP
0780
0FC0
0FF0
3FF8
3FF8
FFF8
FFF8
0000
1DA0
2EC0
36C0
3B40
ENDCHAR
STARTCHAR E23A
ENCODING 57914
SWIDTH 585 0
DWIDTH 13 0
BBX 14 20 0 -2
BITMAP
0100
1920
1960
1B60
1B60
3FF0
4FF8
F7F8
FBF4
FDF8
FEE8
FEB8
FF78
7F78
7FB0
3FC0
1FF0
0FE0
07C0
0100
ENDCHAR
STARTCHAR E23B
ENCODING 57915
SWIDTH 585 0
DWIDTH 13 0
BBX 13 30 0 -7
BITMAP
FFF8
BFF8
BFF8
BFF8
BFF8
BFF8
FFF8
0000
FFF8
FFF8
BFF8
BFF8
BFF8
BFF8
BFF8
BFF8
BFF8
BFF8
BFF8
BFF8
BFF8
BFF8
BFF8
BFF8
BFF8
FFF8
FFF8
FFF8
0000
7FF8
ENDCHAR
STARTCHAR E23C
ENCODING 57916
SWIDTH 585 0
DWIDTH 13 0
BBX 13 13 0 2
BITMAP
3FF8
3FF8
FFE8
FFE8
8018
8018
8018
8018
8018
8018
8018
8010
FFE0
ENDCHAR
STARTCHAR E23D
ENCODING 57917
SWIDTH 585 0
DWIDTH 13 0
BBX 13 16 0 0
BITMAP
0FC0
0FC0
0780
1FE0
3030
6018
C018
C008
8008
C008
C008
4018
6010
3070
1FC0
0700
ENDCHAR
STARTCHAR E23E
ENCODING 57918
SWIDTH 585 0
DWIDTH 13 0
BBX 13 11 0 3
BITMAP
1DE0
3A50
6B58
E798
8800
77B8
37B0
1760
0B40
0B80
0600
ENDCHAR
STARTCHAR E23F
ENCODING 57919
SWIDTH 585 0
DWIDTH 13 0
BBX 13 17 0 1
BITMAP
0780
3860
6FD0
3720
58D0
57A8
A8D8
5758
A8D8
6AD8
D558
2D78
DAD0
3558
48B0
3480
0B40
ENDCHAR
STARTCHAR E240
ENCODING 57920
SWIDTH 585 0
DWIDTH 13 0
BBX 13 13 0 2
BITMAP
FFE0
C370
C378
C378
C078
C078
FFF8
FFF8
C018
C018
C018
C018
FFF8
ENDCHAR
STARTCHAR E241
ENCODING 57921
SWIDTH 585 0
DWIDTH 13 0
BBX 13 15 0 1
BITMAP
0040
0070
0078
3078
70F8
F878
F878
F870
78F0
78F0
3CE0
3CE0
1C40
1C00
0C00
ENDCHAR
STARTCHAR E242
ENCODING 57922
SWIDTH 585 0
DWIDTH 13 0
BBX 14 9 0 4
BITMAP
2410
4208
8288
8788
8584
8484
8488
4008
7FD0
ENDCHAR
STARTCHAR E243
ENCODING 57923
SWIDTH 585 0
DWIDTH 13 0
BBX 13 4 0 6
BITMAP
7FE0
BFD8
3FF0
0780
ENDCHAR
STARTCHAR E244
ENCODING 57924
SWIDTH 585 0
DWIDTH 13 0
BBX 13 13 0 2
BITMAP
3FF8
2008
FFF8
8018
8018
8198
8118
8018
8198
9F98
BFD8
8018
FFF0
ENDCHAR
STARTCHAR E245
ENCODING 57925
SWIDTH 585 0
DWIDTH 13 0
BBX 13 7 0 5
BITMAP
0CC0
3020
6038
DFD8
8708
4508
78F0
ENDCHAR
STARTCHAR E246
ENCODING 57926
SWIDTH 585 0
DWIDTH 13 0
BBX 13 12 0 2
BITMAP
0F80
0BC0
1FE0
3FE0
3CF0
78F0
7878
F060
FFF8
7FF0
3FF0
3FE0
ENDCHAR
STARTCHAR E247
ENCODING 57927
SWIDTH 585 0
DWIDTH 13 0
BBX 13 14 0 1
BITMAP
E000
D000
EC00
F700
FBC0
FDF0
FEF8
FF70
FFE0
FF00
FC00
F800
E000
8000
ENDCHAR
STARTCHAR E248
ENCODING 57928
SWIDTH 585 0
DWIDTH 13 0
BBX 13 13 0 2
BITMAP
0200
0200
0780
1840
1220
27A0
E7B8
27A0
3720
1040
0F80
0200
0200
ENDCHAR
STARTCHAR E249
ENCODING 57929
SWIDTH 585 0
DWIDTH 13 0
BBX 13 13 0 2
BITMAP
0FC0
3DE0
7FB0
7FD8
FCF8
FB38
F4D8
E4C8
E9F8
7BF8
7BF0
37E0
1FC0
ENDCHAR
STARTCHAR E24A
ENCODING 57930
SWIDTH 585 0
DWIDTH 13 0
BBX 13 33 0 -8
BITMAP
0700
0700
0700
0700
0700
0000
0300
0300
0300
0300
0300
0300
0300
0300
0300
0300
1BC0
3BE0
3BF0
3BF0
3060
3060
3060
7870
7FF8
FFF8
FFF8
FFF8
FFF8
7FF8
7870
3FE0
0FC0
ENDCHAR
STARTCHAR E24B
ENCODING 57931
SWIDTH 585 0
DWIDTH 13 0
BBX 13 15 0 1
BITMAP
F010
FFF8
FFF8
EFD8
E018
E018
E018
E018
1018
0038
00F8
03F0
03C0
0300
0100
ENDCHAR
STARTCHAR E24C
ENCODING 57932
SWIDTH 585 0
DWIDTH 13 0
BBX 13 9 0 4
BITMAP
2020
3030
B038
B038
BFF8
B038
B038
B038
2030
ENDCHAR
STARTCHAR E24D
ENCODING 57933
SWIDTH 585 0
DWIDTH 13 0
BBX 13 11 0 3
BITMAP
0F80
3FE0
3FF0
7FF0
7FF8
0000
FFF8
FFF8
FFF8
7FF8
7FF8
ENDCHAR
STARTCHAR E24E
ENCODING 57934
SWIDTH 585 0
DWIDTH 13 0
BBX 13 4 0 6
BITMAP
0F80
0F80
FBF8
0FC0
ENDCHAR
STARTCHAR E24F
ENCODING 57935
SWIDTH 585 0
DWIDTH 13 0
BBX 13 15 0 1
BITMAP
0300
0FC0
3FE0
FFF8
FFF8
FFF8
FFF8
FFF8
FFF8
FFF8
FFF8
FFF8
3FF0
1FC0
0700
ENDCHAR
STARTCHAR E250
ENCODING 57936
SWIDTH 585 0
DWIDTH 13 0
BBX 13 12 0 2
BITMAP
4000
E000
F000
F800
7E00
4F20
47F8
43F8
43F8
43F8
41F8
01C0
ENDCHAR
STARTCHAR E251
ENCODING 57937
SWIDTH 585 0
DWIDTH 13 0
BBX 13 13 0 2
BITMAP
7800
B400
EA00
ED00
A680
9B40
4DA0
25D0
1328
09F8
04D8
0248
01F8
ENDCHAR
STARTCHAR E252
ENCODING 57938
SWIDTH 585 0
DWIDTH 13 0
BBX 13 27 0 -5
BITMAP
0700
0380
03C0
0FC0
07C0
3EE0
3FF0
1FF0
7FF0
FFF8
FFF8
FFF8
7FF0
3FF0
3FE0
3FE0
1FE0
1FC0
1FC0
0FC0
0F80
0780
0780
0700
0300
0300
0200
ENDCHAR
STARTCHAR E253
ENCODING 57939
SWIDTH 585 0
DWIDTH 13 0
BBX 13 8 0 4
BITMAP
FFF8
B4A8
B7F8
FC08
FFF8
FFF8
FC08
FFF8
ENDCHAR
STARTCHAR E254
ENCODING 57940
SWIDTH 585 0
DWIDTH 13 0
BBX 13 5 0 6
BITMAP
BDF0
BD78
BD78
BD78
BDF8
ENDCHAR
STARTCHAR E255
ENCODING 57941
SWIDTH 585 0
DWIDTH 13 0
BBX 13 6 0 5
BITMAP
78F8
8588
8308
8708
4C98
3070
ENDCHAR
STARTCHAR E256
ENCODING 57942
SWIDTH 585 0
DWIDTH 13 0
BBX 14 18 0 -1
BITMAP
0080
0080
0080
0160
0680
0500
0900
0580
0480
0298
7FE4
0008
1FD0
0000
1FC0
E008
7FFC
1FF0
ENDCHAR
STARTCHAR E257
ENCODING 57943
SWIDTH 585 0
DWIDTH 13 0
BBX 13 11 0 3
BITMAP
0200
0F80
3FF0
FFF8
1FE0
C708
3070
0F80
E038
1CC0
0300
ENDCHAR
STARTCHAR E258
ENCODING 57944
SWIDTH 585 0
DWIDTH 13 0
BBX 13 9 0 4
BITMAP
0D80
1EE0
3FF0
7FF8
E038
FFF8
7FF8
7FF0
0FC0
ENDCHAR
STARTCHAR E259
ENCODING 57945
SWIDTH 585 0
DWIDTH 13 0
BBX 11 33 1 -8
BITMAP
0080
0780
0F80
1F80
3F80
3F80
3F80
3F80
3F80
3F80
3F80
3F80
3F80
7FC0
7FC0
7FC0
7FC0
7FC0
7FC0
7FC0
7FC0
7FC0
FFE0
FFE0
FFE0
FFE0
FFE0
FFE0
FFE0
FFE0
FFE0
FFE0
FFE0
ENDCHAR
STARTCHAR E25A
ENCODING 57946
SWIDTH 585 0
DWIDTH 13 0
BBX 13 9 0 4
BITMAP
08C0
7F78
FFF8
FFF0
FFE0
FF00
FC00
E800
4000
ENDCHAR
STARTCHAR E25B
ENCODING 57947
SWIDTH 585 0
DWIDTH 13 0
BBX 13 13 0 2
BITMAP
0200
0200
0AC0
3EE0
3FF0
7DF0
FDF8
FDF8
FDF8
FDF8
FCF8
F878
E038
ENDCHAR
STARTCHAR E25C
ENCODING 57948
SWIDTH 585 0
DWIDTH 13 0
BBX 13 31 0 -7
BITMAP
3C00
7E00
FE18
FE18
FE00
7E18
7C18
3C18
3818
3818
3818
3818
3818
3818
1818
0018
1818
1818
1818
1818
1818
1818
1818
1818
1818
1808
1808
1808
1808
1808
1808
ENDCHAR
STARTCHAR E25D
ENCODING 57949
SWIDTH 585 0
DWIDTH 13 0
BBX 13 13 0 2
BITMAP
FFF8
FFF8
8008
8008
8008
8008
8008
8008
8008
8008
8008
8008
FFF8
ENDCHAR
STARTCHAR E25E
ENCODING 57950
SWIDTH 585 0
DWIDTH 13 0
BBX 13 10 0 3
BITMAP
FFF8
FFF8
FFC8
FFF8
FFF8
FFC8
FFF8
FFF8
FFF0
FFF0
ENDCHAR
STARTCHAR E25F
ENCODING 57951
SWIDTH 585 0
DWIDTH 13 0
BBX 13 27 0 -5
BITMAP
0080
0FC0
1FC0
3FE0
7FE0
7FF0
7FF8
FFF8
FE98
FE00
FE00
FF00
FF80
FF80
FFE0
FFC0
7FC0
7FC0
3FC0
7FE0
7FE0
FFE0
FFE0
FFE0
FFE0
7FE0
FFE0
ENDCHAR
STARTCHAR E260
ENCODING 57952
SWIDTH 585 0
DWIDTH 13 0
BBX 11 33 1 -8
BITMAP
0600
0D00
0F00
0400
0200
0F00
7FC0
7FC0
7FC0
3F80
1F80
1F00
1F00
1F00
1F80
3F80
0F00
0F00
0F00
0F00
1F00
1F00
1F80
3F80
3FC0
7FE0
7FC0
7FE0
FFE0
FFE0
FFE0
7FE0
FFE0
ENDCHAR
STARTCHAR E261
ENCODING 57953
SWIDTH 585 0
DWIDTH 13 0
BBX 13 29 0 -6
BITMAP
0780
0FC0
1FC0
1FE0
1FE0
1FE0
1FC0
0780
3FF0
3FF0
3FE0
0780
0F80
0F80
0FC0
0FC0
1FC0
1FE0
1FE0
3FF0
7FF8
7FF0
7FF8
FFF8
FFF8
FFF8
FFF8
7FF8
FFF8
ENDCHAR
STARTCHAR E262
ENCODING 57954
SWIDTH 585 0
DWIDTH 13 0
BBX 13 33 0 -8
BITMAP
0300
0780
0780
0780
0200
7FF0
3FF0
1FE0
1FC0
0FC0
0F80
0F80
0780
1FE0
3FE0
0780
0780
0780
0F80
0F80
0FC0
0FC0
1FC0
1FE0
3FE0
7FF0
7FF0
7FF8
FFF8
FFF8
7FF8
7FF0
FFF8
ENDCHAR
STARTCHAR E263
ENCODING 57955
SWIDTH 585 0
DWIDTH 13 0
BBX 13 25 0 -4
BITMAP
7738
7330
7FF0
3FF0
1FE0
3FE0
1FC0
1FC0
1FE0
1FE0
1FE0
1FE0
1FE0
3FE0
3FE0
3FE0
7FF0
7FF0
7FF8
FFF8
FFF8
FFF8
FFF8
7FF8
FFF8
ENDCHAR
STARTCHAR E264
ENCODING 57956
SWIDTH 585 0
DWIDTH 13 0
BBX 13 11 0 3
BITMAP
00E0
0060
0C60
37E0
FFF8
F398
FFE8
33F8
3FF8
FFF8
3F38
ENDCHAR
STARTCHAR E265
ENCODING 57957
SWIDTH 585 0
DWIDTH 13 0
BBX 13 20 0 -2
BITMAP
0018
0018
0018
0038
0070
03A8
07D8
07F8
07F8
07F8
07F8
0FF0
0FF0
0FE0
1FC0
3F80
3F00
7E00
F800
4000
ENDCHAR
STARTCHAR E266
ENCODING 57958
SWIDTH 585 0
DWIDTH 13 0
BBX 13 13 0 2
BITMAP
0FC0
1FC0
DFD8
5FD8
DFD8
DFD8
1FC0
DFD8
DFD8
1FC0
DFD8
1FC0
1FC0
ENDCHAR
STARTCHAR E267
ENCODING 57959
SWIDTH 585 0
DWIDTH 13 0
BBX 13 11 0 3
BITMAP
0180
0180
0600
0F00
0CC0
2E20
5A58
8688
8688
8488
7878
ENDCHAR
STARTCHAR E268
ENCODING 57960
SWIDTH 585 0
DWIDTH 13 0
BBX 13 7 0 5
BITMAP
0780
0FC0
0FF0
1FF8
3FF8
FFF8
FFF8
ENDCHAR
STARTCHAR E269
ENCODING 57961
SWIDTH 585 0
DWIDTH 13 0
BBX 14 17 0 0
BITMAP
18C0
0880
0F40
17C0
0FC0
0FC0
3FE0
5FF0
BFEC
3FE0
3FE0
3FE0
3FE0
3FE0
3FD0
2FD0
CF88
ENDCHAR
STARTCHAR E26A
ENCODING 57962
SWIDTH 585 0
DWIDTH 13 0
BBX 13 13 0 2
BITMAP
0030
0078
7EE8
7EF8
86D8
FCF8
7870
0F20
1E80
1D80
3700
3F00
1C00
ENDCHAR
STARTCHAR E26B
ENCODING 57963
SWIDTH 585 0
DWIDTH 13 0
BBX 13 5 0 6
BITMAP
0FC0
3070
C1C8
8F08
FFF8
ENDCHAR
STARTCHAR E26C
ENCODING 57964
SWIDTH 585 0
DWIDTH 13 0
BBX 13 13 0 2
BITMAP
0030
0078
00F8
01F0
0360
07E0
0780
0F00
1800
7000
F000
E000
C000
ENDCHAR
STARTCHAR E26D
ENCODING 57965
SWIDTH 585 0
DWIDTH 13 0
BBX 13 16 0 0
BITMAP
8000
4000
7000
3800
9E00
7F00
3F80
3FC0
1FF0
0F98
0708
0608
0208
0108
0190
0060
ENDCHAR
STARTCHAR E26E
ENCODING 57966
SWIDTH 585 0
DWIDTH 13 0
BBX 13 9 0 4
BITMAP
0200
0200
9248
9248
5FD0
3FF0
3FF0
3FE0
3FE0
ENDCHAR
STARTCHAR E26F
ENCODING 57967
SWIDTH 585 0
DWIDTH 13 0
BBX 13 17 0 0
BITMAP
0FC0
1FE0
FFF8
FFF8
7FF8
7FF0
7FF0
7CF0
0000
0000
0000
38F0
3FF0
3FF0
3FF0
3FE0
3FE0
ENDCHAR
STARTCHAR E270
ENCODING 57968
SWIDTH 585 0
DWIDTH 13 0
BBX 13 13 0 2
BITMAP
FFF8
FFF8
E738
E718
FFF8
E7B8
E718
E738
FFF8
E738
E718
FFB8
FFF8
ENDCHAR
STARTCHAR E271
ENCODING 57969
SWIDTH 585 0
DWIDTH 13 0
BBX 13 13 0 2
BITMAP
0F80
3FE0
7FF0
7FF8
F8F8
F078
F338
F278
F878
7FF8
7FF0
3FE0
1FC0
ENDCHAR
STARTCHAR E272
ENCODING 57970
SWIDTH 585 0
DWIDTH 13 0
BBX 13 23 0 -3
BITMAP
8008
C008
FFE8
C008
C008
FFF8
4018
6010
3FB0
3860
1DC0
0F80
3DE0
7070
6FB0
C018
C018
FFE8
C008
C008
FFE8
C008
C008
ENDCHAR
STARTCHAR E273
ENCODING 57971
SWIDTH 585 0
DWIDTH 13 0
BBX 13 11 0 3
BITMAP
0F80
37F0
7CF8
F068
FCF8
EF78
FFF8
BFE8
9688
6210
1FE0
ENDCHAR
STARTCHAR E274
ENCODING 57972
SWIDTH 585 0
DWIDTH 13 0
BBX 13 27 0 -5
BITMAP
1840
3860
1CE0
1FE0
3FE0
3FE0
1FE0
1FE0
1FC0
1FC0
0000
1FC0
1FE0
3FE0
3FE0
3FF0
3FF0
7FF0
7FF0
7FF0
7FF8
7FF8
7FF8
FFF8
FFF8
FFF8
3FF0
ENDCHAR
STARTCHAR E275
ENCODING 57973
SWIDTH 585 0
DWIDTH 13 0
BBX 13 20 0 -2
BITMAP
0200
0700
0780
0F80
0FC0
1FC0
1FE0
3FE0
7FF0
7FF8
FFF8
FFF8
FFF8
FFF8
FFF8
7FF8
7FF0
3FF0
1FC0
0200
ENDCHAR
STARTCHAR E276
ENCODING 57974
SWIDTH 585 0
DWIDTH 13 0
BBX 13 13 0 2
BITMAP
0FC0
3FE0
7FF0
7FF8
FFF8
FFF8
FFF8
EFD8
EFB8
7738
78F0
3FE0
1FC0
ENDCHAR
STARTCHAR E277
ENCODING 57975
SWIDTH 585 0
DWIDTH 13 0
BBX 13 15 0 1
BITMAP
0200
0780
1FC0
3FF0
7FF8
FFF8
FFF8
7FF8
BFE8
CFD8
F738
F8F8
FFF8
FFF8
FFF8
ENDCHAR
STARTCHAR E278
ENCODING 57976
SWIDTH 585 0
DWIDTH 13 0
BBX 13 15 0 1
BITMAP
0700
0C80
1060
6030
C008
8008
8008
8008
C018
B028
98C8
8588
8208
8008
FFF8
ENDCHAR
STARTCHAR E279
ENCODING 57977
SWIDTH 585 0
DWIDTH 13 0
BBX 13 9 0 4
BITMAP
FFF8
FFF8
FFF8
7FF8
0000
0000
FFF8
FFF8
FFF8
ENDCHAR
STARTCHAR E27A
ENCODING 57978
SWIDTH 585 0
DWIDTH 13 0
BBX 13 9 0 4
BITMAP
00C0
00E0
FF70
FF38
0018
FF38
FF70
00E0
00C0
ENDCHAR
STARTCHAR E27B
ENCODING 57979
SWIDTH 585 0
DWIDTH 13 0
BBX 13 12 0 2
BITMAP
0700
0F80
1FC0
3CE0
79F0
F3F8
E4F8
79F8
3BF0
1CE0
0FC0
0780
ENDCHAR
STARTCHAR E27C
ENCODING 57980
SWIDTH 585 0
DWIDTH 13 0
BBX 13 15 0 1
BITMAP
7C00
FD80
FDC0
FDE0
FDF0
FC00
FF80
FF60
FE30
FCF8
FDF8
FE30
FF60
FF90
FFF0
ENDCHAR
STARTCHAR E27D
ENCODING 57981
SWIDTH 585 0
DWIDTH 13 0
BBX 13 15 0 1
BITMAP
7D00
FD80
FDC0
FDE0
FDF0
FC00
FF80
FF20
FE60
FCF8
FDF8
FE60
FF20
FF80
FFF0
ENDCHAR
STARTCHAR E27E
ENCODING 57982
SWIDTH 585 0
DWIDTH 13 0
BBX 13 11 0 3
BITMAP
1800
2400
08E0
F090
0030
FFE0
0000
3FF8
0008
0068
0038
ENDCHAR
STARTCHAR E27F
ENCODING 57983
SWIDTH 585 0
DWIDTH 13 0
BBX 13 13 0 2
BITMAP
0800
15E0
2220
2520
3AE0
58B8
9248
9348
58B0
27E0
2320
2320
1CC0
ENDCHAR
STARTCHAR E280
ENCODING 57984
SWIDTH 585 0
DWIDTH 13 0
BBX 13 17 0 0
BITMAP
7800
FE00
FF00
FF80
7FC0
3FE0
0FF0
27F0
73F8
79F8
79F8
3CF8
3E78
1F80
1FE0
07E0
03E0
ENDCHAR
STARTCHAR E281
ENCODING 57985
SWIDTH 585 0
DWIDTH 13 0
BBX 13 13 0 2
BITMAP
0020
0030
0020
0078
00F8
C1D8
FFF8
7FB8
3F78
01F8
1FF0
1FE0
0780
ENDCHAR
STARTCHAR E282
ENCODING 57986
SWIDTH 585 0
DWIDTH 13 0
BBX 13 10 0 3
BITMAP
00A0
0080
0060
0000
FFF8
7FF8
7FF8
7FF0
3FE0
1020
ENDCHAR
STARTCHAR E283
ENCODING 57987
SWIDTH 585 0
DWIDTH 13 0
BBX 13 12 0 2
BITMAP
7FF0
7FF8
4318
4218
0000
FFF8
FFF8
FFF8
FFF8
FFF8
3070
3020
ENDCHAR
STARTCHAR E284
ENCODING 57988
SWIDTH 585 0
DWIDTH 13 0
BBX 13 15 0 1
BITMAP
0300
0700
0780
7878
E038
E038
4010
4010
4010
E018
E038
F078
0F80
0700
0700
ENDCHAR
STARTCHAR E285
ENCODING 57989
SWIDTH 585 0
DWIDTH 13 0
BBX 13 22 0 -3
BITMAP
7000
F800
FC00
7E00
3F00
1F80
0FC0
07E0
03F0
01F8
00F8
01F8
03F0
07E0
0FC0
1F80
3F00
7E00
FC00
F800
7000
2000
ENDCHAR
STARTCHAR E286
ENCODING 57990
SWIDTH 585 0
DWIDTH 13 0
BBX 14 13 0 2
BITMAP
0480
0840
1040
1040
17C0
08C0
7DF0
94E8
9344
8FC4
0B80
0500
78F0
ENDCHAR
STARTCHAR E287
ENCODING 57991
SWIDTH 585 0
DWIDTH 13 0
BBX 13 13 0 2
BITMAP
0FC0
3FE0
79F0
6078
E078
E638
E018
E018
E798
6018
7030
3FE0
1FC0
ENDCHAR
STARTCHAR E288
ENCODING 57992
SWIDTH 585 0
DWIDTH 13 0
BBX 13 13 0 2
BITMAP
FFF8
FFF8
E078
E078
E778
E078
E018
E798
E798
E018
F038
FFF8
FFF8
ENDCHAR
STARTCHAR E289
ENCODING 57993
SWIDTH 585 0
DWIDTH 13 0
BBX 13 12 0 2
BITMAP
0700
0700
7378
FCF8
FFF8
FFF8
3070
1060
3CE0
37B0
1CE0
1840
ENDCHAR
STARTCHAR E28A
ENCODING 57994
SWIDTH 585 0
DWIDTH 13 0
BBX 13 11 0 3
BITMAP
FDF8
FFF8
FFF8
FFF8
FFF8
FFF8
FFF8
FFF8
FFF8
FFF8
0780
ENDCHAR
STARTCHAR E28B
ENCODING 57995
SWIDTH 585 0
DWIDTH 13 0
BBX 13 11 0 3
BITMAP
FDF8
8308
8208
8208
8208
8208
8208
8208
8208
FEF8
0780
ENDCHAR
STARTCHAR E28C
ENCODING 57996
SWIDTH 585 0
DWIDTH 13 0
BBX 13 13 0 2
BITMAP
0F80
3FC0
7FF0
FFF0
FFF8
FFF8
7FF8
3FF8
1FF8
03F0
01E0
0180
0100
ENDCHAR
STARTCHAR E28D
ENCODING 57997
SWIDTH 585 0
DWIDTH 13 0
BBX 14 11 0 3
BITMAP
0380
04E0
1C30
3018
C008
E078
B0C4
5BB8
2E40
1580
0E00
ENDCHAR
STARTCHAR E28E
ENCODING 57998
SWIDTH 585 0
DWIDTH 13 0
BBX 13 11 0 3
BITMAP
6038
F878
FCF8
FDF8
FFF8
7FF8
3FF0
7FF0
7DF0
3DF0
38E0
ENDCHAR
STARTCHAR E28F
ENCODING 57999
SWIDTH 585 0
DWIDTH 13 0
BBX 13 14 0 1
BITMAP
0018
00A8
00F0
00C0
0340
0580
0F00
1D00
3E00
3C00
7800
F000
E000
8000
ENDCHAR
STARTCHAR E290
ENCODING 58000
SWIDTH 585 0
DWIDTH 13 0
BBX 13 13 0 2
BITMAP
0FC0
3860
6230
4318
C008
8788
8788
8788
C308
4318
6310
3060
1FC0
ENDCHAR
STARTCHAR E291
ENCODING 58001
SWIDTH 585 0
DWIDTH 13 0
BBX 13 13 0 2
BITMAP
0FC0
3860
6030
4018
C008
9FE8
9108
9368
CCC8
4008
6010
3060
1FC0
ENDCHAR
STARTCHAR E292
ENCODING 58002
SWIDTH 585 0
DWIDTH 13 0
BBX 13 13 0 2
BITMAP
0FC0
3860
6030
4218
F788
9C08
8708
81E8
CDB8
4718
6210
3060
1FC0
ENDCHAR
STARTCHAR E293
ENCODING 58003
SWIDTH 585 0
DWIDTH 13 0
BBX 13 13 0 2
BITMAP
0FC0
3860
6030
4798
FE88
9C08
8F08
9FE8
CC38
4798
6110
3060
1FC0
ENDCHAR
STARTCHAR E294
ENCODING 58004
SWIDTH 585 0
DWIDTH 13 0
BBX 13 13 0 2
BITMAP
0FC0
3860
6030
58D8
FC88
9D88
8708
8FC8
CFF8
4318
6310
3060
1FC0
ENDCHAR
STARTCHAR E295
ENCODING 58005
SWIDTH 585 0
DWIDTH 13 0
BBX 13 13 0 2
BITMAP
0FC0
3860
6030
4018
C008
8F88
8008
8F88
C008
4018
6010
3060
1FC0
ENDCHAR
STARTCHAR E296
ENCODING 58006
SWIDTH 585 0
DWIDTH 13 0
BBX 13 13 0 2
BITMAP
0FC0
3860
6030
4E18
CFC8
8FC8
BFC8
BC78
D3E8
4058
6010
3060
1FC0
ENDCHAR
STARTCHAR E297
ENCODING 58007
SWIDTH 585 0
DWIDTH 13 0
BBX 13 13 0 2
BITMAP
0FC0
3860
6030
4718
CFC8
9CC8
88C8
80C8
CCC8
4798
6010
3060
1FC0
ENDCHAR
STARTCHAR E298
ENCODING 58008
SWIDTH 585 0
DWIDTH 13 0
BBX 13 13 0 2
BITMAP
0FC0
3860
6030
4F18
D108
96C8
9448
9448
CC48
4458
6390
3060
1FC0
ENDCHAR
STARTCHAR E299
ENCODING 58009
SWIDTH 585 0
DWIDTH 13 0
BBX 13 13 0 2
BITMAP
0FC0
3860
6030
4798
CD88
8D88
8EC8
8E88
CC88
4798
6210
3060
1FC0
ENDCHAR
STARTCHAR E29A
ENCODING 58010
SWIDTH 585 0
DWIDTH 13 0
BBX 13 17 0 0
BITMAP
FFF8
FFF8
8008
8408
8808
BBE8
9008
8008
9BE8
93E8
8008
8008
9BE8
9008
8008
8008
FFF8
ENDCHAR
STARTCHAR E29B
ENCODING 58011
SWIDTH 585 0
DWIDTH 13 0
BBX 13 15 0 1
BITMAP
0020
00C0
0140
0240
0280
0480
0480
0880
0860
7DF8
FDF8
FDF8
FDF8
FDF8
7CF0
ENDCHAR
STARTCHAR E29C
ENCODING 58012
SWIDTH 585 0
DWIDTH 13 0
BBX 12 33 1 -8
BITMAP
0400
0600
0400
0600
0F00
1700
1F80
3F80
3F80
1F80
0F00
1F80
0F00
0F00
3FC0
1F80
0F00
0F00
0F80
1F80
1F80
3FC0
3FC0
7FE0
7FE0
7FE0
FFE0
FFF0
FFF0
FFF0
FFE0
FFE0
FFE0
ENDCHAR
STARTCHAR E29D
ENCODING 58013
SWIDTH 585 0
DWIDTH 13 0
BBX 13 13 0 2
BITMAP
1FC0
0720
7070
78F8
F078
F238
E798
CFD8
DFC8
7FE8
7FF0
3FE0
1FC0
ENDCHAR
STARTCHAR E29E
ENCODING 58014
SWIDTH 585 0
DWIDTH 13 0
BBX 13 17 0 0
BITMAP
0030
06F0
03E0
03C0
0200
3FF0
7FF8
FFF8
FFF8
FFF8
FFF8
FFF8
7FF8
7FF0
3FE0
1FE0
0F80
ENDCHAR
STARTCHAR E29F
ENCODING 58015
SWIDTH 585 0
DWIDTH 13 0
BBX 13 14 0 1
BITMAP
01F0
03F8
03F8
07F8
07F8
07F8
07F0
07E0
0F00
5800
F000
F000
3000
1000
ENDCHAR
STARTCHAR E2A0
ENCODING 58016
SWIDTH 585 0
DWIDTH 13 0
BBX 13 8 0 4
BITMAP
FFF8
FF78
F578
FF78
FCF8
0300
FFF8
FFF8
ENDCHAR
STARTCHAR E2A1
ENCODING 58017
SWIDTH 585 0
DWIDTH 13 0
BBX 8 33 3 -8
BITMAP
7E
83
EF
2C
2C
E6
82
82
9E
9E
82
9E
BE
BA
BA
BA
BA
BA
BA
BA
BA
BA
DA
6C
10
10
10
10
10
10
10
10
10
ENDCHAR
STARTCHAR E2A2
ENCODING 58018
SWIDTH 585 0
DWIDTH 13 0
BBX 13 15 0 1
BITMAP
0600
3F00
0F00
0FE0
1FB0
07D0
0D60
0920
1920
3000
3000
7000
7780
7FF0
FFF8
ENDCHAR
STARTCHAR E2A3
ENCODING 58019
SWIDTH 585 0
DWIDTH 13 0
BBX 13 21 0 -2
BITMAP
0780
1FE0
3870
6238
CD98
D858
DBD8
DB98
D918
DC38
6FF0
37F0
1FE0
0700
0700
0700
0700
0700
0700
0700
0200
ENDCHAR
STARTCHAR E2A4
ENCODING 58020
SWIDTH 585 0
DWIDTH 13 0
BBX 13 8 0 4
BITMAP
FFF8
FD78
F7F8
FB78
FCF8
0300
FFF8
FFF8
ENDCHAR
STARTCHAR E2A5
ENCODING 58021
SWIDTH 585 0
DWIDTH 13 0
BBX 13 11 0 3
BITMAP
0078
0F88
30F8
5FD8
A3B8
E370
B7C0
BEC0
E380
7F00
3E00
ENDCHAR
STARTCHAR E2A6
ENCODING 58022
SWIDTH 585 0
DWIDTH 13 0
BBX 13 7 0 5
BITMAP
0200
0700
0760
0FE0
5FF0
7FF0
FFF8
ENDCHAR
STARTCHAR E2A7
ENCODING 58023
SWIDTH 585 0
DWIDTH 13 0
BBX 13 21 0 -2
BITMAP
2000
3C00
3E00
1E30
0F60
07C0
01C0
0180
1FC0
3FE0
7FF0
7FF8
FFF8
FFF8
FFF8
FFF8
FFF8
7FF8
7EB0
1FE0
0F80
ENDCHAR
STARTCHAR E2A8
ENCODING 58024
SWIDTH 585 0
DWIDTH 13 0
BBX 13 17 0 0
BITMAP
7980
3D00
3F00
0700
1EE0
7FF0
FFF8
FFF8
FFF8
FFF8
FFF8
FFF8
7FF0
3FF0
1FE0
0F80
0200
ENDCHAR
STARTCHAR E2A9
ENCODING 58025
SWIDTH 585 0
DWIDTH 13 0
BBX 13 23 0 -3
BITMAP
3080
FDC0
7D80
7F00
0300
0780
0F80
0FC0
0FC0
1FC0
1FC0
1FE0
3FE0
7FF0
7FF8
FFF8
FFF8
FFF8
FFF8
FFF8
7FF8
7FF0
1FE0
ENDCHAR
STARTCHAR E300
ENCODING 58112
SWIDTH 585 0
DWIDTH 13 0
BBX 13 12 0 3
BITMAP
0080
0080
0410
05C0
1B20
11A8
6C60
0220
FC30
F7C0
1000
3000
ENDCHAR
STARTCHAR E301
ENCODING 58113
SWIDTH 585 0
DWIDTH 13 0
BBX 13 11 0 4
BITMAP
0080
0080
0410
05C0
1B20
11A8
6060
0020
7C30
FFC0
3E00
ENDCHAR
STARTCHAR E302
ENCODING 58114
SWIDTH 585 0
DWIDTH 13 0
BBX 12 10 1 5
BITMAP
0200
0200
1860
1F80
2480
42B0
8180
8080
80E0
FF00
ENDCHAR
STARTCHAR E303
ENCODING 58115
SWIDTH 585 0
DWIDTH 13 0
BBX 13 11 0 4
BITMAP
0080
0080
0410
07C0
1920
11A8
6060
0000
7FF0
FF80
3FE0
ENDCHAR
STARTCHAR E304
ENCODING 58116
SWIDTH 585 0
DWIDTH 13 0
BBX 12 13 1 2
BITMAP
0200
0200
1860
1F80
2480
42B0
8180
8080
9AA0
ED00
3400
0000
1000
ENDCHAR
STARTCHAR E305
ENCODING 58117
SWIDTH 585 0
DWIDTH 13 0
BBX 12 13 1 2
BITMAP
0200
0200
1860
1F80
2480
42B0
8180
8C80
88E0
DD00
0800
1000
1000
ENDCHAR
STARTCHAR E306
ENCODING 58118
SWIDTH 585 0
DWIDTH 13 0
BBX 12 13 1 2
BITMAP
0200
0200
1860
1F80
2480
42B0
8180
8080
92E0
ED00
2400
0000
1000
ENDCHAR
STARTCHAR E307
ENCODING 58119
SWIDTH 585 0
DWIDTH 13 0
BBX 12 13 1 2
BITMAP
0200
0100
1860
1F80
2480
4270
8180
8080
80A0
D700
2A00
5400
2000
ENDCHAR
STARTCHAR E308
ENCODING 58120
SWIDTH 585 0
DWIDTH 13 0
BBX 12 13 1 2
BITMAP
0200
0200
1860
1F80
2480
42B0
8180
8080
9AA0
ED00
2C00
1000
1000
ENDCHAR
STARTCHAR E309
ENCODING 58121
SWIDTH 585 0
DWIDTH 13 0
BBX 12 13 1 2
BITMAP
0200
0200
1860
1F80
2480
42B0
8180
8080
92E0
C900
2400
1000
1000
ENDCHAR
STARTCHAR E30A
ENCODING 58122
SWIDTH 585 0
DWIDTH 13 0
BBX 12 13 1 2
BITMAP
0200
0200
1860
1F80
2480
42B0
8180
8080
88E0
E500
0800
2400
0800
ENDCHAR
STARTCHAR E30B
ENCODING 58123
SWIDTH 585 0
DWIDTH 13 0
BBX 12 11 1 4
BITMAP
0200
0200
1860
1F80
2480
42B0
8980
A080
B8E0
CD00
0C00
ENDCHAR
STARTCHAR E30C
ENCODING 58124
SWIDTH 585 0
DWIDTH 13 0
BBX 11 10 1 4
BITMAP
0400
2440
2680
0900
1080
D8E0
2700
4200
42C0
3C00
ENDCHAR
STARTCHAR E30D
ENCODING 58125
SWIDTH 585 0
DWIDTH 13 0
BBX 10 10 2 3
BITMAP
0800
4900
2D00
1200
E2C0
2200
1C00
6100
0800
0800
ENDCHAR
STARTCHAR E30E
ENCODING 58126
SWIDTH 585 0
DWIDTH 13 0
BBX 12 13 1 2
BITMAP
0200
0200
1860
1F80
2480
42B0
8180
8080
A2E0
E900
6400
5000
5000
ENDCHAR
STARTCHAR E30F
ENCODING 58127
SWIDTH 585 0
DWIDTH 13 0
BBX 12 13 1 2
BITMAP
0200
0200
1860
1F80
2480
42B0
8180
8080
AAE0
ED00
6C00
3000
4000
ENDCHAR
STARTCHAR E310
ENCODING 58128
SWIDTH 585 0
DWIDTH 13 0
BBX 10 9 2 3
BITMAP
0C00
1200
2100
4CC0
0440
F840
EF80
1000
6000
ENDCHAR
STARTCHAR E311
ENCODING 58129
SWIDTH 585 0
DWIDTH 13 0
BBX 11 8 1 4
BITMAP
0600
0900
10C0
2020
0020
7C20
FBC0
3E00
ENDCHAR
STARTCHAR E312
ENCODING 58130
SWIDTH 585 0
DWIDTH 13 0
BBX 10 7 2 5
BITMAP
0600
3900
4580
C640
8140
8180
FE00
ENDCHAR
STARTCHAR E313
ENCODING 58131
SWIDTH 585 0
DWIDTH 13 0
BBX 11 8 1 4
BITMAP
0600
1900
1180
6040
0020
7FE0
FF80
3FE0
ENDCHAR
STARTCHAR E314
ENCODING 58132
SWIDTH 585 0
DWIDTH 13 0
BBX 9 10 2 2
BITMAP
0800
3600
2300
C080
8080
9680
5B80
2800
0000
0800
ENDCHAR
STARTCHAR E315
ENCODING 58133
SWIDTH 585 0
DWIDTH 13 0
BBX 6 8 4 4
BITMAP
0C
68
DC
E8
50
40
80
80
ENDCHAR
STARTCHAR E316
ENCODING 58134
SWIDTH 585 0
DWIDTH 13 0
BBX 9 10 2 2
BITMAP
0800
3600
2300
C080
8080
9280
5B80
2400
0800
0800
ENDCHAR
STARTCHAR E317
ENCODING 58135
SWIDTH 585 0
DWIDTH 13 0
BBX 9 10 2 2
BITMAP
0800
3600
2300
C080
8080
8080
5580
2A00
5400
1000
ENDCHAR
STARTCHAR E318
ENCODING 58136
SWIDTH 585 0
DWIDTH 13 0
BBX 9 10 2 2
BITMAP
0800
3600
2300
C080
8080
9680
5B80
2C00
0800
0800
ENDCHAR
STARTCHAR E319
ENCODING 58137
SWIDTH 585 0
DWIDTH 13 0
BBX 9 10 2 2
BITMAP
1800
2600
2300
C080
8080
9280
4980
2200
0800
0800
ENDCHAR
STARTCHAR E31A
ENCODING 58138
SWIDTH 585 0
DWIDTH 13 0
BBX 9 10 2 2
BITMAP
0800
3600
2300
C080
8080
8880
5380
0800
1200
0800
ENDCHAR
STARTCHAR E31B
ENCODING 58139
SWIDTH 585 0
DWIDTH 13 0
BBX 9 8 2 4
BITMAP
0800
3600
2300
C480
9080
9480
4D80
0C00
ENDCHAR
STARTCHAR E31C
ENCODING 58140
SWIDTH 585 0
DWIDTH 13 0
BBX 9 10 2 2
BITMAP
1800
2600
2300
C080
8080
B280
6980
7200
2800
4800
ENDCHAR
STARTCHAR E31D
ENCODING 58141
SWIDTH 585 0
DWIDTH 13 0
BBX 9 10 2 2
BITMAP
1800
2600
2300
C080
8080
B680
6B80
7A00
2800
2800
ENDCHAR
STARTCHAR E31E
ENCODING 58142
SWIDTH 585 0
DWIDTH 13 0
BBX 9 4 2 6
BITMAP
7E00
0000
FD80
3F00
ENDCHAR
STARTCHAR E31F
ENCODING 58143
SWIDTH 585 0
DWIDTH 13 0
BBX 11 10 1 3
BITMAP
0080
0740
0940
10A0
2460
4220
FC20
F7C0
0800
3000
ENDCHAR
STARTCHAR E320
ENCODING 58144
SWIDTH 585 0
DWIDTH 13 0
BBX 12 9 1 4
BITMAP
00C0
0740
0940
10B0
2060
0020
7C20
FBC0
3E00
ENDCHAR
STARTCHAR E321
ENCODING 58145
SWIDTH 585 0
DWIDTH 13 0
BBX 10 11 2 2
BITMAP
0100
1F00
2480
4340
8080
8080
9A80
6B00
2C00
0000
1000
ENDCHAR
STARTCHAR E322
ENCODING 58146
SWIDTH 585 0
DWIDTH 13 0
BBX 10 10 2 3
BITMAP
0100
1F00
2480
4340
8080
8C80
8880
5D00
0800
1000
ENDCHAR
STARTCHAR E323
ENCODING 58147
SWIDTH 585 0
DWIDTH 13 0
BBX 10 11 2 2
BITMAP
0100
1F00
2480
4340
8080
8080
9280
6D00
2400
0000
1000
ENDCHAR
STARTCHAR E324
ENCODING 58148
SWIDTH 585 0
DWIDTH 13 0
BBX 10 11 2 2
BITMAP
0100
1F00
2480
4340
8080
8080
8080
5500
2A00
5400
2000
ENDCHAR
STARTCHAR E325
ENCODING 58149
SWIDTH 585 0
DWIDTH 13 0
BBX 10 11 2 2
BITMAP
0100
1F00
2480
4340
8080
8080
9A80
5B00
2C00
0800
1000
ENDCHAR
STARTCHAR E326
ENCODING 58150
SWIDTH 585 0
DWIDTH 13 0
BBX 10 11 2 2
BITMAP
0100
1F00
2480
4340
8080
8080
9280
4900
2400
1000
1000
ENDCHAR
STARTCHAR E327
ENCODING 58151
SWIDTH 585 0
DWIDTH 13 0
BBX 10 11 2 2
BITMAP
0100
1F00
2480
4340
8080
8080
8880
5500
0800
1400
0800
ENDCHAR
STARTCHAR E328
ENCODING 58152
SWIDTH 585 0
DWIDTH 13 0
BBX 10 9 2 4
BITMAP
0100
1F00
2480
4340
8880
9080
B880
4D00
0C00
ENDCHAR
STARTCHAR E329
ENCODING 58153
SWIDTH 585 0
DWIDTH 13 0
BBX 10 11 2 2
BITMAP
0100
1F00
2480
4340
8080
8080
B280
6900
7400
3000
5000
ENDCHAR
STARTCHAR E32A
ENCODING 58154
SWIDTH 585 0
DWIDTH 13 0
BBX 10 11 2 2
BITMAP
0100
1F00
2480
4340
8080
8080
BA80
6B00
7C00
2800
1000
ENDCHAR
STARTCHAR E32B
ENCODING 58155
SWIDTH 585 0
DWIDTH 13 0
BBX 7 7 3 5
BITMAP
10
68
48
86
42
44
38
ENDCHAR
STARTCHAR E32C
ENCODING 58156
SWIDTH 585 0
DWIDTH 13 0
BBX 11 9 1 3
BITMAP
07C0
0920
10A0
2660
4220
FC20
F7C0
0800
3000
ENDCHAR
STARTCHAR E32D
ENCODING 58157
SWIDTH 585 0
DWIDTH 13 0
BBX 11 8 1 4
BITMAP
06E0
0920
10E0
2020
0020
7C20
FBC0
3E00
ENDCHAR
STARTCHAR E32E
ENCODING 58158
SWIDTH 585 0
DWIDTH 13 0
BBX 10 7 2 5
BITMAP
1B80
2440
6340
8080
8080
8080
7F00
ENDCHAR
STARTCHAR E32F
ENCODING 58159
SWIDTH 585 0
DWIDTH 13 0
BBX 10 10 2 2
BITMAP
1B80
2440
4340
8080
8080
9A80
6B00
2C00
0000
1000
ENDCHAR
STARTCHAR E330
ENCODING 58160
SWIDTH 585 0
DWIDTH 13 0
BBX 10 9 2 3
BITMAP
1B80
2440
4340
8080
8C80
8880
5D00
0800
0800
ENDCHAR
STARTCHAR E331
ENCODING 58161
SWIDTH 585 0
DWIDTH 13 0
BBX 10 10 2 2
BITMAP
1B80
2440
4340
8080
8080
9280
6D00
2400
0000
1000
ENDCHAR
STARTCHAR E332
ENCODING 58162
SWIDTH 585 0
DWIDTH 13 0
BBX 10 10 2 2
BITMAP
1B80
2440
4340
8080
8080
8080
D580
2A00
5400
1000
ENDCHAR
STARTCHAR E333
ENCODING 58163
SWIDTH 585 0
DWIDTH 13 0
BBX 10 10 2 2
BITMAP
1B80
2440
4340
8080
8080
9A80
5B00
2C00
0800
1000
ENDCHAR
STARTCHAR E334
ENCODING 58164
SWIDTH 585 0
DWIDTH 13 0
BBX 10 10 2 2
BITMAP
1B80
2440
4340
8080
8080
9280
4900
2400
1000
1000
ENDCHAR
STARTCHAR E335
ENCODING 58165
SWIDTH 585 0
DWIDTH 13 0
BBX 10 10 2 2
BITMAP
1B80
2440
4340
8080
8080
8880
5300
0800
1200
0800
ENDCHAR
STARTCHAR E336
ENCODING 58166
SWIDTH 585 0
DWIDTH 13 0
BBX 10 8 2 4
BITMAP
1B80
2440
4340
8480
9080
9880
4D00
0C00
ENDCHAR
STARTCHAR E337
ENCODING 58167
SWIDTH 585 0
DWIDTH 13 0
BBX 10 10 2 2
BITMAP
1B80
2440
4340
8080
8080
B280
6900
7400
2800
5000
ENDCHAR
STARTCHAR E338
ENCODING 58168
SWIDTH 585 0
DWIDTH 13 0
BBX 10 10 2 2
BITMAP
1B80
2440
4340
8080
8080
BA80
6B00
7C00
2800
5000
ENDCHAR
STARTCHAR E339
ENCODING 58169
SWIDTH 585 0
DWIDTH 13 0
BBX 13 12 0 1
BITMAP
70F0
9918
8B08
7200
0200
0200
0200
0200
0300
0108
01F8
0060
ENDCHAR
STARTCHAR E33A
ENCODING 58170
SWIDTH 585 0
DWIDTH 13 0
BBX 9 7 2 5
BITMAP
1800
2600
2300
C880
8880
9C80
4980
ENDCHAR
STARTCHAR E33B
ENCODING 58171
SWIDTH 585 0
DWIDTH 13 0
BBX 9 7 2 5
BITMAP
1800
2600
2300
CC80
9880
9280
5D80
ENDCHAR
STARTCHAR E33C
ENCODING 58172
SWIDTH 585 0
DWIDTH 13 0
BBX 9 7 2 5
BITMAP
1800
2600
2300
C880
9C80
8880
4980
ENDCHAR
STARTCHAR E33D
ENCODING 58173
SWIDTH 585 0
DWIDTH 13 0
BBX 9 7 2 5
BITMAP
1800
2600
2300
C080
8080
8080
7F80
ENDCHAR
STARTCHAR E33E
ENCODING 58174
SWIDTH 585 0
DWIDTH 13 0
BBX 5 4 4 11
BITMAP
78
C8
48
70
ENDCHAR
STARTCHAR E33F
ENCODING 58175
SWIDTH 585 0
DWIDTH 13 0
BBX 8 8 3 5
BITMAP
03
07
0E
9C
B8
F0
E0
F8
ENDCHAR
STARTCHAR E340
ENCODING 58176
SWIDTH 585 0
DWIDTH 13 0
BBX 8 13 3 2
BITMAP
18
18
18
18
18
18
18
18
DB
FF
7E
3C
18
ENDCHAR
STARTCHAR E341
ENCODING 58177
SWIDTH 585 0
DWIDTH 13 0
BBX 13 12 0 1
BITMAP
71F8
9100
9900
F100
2100
01F0
0100
0100
0100
0100
0100
0100
ENDCHAR
STARTCHAR E342
ENCODING 58178
SWIDTH 585 0
DWIDTH 13 0
BBX 10 8 2 5
BITMAP
0800
0800
6100
1C00
2200
E2C0
0000
FF80
ENDCHAR
STARTCHAR E343
ENCODING 58179
SWIDTH 585 0
DWIDTH 13 0
BBX 9 6 2 5
BITMAP
0800
4880
2100
1E00
2000
FF80
ENDCHAR
STARTCHAR E344
ENCODING 58180
SWIDTH 585 0
DWIDTH 13 0
BBX 13 8 0 4
BITMAP
1800
3800
7000
FFF8
FFF8
7000
3800
1800
ENDCHAR
STARTCHAR E345
ENCODING 58181
SWIDTH 585 0
DWIDTH 13 0
BBX 5 5 4 6
BITMAP
F8
58
00
30
60
ENDCHAR
STARTCHAR E346
ENCODING 58182
SWIDTH 585 0
DWIDTH 13 0
BBX 11 9 1 4
BITMAP
0080
0740
1940
11A0
6040
0020
7FE0
FF80
3FE0
ENDCHAR
STARTCHAR E347
ENCODING 58183
SWIDTH 585 0
DWIDTH 13 0
BBX 8 14 3 2
BITMAP
04
0C
0E
3F
76
CC
C0
80
80
C0
C0
70
3C
04
ENDCHAR
STARTCHAR E348
ENCODING 58184
SWIDTH 585 0
DWIDTH 13 0
BBX 13 16 0 0
BITMAP
0600
0700
0F80
1F80
3F80
7700
E600
C000
C018
C018
E018
6038
7070
3FF0
1FC0
0200
ENDCHAR
STARTCHAR E349
ENCODING 58185
SWIDTH 585 0
DWIDTH 13 0
BBX 13 8 0 5
BITMAP
00C0
00E0
0070
FFF8
FFF8
0070
0060
00C0
ENDCHAR
STARTCHAR E34A
ENCODING 58186
SWIDTH 585 0
DWIDTH 13 0
BBX 4 5 5 6
BITMAP
A0
80
20
70
20
ENDCHAR
STARTCHAR E34B
ENCODING 58187
SWIDTH 585 0
DWIDTH 13 0
BBX 11 6 1 5
BITMAP
0060
0020
FFE0
FF00
0080
0300
ENDCHAR
STARTCHAR E34C
ENCODING 58188
SWIDTH 585 0
DWIDTH 13 0
BBX 11 9 1 5
BITMAP
0400
0400
2040
2680
1900
1100
D160
0600
1B80
ENDCHAR
STARTCHAR E34D
ENCODING 58189
SWIDTH 585 0
DWIDTH 13 0
BBX 11 9 1 4
BITMAP
0400
2440
2680
0900
1100
D160
0000
1B80
0600
ENDCHAR
STARTCHAR E34E
ENCODING 58190
SWIDTH 585 0
DWIDTH 13 0
BBX 13 29 0 -6
BITMAP
0780
0FC0
1CC0
18E0
18E0
18E0
18E0
18E0
18E0
18E0
18E0
18E0
18E0
18E0
18E0
18E0
18E0
38E0
7870
6038
E018
C018
C018
C018
E018
6038
7870
3FE0
0FC0
ENDCHAR
STARTCHAR E34F
ENCODING 58191
SWIDTH 585 0
DWIDTH 13 0
BBX 7 17 3 -3
BITMAP
10
10
10
10
10
10
10
10
10
10
38
7C
7E
FE
7E
7C
38
ENDCHAR
STARTCHAR E350
ENCODING 58192
SWIDTH 585 0
DWIDTH 13 0
BBX 13 29 0 -6
BITMAP
0780
0FC0
1CC0
18E0
18E0
18E0
18E0
18E0
18E0
1AE0
1AE0
1AE0
1AE0
1AE0
1AE0
1AE0
1AE0
3AE0
7A70
6738
EF98
CFD8
DFD8
DFD8
EF98
6738
7870
3FE0
0FC0
ENDCHAR
STARTCHAR E351
ENCODING 58193
SWIDTH 585 0
DWIDTH 13 0
BBX 6 7 4 5
BITMAP
78
84
F8
F0
E0
C0
C0
ENDCHAR
STARTCHAR E352
ENCODING 58194
SWIDTH 585 0
DWIDTH 13 0
BBX 8 8 3 5
BITMAP
3F
1F
0F
1B
33
60
C0
80
ENDCHAR
STARTCHAR E353
ENCODING 58195
SWIDTH 585 0
DWIDTH 13 0
BBX 8 13 3 2
BITMAP
38
7C
FE
DF
9B
18
18
18
18
18
18
18
10
ENDCHAR
STARTCHAR E354
ENCODING 58196
SWIDTH 585 0
DWIDTH 13 0
BBX 13 13 0 2
BITMAP
0F80
3CE0
7030
6018
C808
C608
C7C8
C708
CC08
4018
6030
3860
1FC0
ENDCHAR
STARTCHAR E355
ENCODING 58197
SWIDTH 585 0
DWIDTH 13 0
BBX 13 13 0 2
BITMAP
0F80
3CE0
7030
6018
C048
C188
CF88
C708
C308
4118
6030
3860
1FC0
ENDCHAR
STARTCHAR E356
ENCODING 58198
SWIDTH 585 0
DWIDTH 13 0
BBX 13 13 0 2
BITMAP
0F80
3CE0
7030
6018
C808
C608
C7C8
C388
C308
4218
6030
3860
1FC0
ENDCHAR
STARTCHAR E357
ENCODING 58199
SWIDTH 585 0
DWIDTH 13 0
BBX 13 13 0 2
BITMAP
0F80
3DE0
7030
6018
C218
C308
C708
C708
CD88
4018
6030
3860
1FC0
ENDCHAR
STARTCHAR E358
ENCODING 58200
SWIDTH 585 0
DWIDTH 13 0
BBX 13 13 0 2
BITMAP
0F80
3CE0
7030
6218
C208
C708
DF08
C708
C088
4018
6030
3860
1FC0
ENDCHAR
STARTCHAR E359
ENCODING 58201
SWIDTH 585 0
DWIDTH 13 0
BBX 13 13 0 2
BITMAP
0F80
3CE0
7030
6218
C308
C308
C3C8
C708
C408
4018
6030
3860
1FC0
ENDCHAR
STARTCHAR E35A
ENCODING 58202
SWIDTH 585 0
DWIDTH 13 0
BBX 13 13 0 2
BITMAP
0F80
3DE0
7030
6018
C888
C788
C708
C308
C208
4218
6030
3860
1FC0
ENDCHAR
STARTCHAR E35B
ENCODING 58203
SWIDTH 585 0
DWIDTH 13 0
BBX 13 13 0 2
BITMAP
0F80
3CE0
7030
6018
C088
C388
8F08
C388
C088
4018
6030
3860
1FC0
ENDCHAR
STARTCHAR E35C
ENCODING 58204
SWIDTH 585 0
DWIDTH 13 0
BBX 8 9 3 4
BITMAP
38
44
86
81
81
62
1C
18
08
ENDCHAR
STARTCHAR E35D
ENCODING 58205
SWIDTH 585 0
DWIDTH 13 0
BBX 7 4 3 6
BITMAP
DE
7E
FE
34
ENDCHAR
STARTCHAR E35E
ENCODING 58206
SWIDTH 585 0
DWIDTH 13 0
BBX 9 10 2 2
BITMAP
0800
3600
2300
C080
8080
8880
5380
0800
2400
0800
ENDCHAR
STARTCHAR E35F
ENCODING 58207
SWIDTH 585 0
DWIDTH 13 0
BBX 12 13 1 2
BITMAP
0200
0200
1860
1F80
2480
42B0
8180
8080
88E0
E500
0800
2400
1000
ENDCHAR
STARTCHAR E360
ENCODING 58208
SWIDTH 585 0
DWIDTH 13 0
BBX 10 10 2 2
BITMAP
1B80
2440
4340
8080
8080
8880
5300
0800
2400
1000
ENDCHAR
STARTCHAR E361
ENCODING 58209
SWIDTH 585 0
DWIDTH 13 0
BBX 10 11 2 2
BITMAP
0100
1F00
2480
4340
8080
8080
8880
6500
0800
2400
1000
ENDCHAR
STARTCHAR E362
ENCODING 58210
SWIDTH 585 0
DWIDTH 13 0
BBX 12 13 1 2
BITMAP
0200
0200
1860
1F80
2480
42B0
8180
8080
A0E0
ED00
6400
4000
5000
ENDCHAR
STARTCHAR E363
ENCODING 58211
SWIDTH 585 0
DWIDTH 13 0
BBX 10 10 2 2
BITMAP
1B80
2440
4340
8080
8080
B080
6B80
7400
2800
5000
ENDCHAR
STARTCHAR E364
ENCODING 58212
SWIDTH 585 0
DWIDTH 13 0
BBX 10 11 2 2
BITMAP
0100
1F00
2480
4340
8080
8080
B080
6D00
7400
2000
5000
ENDCHAR
STARTCHAR E365
ENCODING 58213
SWIDTH 585 0
DWIDTH 13 0
BBX 12 13 1 2
BITMAP
0200
0200
1860
1F80
2480
42B0
8180
8080
A8E0
E500
6800
4400
4800
ENDCHAR
STARTCHAR E366
ENCODING 58214
SWIDTH 585 0
DWIDTH 13 0
BBX 10 10 2 2
BITMAP
1B80
2440
4340
8080
8080
B880
6380
7800
2200
4800
ENDCHAR
STARTCHAR E367
ENCODING 58215
SWIDTH 585 0
DWIDTH 13 0
BBX 10 11 2 2
BITMAP
0100
1F00
2480
4340
8080
8080
B880
6500
7800
2400
4800
ENDCHAR
STARTCHAR E368
ENCODING 58216
SWIDTH 585 0
DWIDTH 13 0
BBX 13 13 0 2
BITMAP
0200
0200
2030
1320
0D80
0F40
DF58
0F40
0E80
0700
3020
2210
0200
ENDCHAR
STARTCHAR E369
ENCODING 58217
SWIDTH 585 0
DWIDTH 13 0
BBX 7 7 3 5
BITMAP
18
6C
7A
FA
7A
74
38
ENDCHAR
STARTCHAR E36A
ENCODING 58218
SWIDTH 585 0
DWIDTH 13 0
BBX 7 10 3 4
BITMAP
02
02
06
1E
1C
3E
5C
88
88
70
ENDCHAR
STARTCHAR E36B
ENCODING 58219
SWIDTH 585 0
DWIDTH 13 0
BBX 10 9 2 4
BITMAP
0800
4900
2D00
1200
E2C0
1A00
2A00
1700
1600
ENDCHAR
STARTCHAR E36C
ENCODING 58220
SWIDTH 585 0
DWIDTH 13 0
BBX 4 7 5 5
BITMAP
60
80
E0
90
A0
60
40
ENDCHAR
STARTCHAR E36D
ENCODING 58221
SWIDTH 585 0
DWIDTH 13 0
BBX 8 9 3 4
BITMAP
38
78
FE
FF
FE
7E
1C
18
08
ENDCHAR
STARTCHAR E36E
ENCODING 58222
SWIDTH 585 0
DWIDTH 13 0
BBX 7 7 3 5
BITMAP
3C
7E
7E
9A
52
3C
38
ENDCHAR
STARTCHAR E36F
ENCODING 58223
SWIDTH 585 0
DWIDTH 13 0
BBX 7 7 3 5
BITMAP
10
54
38
FE
38
54
10
ENDCHAR
STARTCHAR E370
ENCODING 58224
SWIDTH 585 0
DWIDTH 13 0
BBX 9 9 2 4
BITMAP
1000
1000
7C00
1100
4380
C900
4900
1C00
0800
ENDCHAR
STARTCHAR E371
ENCODING 58225
SWIDTH 585 0
DWIDTH 13 0
BBX 5 6 4 6
BITMAP
20
30
78
F8
F8
78
ENDCHAR
STARTCHAR E372
ENCODING 58226
SWIDTH 585 0
DWIDTH 13 0
BBX 7 8 3 4
BITMAP
3C
7A
8A
D6
52
64
18
18
ENDCHAR
STARTCHAR E373
ENCODING 58227
SWIDTH 585 0
DWIDTH 13 0
BBX 7 8 3 4
BITMAP
18
3C
54
76
DA
EE
7A
3C
ENDCHAR
STARTCHAR E374
ENCODING 58228
SWIDTH 585 0
DWIDTH 13 0
BBX 7 3 3 7
BITMAP
AC
EE
FE
ENDCHAR
STARTCHAR E375
ENCODING 58229
SWIDTH 585 0
DWIDTH 13 0
BBX 8 7 3 5
BITMAP
10
38
10
10
A9
FF
FF
ENDCHAR
STARTCHAR E376
ENCODING 58230
SWIDTH 585 0
DWIDTH 13 0
BBX 10 9 2 4
BITMAP
3000
4800
C680
8300
8100
FFC0
0E00
1080
0400
ENDCHAR
STARTCHAR E377
ENCODING 58231
SWIDTH 585 0
DWIDTH 13 0
BBX 10 9 2 4
BITMAP
3C00
4200
C300
8080
8080
8180
7E40
0440
0380
ENDCHAR
STARTCHAR E378
ENCODING 58232
SWIDTH 585 0
DWIDTH 13 0
BBX 10 9 2 4
BITMAP
3C00
4200
C300
8080
8080
81C0
7E40
0440
0380
ENDCHAR
STARTCHAR E379
ENCODING 58233
SWIDTH 585 0
DWIDTH 13 0
BBX 8 8 3 4
BITMAP
08
14
24
33
4A
84
84
78
ENDCHAR
STARTCHAR E37A
ENCODING 58234
SWIDTH 585 0
DWIDTH 13 0
BBX 11 7 1 5
BITMAP
1000
4560
0020
FFE0
FF40
0080
5700
ENDCHAR
STARTCHAR E37B
ENCODING 58235
SWIDTH 585 0
DWIDTH 13 0
BBX 8 8 3 4
BITMAP
0C
12
22
31
4A
84
84
78
ENDCHAR
STARTCHAR E37C
ENCODING 58236
SWIDTH 585 0
DWIDTH 13 0
BBX 9 8 2 4
BITMAP
3E00
4100
8080
FF80
0800
0800
0800
3800
ENDCHAR
STARTCHAR E37D
ENCODING 58237
SWIDTH 585 0
DWIDTH 13 0
BBX 12 12 1 3
BITMAP
0100
0100
0860
0780
0480
3070
0C80
0540
FD20
E100
1000
2000
ENDCHAR
STARTCHAR E37E
ENCODING 58238
SWIDTH 585 0
DWIDTH 13 0
BBX 10 8 2 5
BITMAP
0100
1F00
2480
4340
8080
8080
8080
7F00
ENDCHAR
STARTCHAR E37F
ENCODING 58239
SWIDTH 585 0
DWIDTH 13 0
BBX 8 8 3 5
BITMAP
F8
F8
E0
B0
98
0C
06
03
ENDCHAR
STARTCHAR E380
ENCODING 58240
SWIDTH 585 0
DWIDTH 13 0
BBX 8 8 3 5
BITMAP
80
C0
60
33
1B
0F
07
3F
ENDCHAR
STARTCHAR E381
ENCODING 58241
SWIDTH 585 0
DWIDTH 13 0
BBX 13 13 0 2
BITMAP
0F80
3CE0
7230
6218
C208
C208
C208
C008
C008
4018
6030
3860
1FC0
ENDCHAR
STARTCHAR E382
ENCODING 58242
SWIDTH 585 0
DWIDTH 13 0
BBX 13 13 0 2
BITMAP
0F80
3CE0
7230
6218
C388
C308
C208
C008
C008
4018
6030
3860
1FC0
ENDCHAR
STARTCHAR E383
ENCODING 58243
SWIDTH 585 0
DWIDTH 13 0
BBX 13 13 0 2
BITMAP
0F80
3CE0
7230
6218
C208
C2C8
C308
C008
C008
4018
6030
3860
1FC0
ENDCHAR
STARTCHAR E384
ENCODING 58244
SWIDTH 585 0
DWIDTH 13 0
BBX 13 13 0 2
BITMAP
0F80
3CE0
7230
6218
C208
C208
C3C8
C008
C008
4018
6030
3860
1FC0
ENDCHAR
STARTCHAR E385
ENCODING 58245
SWIDTH 585 0
DWIDTH 13 0
BBX 13 13 0 2
BITMAP
0F80
3CE0
7230
6218
C208
C208
C208
C188
C048
4018
6030
3860
1FC0
ENDCHAR
STARTCHAR E386
ENCODING 58246
SWIDTH 585 0
DWIDTH 13 0
BBX 13 13 0 2
BITMAP
0F80
3CE0
7230
6218
C208
C208
C208
C108
C108
4098
6030
3860
1FC0
ENDCHAR
STARTCHAR E387
ENCODING 58247
SWIDTH 585 0
DWIDTH 13 0
BBX 13 13 0 2
BITMAP
0F80
3CE0
7230
6218
C208
C208
C208
C208
C208
4218
6030
3860
1FC0
ENDCHAR
STARTCHAR E388
ENCODING 58248
SWIDTH 585 0
DWIDTH 13 0
BBX 13 13 0 2
BITMAP
0F80
3CE0
7230
6218
C208
C208
C208
C208
C408
4418
6030
3860
1FC0
ENDCHAR
STARTCHAR E389
ENCODING 58249
SWIDTH 585 0
DWIDTH 13 0
BBX 13 13 0 2
BITMAP
0F80
3CE0
7230
6218
C208
C208
C208
CC08
C808
4018
6030
3860
1FC0
ENDCHAR
STARTCHAR E38A
ENCODING 58250
SWIDTH 585 0
DWIDTH 13 0
BBX 13 13 0 2
BITMAP
0F80
3CE0
7230
6218
C208
C208
DE08
C008
C008
4018
6030
3860
1FC0
ENDCHAR
STARTCHAR E38B
ENCODING 58251
SWIDTH 585 0
DWIDTH 13 0
BBX 13 13 0 2
BITMAP
0F80
3CE0
7230
6218
C208
CE08
C608
C008
C008
4018
6030
3860
1FC0
ENDCHAR
STARTCHAR E38C
ENCODING 58252
SWIDTH 585 0
DWIDTH 13 0
BBX 13 13 0 2
BITMAP
0F80
3CE0
7230
6218
C608
C608
C208
C008
C008
4018
6030
3860
1FC0
ENDCHAR
STARTCHAR E38D
ENCODING 58253
SWIDTH 585 0
DWIDTH 13 0
BBX 13 13 0 2
BITMAP
0FC0
3020
4010
4008
8008
8008
8008
8008
8008
4008
4010
2020
1FC0
ENDCHAR
STARTCHAR E38E
ENCODING 58254
SWIDTH 585 0
DWIDTH 13 0
BBX 6 13 7 2
BITMAP
C0
30
18
0C
0C
0C
0C
0C
0C
0C
18
10
E0
ENDCHAR
STARTCHAR E38F
ENCODING 58255
SWIDTH 585 0
DWIDTH 13 0
BBX 6 13 7 2
BITMAP
C0
30
38
1C
1C
1C
1C
1C
1C
1C
18
30
E0
ENDCHAR
STARTCHAR E390
ENCODING 58256
SWIDTH 585 0
DWIDTH 13 0
BBX 6 13 7 2
BITMAP
C0
70
38
3C
3C
1C
1C
1C
1C
3C
38
30
E0
ENDCHAR
STARTCHAR E391
ENCODING 58257
SWIDTH 585 0
DWIDTH 13 0
BBX 6 13 7 2
BITMAP
C0
70
78
3C
3C
3C
3C
3C
3C
3C
78
70
E0
ENDCHAR
STARTCHAR E392
ENCODING 58258
SWIDTH 585 0
DWIDTH 13 0
BBX 6 13 7 2
BITMAP
C0
F0
78
7C
7C
7C
7C
7C
7C
7C
78
70
E0
ENDCHAR
STARTCHAR E393
ENCODING 58259
SWIDTH 585 0
DWIDTH 13 0
BBX 6 13 7 2
BITMAP
C0
F0
78
7C
7C
7C
7C
7C
7C
7C
78
70
E0
ENDCHAR
STARTCHAR E394
ENCODING 58260
SWIDTH 585 0
DWIDTH 13 0
BBX 6 13 7 2
BITMAP
C0
F0
F8
FC
FC
FC
FC
FC
FC
FC
F8
F0
E0
ENDCHAR
STARTCHAR E395
ENCODING 58261
SWIDTH 585 0
DWIDTH 13 0
BBX 7 13 6 2
BITMAP
60
F8
FC
FE
FE
FE
FE
FE
FE
FE
FC
F8
70
ENDCHAR
STARTCHAR E396
ENCODING 58262
SWIDTH 585 0
DWIDTH 13 0
BBX 8 13 5 2
BITMAP
30
7C
7E
7F
7F
FF
FF
FF
7F
7F
7E
7C
78
ENDCHAR
STARTCHAR E397
ENCODING 58263
SWIDTH 585 0
DWIDTH 13 0
BBX 8 13 5 2
BITMAP
70
7C
FE
FF
FF
FF
FF
FF
FF
FF
FE
7C
78
ENDCHAR
STARTCHAR E398
ENCODING 58264
SWIDTH 585 0
DWIDTH 13 0
BBX 9 13 4 2
BITMAP
3C00
3E00
7F00
7F80
FF80
FF80
FF80
FF80
FF80
FF80
7F00
7E00
3C00
ENDCHAR
STARTCHAR E399
ENCODING 58265
SWIDTH 585 0
DWIDTH 13 0
BBX 9 13 4 2
BITMAP
3800
7E00
7F00
FF80
FF80
FF80
FF80
FF80
FF80
FF80
FF00
7E00
3C00
ENDCHAR
STARTCHAR E39A
ENCODING 58266
SWIDTH 585 0
DWIDTH 13 0
BBX 10 13 3 2
BITMAP
1E00
3F00
7F80
FFC0
FFC0
FFC0
FFC0
FFC0
FFC0
FFC0
7F80
7F00
3E00
ENDCHAR
STARTCHAR E39B
ENCODING 58267
SWIDTH 585 0
DWIDTH 13 0
BBX 13 13 0 2
BITMAP
0F80
3FE0
7FF0
7FF8
FFF8
FFF8
FFF8
FFF8
FFF8
7FF8
7FF0
3FE0
1FC0
ENDCHAR
STARTCHAR E39C
ENCODING 58268
SWIDTH 585 0
DWIDTH 13 0
BBX 11 13 0 2
BITMAP
0F00
3F80
7FC0
7FE0
FFE0
FFE0
FFE0
FFE0
FFE0
7FE0
7FC0
3FC0
1F80
ENDCHAR
STARTCHAR E39D
ENCODING 58269
SWIDTH 585 0
DWIDTH 13 0
BBX 11 13 0 2
BITMAP
0F00
3F80
7F80
7FC0
FFC0
FFC0
FFE0
FFE0
FFC0
7FC0
7FC0
3F80
1F00
ENDCHAR
STARTCHAR E39E
ENCODING 58270
SWIDTH 585 0
DWIDTH 13 0
BBX 10 13 0 2
BITMAP
0E00
3F00
7F80
7F80
FFC0
FFC0
FFC0
FFC0
FFC0
7FC0
7F80
3F80
1F00
ENDCHAR
STARTCHAR E39F
ENCODING 58271
SWIDTH 585 0
DWIDTH 13 0
BBX 9 13 0 2
BITMAP
0E00
3F00
7F00
7F80
FF80
FF80
FF80
FF80
FF80
7F80
7F80
3F00
1F00
ENDCHAR
STARTCHAR E3A0
ENCODING 58272
SWIDTH 585 0
DWIDTH 13 0
BBX 9 13 0 2
BITMAP
0E00
3F00
7F00
7F00
FF00
FF80
FF80
FF80
FF80
7F00
7F00
3F00
1E00
ENDCHAR
STARTCHAR E3A1
ENCODING 58273
SWIDTH 585 0
DWIDTH 13 0
BBX 8 13 0 2
BITMAP
0E
3E
7E
7F
FF
FF
FF
FF
FF
7F
7F
3E
1E
ENDCHAR
STARTCHAR E3A2
ENCODING 58274
SWIDTH 585 0
DWIDTH 13 0
BBX 7 13 0 2
BITMAP
0E
3E
7E
7E
FE
FE
FE
FE
FE
7E
7E
3E
1E
ENDCHAR
STARTCHAR E3A3
ENCODING 58275
SWIDTH 585 0
DWIDTH 13 0
BBX 7 13 0 2
BITMAP
0E
3C
7C
7C
FC
FC
FC
FC
FC
7C
7C
3C
1E
ENDCHAR
STARTCHAR E3A4
ENCODING 58276
SWIDTH 585 0
DWIDTH 13 0
BBX 7 13 0 2
BITMAP
0E
3C
7C
78
F8
F8
F8
F8
F8
78
78
3C
1E
ENDCHAR
STARTCHAR E3A5
ENCODING 58277
SWIDTH 585 0
DWIDTH 13 0
BBX 7 13 0 2
BITMAP
0E
38
78
78
F0
F0
F0
F0
F0
70
78
38
1E
ENDCHAR
STARTCHAR E3A6
ENCODING 58278
SWIDTH 585 0
DWIDTH 13 0
BBX 7 13 0 2
BITMAP
0E
38
70
70
E0
E0
E0
E0
E0
60
70
30
1E
ENDCHAR
STARTCHAR E3A7
ENCODING 58279
SWIDTH 585 0
DWIDTH 13 0
BBX 7 13 0 2
BITMAP
0E
30
60
60
E0
C0
C0
C0
C0
60
60
30
1E
ENDCHAR
STARTCHAR E3A8
ENCODING 58280
SWIDTH 585 0
DWIDTH 13 0
BBX 7 13 0 2
BITMAP
0E
30
60
40
C0
80
80
80
C0
40
60
20
1E
ENDCHAR
STARTCHAR E3A9
ENCODING 58281
SWIDTH 585 0
DWIDTH 13 0
BBX 13 13 0 2
BITMAP
0F80
3DE0
7230
6218
C218
C308
C708
C708
C788
4798
6830
3860
1FC0
ENDCHAR
STARTCHAR E3AA
ENCODING 58282
SWIDTH 585 0
DWIDTH 13 0
BBX 12 13 1 2
BITMAP
0200
0200
1860
1F80
2480
42B0
8180
8080
80E0
ED00
2400
0000
1000
ENDCHAR
STARTCHAR E3AB
ENCODING 58283
SWIDTH 585 0
DWIDTH 13 0
BBX 10 10 2 2
BITMAP
1B80
2440
4340
8080
8080
8080
5B80
2400
0800
1000
ENDCHAR
STARTCHAR E3AC
ENCODING 58284
SWIDTH 585 0
DWIDTH 13 0
BBX 10 11 2 2
BITMAP
0100
1F00
2480
4340
8080
8080
8080
6D00
2400
0000
1000
ENDCHAR
STARTCHAR E3AD
ENCODING 58285
SWIDTH 585 0
DWIDTH 13 0
BBX 9 10 2 2
BITMAP
1800
2600
2300
C080
8080
8080
5B80
2400
0800
1000
ENDCHAR
STARTCHAR E3AE
ENCODING 58286
SWIDTH 585 0
DWIDTH 13 0
BBX 10 8 2 5
BITMAP
0800
0800
6100
1C00
2200
C0C0
7F00
3A00
ENDCHAR
STARTCHAR E3AF
ENCODING 58287
SWIDTH 585 0
DWIDTH 13 0
BBX 11 7 1 5
BITMAP
0180
FF80
FE00
06E0
00A0
00A0
00E0
ENDCHAR
STARTCHAR E3B0
ENCODING 58288
SWIDTH 585 0
DWIDTH 13 0
BBX 10 7 2 5
BITMAP
0180
FF80
FE40
0680
0080
0080
0180
ENDCHAR
STARTCHAR E3B1
ENCODING 58289
SWIDTH 585 0
DWIDTH 13 0
BBX 11 7 1 5
BITMAP
0180
FF80
FE00
06E0
00A0
0060
01E0
ENDCHAR
STARTCHAR E3B2
ENCODING 58290
SWIDTH 585 0
DWIDTH 13 0
BBX 11 7 1 5
BITMAP
0180
FF80
FE00
06E0
0020
0060
01E0
ENDCHAR
STARTCHAR E3B3
ENCODING 58291
SWIDTH 585 0
DWIDTH 13 0
BBX 11 7 1 5
BITMAP
0180
FF80
FE00
0620
0060
00E0
01E0
ENDCHAR
STARTCHAR E3B4
ENCODING 58292
SWIDTH 585 0
DWIDTH 13 0
BBX 11 7 1 5
BITMAP
0180
FF80
FE00
06E0
00C0
00A0
01E0
ENDCHAR
STARTCHAR E3B5
ENCODING 58293
SWIDTH 585 0
DWIDTH 13 0
BBX 11 7 1 5
BITMAP
0180
FF80
FE00
06E0
00C0
00A0
00E0
ENDCHAR
STARTCHAR E3B6
ENCODING 58294
SWIDTH 585 0
DWIDTH 13 0
BBX 11 7 1 5
BITMAP
0180
FF80
FE00
06E0
0060
0040
00C0
ENDCHAR
STARTCHAR E3B7
ENCODING 58295
SWIDTH 585 0
DWIDTH 13 0
BBX 11 7 1 5
BITMAP
0180
FF80
FE00
06E0
00A0
00E0
01E0
ENDCHAR
STARTCHAR E3B8
ENCODING 58296
SWIDTH 585 0
DWIDTH 13 0
BBX 11 7 1 5
BITMAP
0180
FF80
FE00
06E0
00A0
00E0
01E0
ENDCHAR
STARTCHAR E3B9
ENCODING 58297
SWIDTH 585 0
DWIDTH 13 0
BBX 13 7 0 5
BITMAP
0180
FF80
FE00
06F8
00A8
00A8
01B8
ENDCHAR
STARTCHAR E3BA
ENCODING 58298
SWIDTH 585 0
DWIDTH 13 0
BBX 12 7 1 5
BITMAP
0180
FF80
FE00
06B0
00A0
00A0
01E0
ENDCHAR
STARTCHAR E3BB
ENCODING 58299
SWIDTH 585 0
DWIDTH 13 0
BBX 13 7 0 5
BITMAP
0180
FF80
FE00
06F8
00A8
0098
01F8
ENDCHAR
STARTCHAR E3BC
ENCODING 58300
SWIDTH 585 0
DWIDTH 13 0
BBX 12 10 1 5
BITMAP
0200
0200
1840
0700
0880
30B0
F880
0340
7E40
FA00
ENDCHAR
STARTCHAR E3BD
ENCODING 58301
SWIDTH 585 0
DWIDTH 13 0
BBX 9 8 2 5
BITMAP
1F80
2F00
5200
8E00
9000
9300
A480
FF80
ENDCHAR
STARTCHAR E3BE
ENCODING 58302
SWIDTH 585 0
DWIDTH 13 0
BBX 9 9 2 4
BITMAP
0200
2200
2200
2E00
5E00
9780
1200
1200
1200
ENDCHAR
STARTCHAR E3BF
ENCODING 58303
SWIDTH 585 0
DWIDTH 13 0
BBX 7 7 3 5
BITMAP
30
34
3C
BC
7E
7E
FE
ENDCHAR
STARTCHAR E3C0
ENCODING 58304
SWIDTH 585 0
DWIDTH 13 0
BBX 7 9 3 4
BITMAP
30
38
38
10
10
28
74
76
CE
ENDCHAR
STARTCHAR E3C1
ENCODING 58305
SWIDTH 585 0
DWIDTH 13 0
BBX 7 7 3 5
BITMAP
10
68
48
86
C2
18
6E
ENDCHAR
STARTCHAR E3C2
ENCODING 58306
SWIDTH 585 0
DWIDTH 13 0
BBX 7 8 3 4
BITMAP
10
68
48
86
82
40
6E
18
ENDCHAR
STARTCHAR E3C3
ENCODING 58307
SWIDTH 585 0
DWIDTH 13 0
BBX 10 10 2 4
BITMAP
0200
0700
0200
0000
F200
AA00
BF00
FF00
FF80
5BC0
ENDCHAR
STARTCHAR E3C4
ENCODING 58308
SWIDTH 585 0
DWIDTH 13 0
BBX 13 22 0 -3
BITMAP
B800
BE00
BF80
BFF0
BFF8
BFE0
BF00
BC00
B000
8000
8000
8000
8000
8000
8000
8000
8000
8000
8000
8000
8000
8000
ENDCHAR
STARTCHAR E3C5
ENCODING 58309
SWIDTH 585 0
DWIDTH 13 0
BBX 13 22 0 -3
BITMAP
B800
BE00
BF80
BFF0
BFF8
BFE0
BF00
BC00
B000
A000
B800
BE00
BFC0
BFF0
BFF8
BFC0
BF00
BC00
A000
8000
8000
8000
ENDCHAR
STARTCHAR E3C6
ENCODING 58310
SWIDTH 585 0
DWIDTH 13 0
BBX 13 22 0 -3
BITMAP
BFF8
BFF8
BC38
BC38
BC38
BC38
BFF8
BFF8
8000
8000
8000
8000
8000
8000
8000
8000
8000
8000
8000
8000
8000
8000
ENDCHAR
STARTCHAR E3C7
ENCODING 58311
SWIDTH 585 0
DWIDTH 13 0
BBX 13 22 0 -3
BITMAP
BFF8
BFF8
BC38
BC38
BC38
BC38
BFF8
BFF8
8000
BFF8
BFF8
BFF8
BC38
BC38
BC38
BFF8
BFF8
BFF8
8000
8000
8000
8000
ENDCHAR
STARTCHAR E3C8
ENCODING 58312
SWIDTH 585 0
DWIDTH 13 0
BBX 13 13 0 2
BITMAP
0FC0
3FA0
7FD0
7FC8
FFE8
FFE8
FFE8
FFE8
FFE8
7FC8
7FD0
3FA0
1FC0
ENDCHAR
STARTCHAR E3C9
ENCODING 58313
SWIDTH 585 0
DWIDTH 13 0
BBX 13 13 0 2
BITMAP
0FC0
3F20
7F90
7FC8
FFC8
FFC8
FFC8
FFC8
FFC8
7FC8
7F90
3FA0
1FC0
ENDCHAR
STARTCHAR E3CA
ENCODING 58314
SWIDTH 585 0
DWIDTH 13 0
BBX 13 13 0 2
BITMAP
0FC0
3F20
7F90
7F88
FF88
FFC8
FFC8
FFC8
FFC8
7F88
7F90
3F20
1FC0
ENDCHAR
STARTCHAR E3CB
ENCODING 58315
SWIDTH 585 0
DWIDTH 13 0
BBX 13 13 0 2
BITMAP
0FC0
3F20
7F10
7F88
FF88
FF88
FF88
FF88
FF88
7F88
7F10
3F20
1FC0
ENDCHAR
STARTCHAR E3CC
ENCODING 58316
SWIDTH 585 0
DWIDTH 13 0
BBX 13 13 0 2
BITMAP
0FC0
3E20
7F10
7F08
FF08
FF08
FF08
FF08
FF08
7F08
7F10
3F20
1FC0
ENDCHAR
STARTCHAR E3CD
ENCODING 58317
SWIDTH 585 0
DWIDTH 13 0
BBX 13 13 0 2
BITMAP
0FC0
3E20
7E10
7F08
FF08
FF08
FF08
FF08
FF08
7F08
7E10
3E20
1FC0
ENDCHAR
STARTCHAR E3CE
ENCODING 58318
SWIDTH 585 0
DWIDTH 13 0
BBX 13 13 0 2
BITMAP
0FC0
3E20
7E10
7E08
FE08
FE08
FE08
FE08
FE08
7E08
7E10
3E20
1FC0
ENDCHAR
STARTCHAR E3CF
ENCODING 58319
SWIDTH 585 0
DWIDTH 13 0
BBX 13 13 0 2
BITMAP
0FC0
3C20
7C10
7C08
FC08
FC08
FC08
FC08
FC08
7C08
7C10
3C20
1FC0
ENDCHAR
STARTCHAR E3D0
ENCODING 58320
SWIDTH 585 0
DWIDTH 13 0
BBX 13 13 0 2
BITMAP
0FC0
3C20
7C10
7808
F808
F808
F808
F808
F808
7808
7810
3C20
1FC0
ENDCHAR
STARTCHAR E3D1
ENCODING 58321
SWIDTH 585 0
DWIDTH 13 0
BBX 13 13 0 2
BITMAP
0FC0
3C20
7810
7808
F008
F008
F008
F008
F008
7008
7810
3820
1FC0
ENDCHAR
STARTCHAR E3D2
ENCODING 58322
SWIDTH 585 0
DWIDTH 13 0
BBX 13 13 0 2
BITMAP
0FC0
3820
7010
7008
F008
E008
E008
E008
E008
7008
7010
3820
1FC0
ENDCHAR
STARTCHAR E3D3
ENCODING 58323
SWIDTH 585 0
DWIDTH 13 0
BBX 13 13 0 2
BITMAP
0FC0
3820
7010
6008
E008
C008
C008
C008
E008
6008
6010
3020
1FC0
ENDCHAR
STARTCHAR E3D4
ENCODING 58324
SWIDTH 585 0
DWIDTH 13 0
BBX 13 13 0 2
BITMAP
0FC0
3020
6010
4008
C008
C008
C008
C008
C008
4008
6010
3020
1FC0
ENDCHAR
STARTCHAR E3D5
ENCODING 58325
SWIDTH 585 0
DWIDTH 13 0
BBX 13 13 0 2
BITMAP
0FC0
3020
4010
4008
8008
8008
8008
8008
8008
4008
4010
2020
1FC0
ENDCHAR
STARTCHAR E3D6
ENCODING 58326
SWIDTH 585 0
DWIDTH 13 0
BBX 13 13 0 2
BITMAP
0FC0
3060
4030
4038
8018
8018
8018
8018
8018
4018
4030
2060
1FC0
ENDCHAR
STARTCHAR E3D7
ENCODING 58327
SWIDTH 585 0
DWIDTH 13 0
BBX 13 13 0 2
BITMAP
0F80
30E0
4070
4038
8038
8038
8038
8038
8038
4038
4070
2060
1FC0
ENDCHAR
STARTCHAR E3D8
ENCODING 58328
SWIDTH 585 0
DWIDTH 13 0
BBX 13 13 0 2
BITMAP
0F80
30E0
4070
4078
8078
8078
8078
8078
8078
4078
4070
20E0
1FC0
ENDCHAR
STARTCHAR E3D9
ENCODING 58329
SWIDTH 585 0
DWIDTH 13 0
BBX 13 13 0 2
BITMAP
0F80
30E0
40F0
40F8
8078
8078
8078
8078
8078
40F8
40F0
20E0
1FC0
ENDCHAR
STARTCHAR E3DA
ENCODING 58330
SWIDTH 585 0
DWIDTH 13 0
BBX 13 13 0 2
BITMAP
0F80
31E0
40F0
40F8
80F8
80F8
80F8
80F8
80F8
40F8
40F0
20E0
1FC0
ENDCHAR
STARTCHAR E3DB
ENCODING 58331
SWIDTH 585 0
DWIDTH 13 0
BBX 13 13 0 2
BITMAP
0F80
31E0
41F0
41F8
81F8
80F8
80F8
80F8
80F8
41F8
41F0
21E0
1FC0
ENDCHAR
STARTCHAR E3DC
ENCODING 58332
SWIDTH 585 0
DWIDTH 13 0
BBX 13 13 0 2
BITMAP
0F80
31E0
41F0
41F8
81F8
81F8
81F8
81F8
81F8
41F8
41F0
21E0
1FC0
ENDCHAR
STARTCHAR E3DD
ENCODING 58333
SWIDTH 585 0
DWIDTH 13 0
BBX 13 13 0 2
BITMAP
0F80
31E0
41F0
43F8
83F8
83F8
83F8
83F8
83F8
43F8
43F0
21E0
1FC0
ENDCHAR
STARTCHAR E3DE
ENCODING 58334
SWIDTH 585 0
DWIDTH 13 0
BBX 13 13 0 2
BITMAP
0F80
33E0
43F0
43F8
83F8
83F8
83F8
83F8
83F8
43F8
43F0
23E0
1FC0
ENDCHAR
STARTCHAR E3DF
ENCODING 58335
SWIDTH 585 0
DWIDTH 13 0
BBX 13 13 0 2
BITMAP
0F80
33E0
43F0
47F8
87F8
87F8
87F8
87F8
87F8
47F8
43F0
23E0
1FC0
ENDCHAR
STARTCHAR E3E0
ENCODING 58336
SWIDTH 585 0
DWIDTH 13 0
BBX 13 13 0 2
BITMAP
0F80
33E0
47F0
47F8
87F8
8FF8
8FF8
8FF8
87F8
47F8
47F0
23E0
1FC0
ENDCHAR
STARTCHAR E3E1
ENCODING 58337
SWIDTH 585 0
DWIDTH 13 0
BBX 13 13 0 2
BITMAP
0F80
37E0
4FF0
4FF8
8FF8
9FF8
9FF8
9FF8
9FF8
4FF8
4FF0
27E0
1FC0
ENDCHAR
STARTCHAR E3E2
ENCODING 58338
SWIDTH 585 0
DWIDTH 13 0
BBX 13 13 0 2
BITMAP
0F80
37E0
4FF0
5FF8
9FF8
9FF8
9FF8
9FF8
9FF8
5FF8
5FF0
2FE0
1FC0
ENDCHAR
STARTCHAR E3E3
ENCODING 58339
SWIDTH 585 0
DWIDTH 13 0
BBX 13 13 0 2
BITMAP
0FC0
3FE0
7FF0
7FF8
FFF8
FFF8
FFF8
FFF8
FFF8
7FF8
7FF0
3FE0
1FC0
ENDCHAR
STARTCHAR E5FA
ENCODING 58874
SWIDTH 585 0
DWIDTH 13 0
BBX 13 11 0 3
BITMAP
FC00
FE00
FFF8
FFF8
8008
F7F8
F5B8
8608
F1F8
FFF8
FFF8
ENDCHAR
STARTCHAR E5FB
ENCODING 58875
SWIDTH 585 0
DWIDTH 13 0
BBX 13 11 0 3
BITMAP
FC00
FE00
FFF8
FCF8
FA78
F338
E2B8
F238
FA78
FCF8
FFF8
ENDCHAR
STARTCHAR E5FC
ENCODING 58876
SWIDTH 585 0
DWIDTH 13 0
BBX 13 11 0 3
BITMAP
FC00
FE00
FFF8
FA78
F878
E338
F738
E738
E078
F878
FFF8
ENDCHAR
STARTCHAR E5FD
ENCODING 58877
SWIDTH 585 0
DWIDTH 13 0
BBX 13 11 0 3
BITMAP
FC00
FE00
FFF8
F738
E038
E018
EF98
EB58
EFF8
F078
FFF8
ENDCHAR
STARTCHAR E5FE
ENCODING 58878
SWIDTH 585 0
DWIDTH 13 0
BBX 13 11 0 3
BITMAP
F000
F800
FFE0
FFE0
BFF8
BFF8
BFF8
FFF0
FFF0
FFF0
FFE0
ENDCHAR
STARTCHAR E5FF
ENCODING 58879
SWIDTH 585 0
DWIDTH 13 0
BBX 13 11 0 3
BITMAP
FC00
FE00
FFF8
FFF8
FFF8
FFF8
FFF8
FFF8
FFF8
FFF8
FFF8
ENDCHAR
STARTCHAR E600
ENCODING 58880
SWIDTH 585 0
DWIDTH 13 0
BBX 13 17 0 0
BITMAP
0008
0010
0020
0040
0040
0080
0080
0700
0300
0580
0500
0400
0800
0800
1000
2000
C000
ENDCHAR
STARTCHAR E601
ENCODING 58881
SWIDTH 585 0
DWIDTH 13 0
BBX 13 13 0 2
BITMAP
F800
0000
0000
7E00
7E00
0000
1EF8
1EF8
0000
1F58
1F58
0000
7E00
ENDCHAR
STARTCHAR E602
ENCODING 58882
SWIDTH 585 0
DWIDTH 13 0
BBX 13 21 0 -2
BITMAP
8000
C000
E000
F800
FC00
FE00
FF00
FFC0
FFE0
FFF0
FFF8
FFF0
FFE0
FFC0
FF00
FE00
FC00
F800
E000
C000
8000
ENDCHAR
STARTCHAR E603
ENCODING 58883
SWIDTH 585 0
DWIDTH 13 0
BBX 13 17 0 0
BITMAP
0040
03F8
0C08
3008
6008
4018
C830
C7C0
4000
2080
1300
0C00
1400
2400
4800
5800
7000
ENDCHAR
STARTCHAR E604
ENCODING 58884
SWIDTH 585 0
DWIDTH 13 0
BBX 13 13 0 2
BITMAP
0240
01F8
17E8
1FC0
0F80
1E00
7F00
3E00
3F00
3E00
BE00
3E80
7F00
ENDCHAR
STARTCHAR E605
ENCODING 58885
SWIDTH 585 0
DWIDTH 13 0
BBX 13 13 0 2
BITMAP
01F8
07F8
1FF8
3FF8
3FF8
7FF8
7FF8
FFF8
FFF8
FFF8
FFF8
FFF8
7FF8
ENDCHAR
STARTCHAR E606
ENCODING 58886
SWIDTH 585 0
DWIDTH 13 0
BBX 13 14 0 1
BITMAP
0F80
17C0
1FC0
7FC0
FFF8
FFB8
F038
EFF8
EFF8
6FF8
0E80
0F40
0FC0
0300
ENDCHAR
STARTCHAR E607
ENCODING 58887
SWIDTH 585 0
DWIDTH 13 0
BBX 13 21 0 -2
BITMAP
E038
E038
E038
E070
E0F0
E000
E000
E000
EFF0
FFF8
FFF8
F038
8038
0038
0038
8038
C038
E038
E038
C038
8038
ENDCHAR
STARTCHAR E608
ENCODING 58888
SWIDTH 585 0
DWIDTH 13 0
BBX 13 9 0 4
BITMAP
7DC0
7DF0
FDF8
BDF8
F3F8
BFF0
6FF0
2430
2C70
ENDCHAR
STARTCHAR E609
ENCODING 58889
SWIDTH 585 0
DWIDTH 13 0
BBX 13 15 0 1
BITMAP
2020
1840
1DC0
1FC0
1FC0
1FC0
1FC0
1FC0
FFF8
7FF0
3FE0
1FC0
0F80
0700
0200
ENDCHAR
STARTCHAR E60A
ENCODING 58890
SWIDTH 585 0
DWIDTH 13 0
BBX 13 25 0 -4
BITMAP
0200
0F80
1040
3060
3020
3F20
5FE0
5FE0
EFA0
FFE0
FFE0
FFA0
7FA0
7F40
3EE0
3DC0
7DE0
59E0
5D60
50F0
78B0
7878
F858
B838
3000
ENDCHAR
STARTCHAR E60B
ENCODING 58891
SWIDTH 585 0
DWIDTH 13 0
BBX 13 14 0 1
BITMAP
3870
6030
6030
6030
6030
6030
C018
6038
6030
6030
6030
6030
3870
1840
ENDCHAR
STARTCHAR E60C
ENCODING 58892
SWIDTH 585 0
DWIDTH 13 0
BBX 13 10 0 3
BITMAP
18F8
19D8
1980
19C0
18F0
1838
1818
1918
F9F8
E0E0
ENDCHAR
STARTCHAR E60D
ENCODING 58893
SWIDTH 585 0
DWIDTH 13 0
BBX 13 11 0 3
BITMAP
FFC0
8000
9FF0
A008
A078
A078
A428
A608
2F28
1FF8
1FF8
ENDCHAR
STARTCHAR E60E
ENCODING 58894
SWIDTH 585 0
DWIDTH 13 0
BBX 13 11 0 3
BITMAP
0880
08C0
3860
7030
E018
8008
C018
6030
3060
18C0
0880
ENDCHAR
STARTCHAR E60F
ENCODING 58895
SWIDTH 585 0
DWIDTH 13 0
BBX 14 3 0 6
BITMAP
4DC8
BFE4
F878
ENDCHAR
STARTCHAR E610
ENCODING 58896
SWIDTH 585 0
DWIDTH 13 0
BBX 13 30 0 -7
BITMAP
4000
2000
1000
0800
0800
0C00
1F80
FFF8
FFF8
FFF8
FFF8
FFF8
7FF8
7FF8
7FF8
7FF8
7FF0
7FF0
7FF0
7FF0
3FF0
3FF0
3FF0
1FE0
1FE0
1FE0
1FE0
1FE0
1FC0
0300
ENDCHAR
STARTCHAR E611
ENCODING 58897
SWIDTH 585 0
DWIDTH 13 0
BBX 13 16 0 0
BITMAP
F6B8
3FF0
7FF8
7FF8
7FF8
7FF8
FFF8
FFF8
3FE0
3FE0
7FE8
FFF8
7FF8
3FE0
1FC0
0700
ENDCHAR
STARTCHAR E612
ENCODING 58898
SWIDTH 585 0
DWIDTH 13 0
BBX 13 15 0 1
BITMAP
FFF8
FFF8
0000
0000
0000
FFE0
0000
0000
0000
FFF8
FFF8
0000
0000
FF00
FF00
ENDCHAR
STARTCHAR E613
ENCODING 58899
SWIDTH 585 0
DWIDTH 13 0
BBX 13 11 0 3
BITMAP
FE00
FE00
FFF8
FFF8
FFF8
FFF8
FFF8
FFF8
FFF8
FFF8
FFF8
ENDCHAR
STARTCHAR E614
ENCODING 58900
SWIDTH 585 0
DWIDTH 13 0
BBX 13 13 0 2
BITMAP
0E70
0E70
0C60
0C60
7FF8
1CE0
18E0
18C0
FFF8
FFF8
39C0
39C0
3180
ENDCHAR
STARTCHAR E615
ENCODING 58901
SWIDTH 585 0
DWIDTH 13 0
BBX 13 13 0 2
BITMAP
0CC0
1FC0
1FC0
7FF8
F878
F078
7070
7078
F878
7FF8
5FE0
1FC0
1CE0
ENDCHAR
STARTCHAR E616
ENCODING 58902
SWIDTH 585 0
DWIDTH 13 0
BBX 13 5 0 6
BITMAP
FFF8
8908
AB38
A938
FFF8
ENDCHAR
STARTCHAR E617
ENCODING 58903
SWIDTH 585 0
DWIDTH 13 0
BBX 13 15 0 1
BITMAP
0200
0780
1FC0
3FF0
7FF8
FFF8
FDF8
F8F8
F878
F878
F878
F878
F878
F038
8008
ENDCHAR
STARTCHAR E618
ENCODING 58904
SWIDTH 585 0
DWIDTH 13 0
BBX 13 11 0 3
BITMAP
0880
08C0
3860
7030
E018
8008
C018
6030
3860
18C0
0880
ENDCHAR
STARTCHAR E619
ENCODING 58905
SWIDTH 585 0
DWIDTH 13 0
BBX 13 13 0 2
BITMAP
F000
FC00
FF00
0F80
C3C0
F9E0
FCF0
3E70
0F38
0738
F3B8
F398
E398
ENDCHAR
STARTCHAR E61A
ENCODING 58906
SWIDTH 585 0
DWIDTH 13 0
BBX 13 12 0 2
BITMAP
1E30
7F60
7EE0
F3E0
FF80
FEF8
FC38
81F0
41C0
6100
3F00
0600
ENDCHAR
STARTCHAR E61B
ENCODING 58907
SWIDTH 585 0
DWIDTH 13 0
BBX 13 11 0 3
BITMAP
01C0
5FC8
7038
4FC8
7FF8
7FF8
BFF0
BFF0
DFE0
2FE0
0FC0
ENDCHAR
ENDFONT
